<svg width="275" height="208" viewBox="0 0 275 208" fill="none" xmlns="http://www.w3.org/2000/svg">
<g style="mix-blend-mode:multiply">
<path d="M187.852 53.2266H8.9302C4.41779 53.2266 0.759766 56.8838 0.759766 61.3953V199.619C0.759766 204.13 4.41779 207.788 8.9302 207.788H187.852C192.364 207.788 196.022 204.13 196.022 199.619V61.3953C196.022 56.8838 192.364 53.2266 187.852 53.2266Z" fill="white" fill-opacity="0.26"/>
</g>
<path d="M196.885 43.397H17.9634C13.451 43.397 9.79297 47.0542 9.79297 51.5657V189.789C9.79297 194.301 13.451 197.958 17.9634 197.958H196.885C201.398 197.958 205.056 194.301 205.056 189.789V51.5657C205.056 47.0542 201.398 43.397 196.885 43.397Z" fill="#FF6020" fill-opacity="0.25" stroke="white" stroke-miterlimit="10"/>
<g style="mix-blend-mode:multiply">
<path d="M17.9634 46.843H196.885C199.052 46.843 201.13 47.7036 202.663 49.2356C204.195 50.7675 205.056 52.8452 205.056 55.0117V61.354H9.79297V55.0117C9.79297 52.8452 10.6538 50.7675 12.186 49.2356C13.7183 47.7036 15.7965 46.843 17.9634 46.843Z" fill="white" fill-opacity="0.26"/>
</g>
<path d="M17.9634 43.397H196.885C199.052 43.397 201.13 44.2576 202.663 45.7895C204.195 47.3215 205.056 49.3992 205.056 51.5657V57.9257H9.79297V51.5657C9.79297 49.3992 10.6538 47.3215 12.186 45.7895C13.7183 44.2576 15.7965 43.397 17.9634 43.397Z" fill="#FF6020" fill-opacity="0.25"/>
<path d="M19.8326 53.1201C21.1974 53.1201 22.3038 52.0139 22.3038 50.6494C22.3038 49.2849 21.1974 48.1787 19.8326 48.1787C18.4677 48.1787 17.3613 49.2849 17.3613 50.6494C17.3613 52.0139 18.4677 53.1201 19.8326 53.1201Z" fill="#FF5100"/>
<path d="M32.1358 50.6555C32.1358 51.3092 31.876 51.9362 31.4137 52.3984C30.9513 52.8606 30.3243 53.1203 29.6704 53.1203C29.0161 53.1203 28.3884 52.8608 27.9251 52.3988C27.4618 51.9367 27.2008 51.3098 27.1992 50.6555C27.1992 50.0003 27.4596 49.3718 27.923 48.9085C28.3865 48.4451 29.015 48.1848 29.6704 48.1848C30.3248 48.1864 30.9519 48.4474 31.414 48.9106C31.8762 49.3737 32.1358 50.0013 32.1358 50.6555Z" fill="white"/>
<path d="M41.9717 50.6555C41.9717 51.3092 41.712 51.9362 41.2496 52.3984C40.7873 52.8606 40.1603 53.1203 39.5064 53.1203C38.852 53.1203 38.2243 52.8608 37.7611 52.3988C37.2978 51.9367 37.0367 51.3098 37.0352 50.6555C37.0352 50.0003 37.2955 49.3718 37.759 48.9085C38.2224 48.4451 38.851 48.1848 39.5064 48.1848C40.1608 48.1864 40.7878 48.4474 41.25 48.9106C41.7122 49.3737 41.9717 50.0013 41.9717 50.6555Z" fill="#3C3C3C"/>
<path d="M145.574 70.3914H183.222" stroke="white" stroke-opacity="0.26" stroke-width="5" stroke-linecap="round" stroke-linejoin="round"/>
<path d="M145.574 77.6914H183.222" stroke="white" stroke-opacity="0.26" stroke-width="5" stroke-linecap="round" stroke-linejoin="round"/>
<path d="M145.574 84.991H183.222" stroke="white" stroke-opacity="0.26" stroke-width="5" stroke-linecap="round" stroke-linejoin="round"/>
<path d="M145.574 92.2969H183.222" stroke="white" stroke-opacity="0.26" stroke-width="5" stroke-linecap="round" stroke-linejoin="round"/>
<path d="M145.574 99.5967H183.222" stroke="white" stroke-opacity="0.26" stroke-width="5" stroke-linecap="round" stroke-linejoin="round"/>
<path d="M24.3848 114.196H183.223" stroke="white" stroke-opacity="0.26" stroke-width="5" stroke-linecap="round" stroke-linejoin="round"/>
<path d="M24.3848 121.496H183.223" stroke="white" stroke-opacity="0.26" stroke-width="5" stroke-linecap="round" stroke-linejoin="round"/>
<path d="M24.3848 128.802H183.223" stroke="white" stroke-opacity="0.26" stroke-width="5" stroke-linecap="round" stroke-linejoin="round"/>
<path d="M24.3848 136.102H183.223" stroke="white" stroke-opacity="0.26" stroke-width="5" stroke-linecap="round" stroke-linejoin="round"/>
<path d="M24.3848 143.401H183.223" stroke="white" stroke-opacity="0.26" stroke-width="5" stroke-linecap="round" stroke-linejoin="round"/>
<path d="M91.6699 155.182H148.461" stroke="white" stroke-opacity="0.26" stroke-width="5" stroke-linecap="round" stroke-linejoin="round"/>
<path d="M91.6699 162.487H148.461" stroke="white" stroke-opacity="0.26" stroke-width="5" stroke-linecap="round" stroke-linejoin="round"/>
<path d="M91.6699 169.787H148.461" stroke="white" stroke-opacity="0.26" stroke-width="5" stroke-linecap="round" stroke-linejoin="round"/>
<path d="M91.6699 177.087H131.369" stroke="white" stroke-opacity="0.26" stroke-width="5" stroke-linecap="round" stroke-linejoin="round"/>
<path d="M91.6699 184.387H131.369" stroke="white" stroke-opacity="0.26" stroke-width="5" stroke-linecap="round" stroke-linejoin="round"/>
<path d="M139.167 90.5394C141.672 79.7669 134.968 69.0035 124.194 66.4986C113.419 63.9937 102.653 70.696 100.148 81.4685C97.6424 92.241 104.346 103.004 115.121 105.509C125.896 108.014 136.661 101.312 139.167 90.5394Z" stroke="white" stroke-opacity="0.26" stroke-width="5" stroke-linecap="round" stroke-linejoin="round"/>
<path d="M119.668 65.9763V86.002L134.371 99.5968" stroke="white" stroke-opacity="0.26" stroke-width="5" stroke-linecap="round" stroke-linejoin="round"/>
<path d="M63.2 175.015C65.7053 164.242 59.0017 153.479 48.2269 150.974C37.4521 148.469 26.6863 155.171 24.1809 165.944C21.6756 176.716 28.3792 187.48 39.154 189.985C49.9288 192.49 60.6946 185.787 63.2 175.015Z" stroke="white" stroke-opacity="0.26" stroke-width="5" stroke-linecap="round" stroke-linejoin="round"/>
<path d="M43.6934 150.447V170.473L58.4025 184.068" stroke="white" stroke-opacity="0.26" stroke-width="5" stroke-linecap="round" stroke-linejoin="round"/>
<path d="M190.318 153.06H154.213V185.096H190.318V153.06Z" stroke="white" stroke-opacity="0.26" stroke-width="5" stroke-linecap="round" stroke-linejoin="round"/>
<path d="M23.6758 69.9897L56.5822 102.02H23.6758V69.9897Z" stroke="white" stroke-opacity="0.26" stroke-width="5" stroke-linecap="round" stroke-linejoin="round"/>
<g style="mix-blend-mode:multiply">
<path d="M258.608 39.626H181.444C176.931 39.626 173.273 43.2832 173.273 47.7947V93.5146C173.273 98.026 176.931 101.683 181.444 101.683H258.608C263.12 101.683 266.778 98.026 266.778 93.5146V47.7947C266.778 43.2832 263.12 39.626 258.608 39.626Z" fill="white" fill-opacity="0.26"/>
</g>
<path d="M265.873 33.3308H188.709C184.197 33.3308 180.539 36.9881 180.539 41.4995V87.2194C180.539 91.7308 184.197 95.3881 188.709 95.3881H265.873C270.386 95.3881 274.044 91.7308 274.044 87.2194V41.4995C274.044 36.9881 270.386 33.3308 265.873 33.3308Z" fill="#FF6020" fill-opacity="0.25" stroke="white" stroke-miterlimit="10"/>
<g style="mix-blend-mode:multiply">
<path d="M188.709 36.7769H265.879C268.042 36.7768 270.117 37.6342 271.648 39.161C273.18 40.6879 274.043 42.7595 274.05 44.9219V51.2878H180.539V44.9219C180.545 42.7595 181.409 40.6879 182.94 39.161C184.472 37.6342 186.547 36.7768 188.709 36.7769Z" fill="white" fill-opacity="0.26"/>
</g>
<path d="M188.709 33.3308H265.879C268.046 33.3308 270.124 34.1914 271.657 35.7234C273.189 37.2553 274.05 39.333 274.05 41.4995V47.8418H180.539V41.4995C180.539 39.333 181.4 37.2553 182.932 35.7234C184.464 34.1914 186.543 33.3308 188.709 33.3308Z" fill="#FF6020" fill-opacity="0.25" stroke="white" stroke-miterlimit="10"/>
<path d="M221.262 40.5835H233.807" stroke="white" stroke-opacity="0.26" stroke-width="5" stroke-linecap="round" stroke-linejoin="round"/>
<path d="M239.695 40.5835H265.176" stroke="white" stroke-opacity="0.26" stroke-width="5" stroke-linecap="round" stroke-linejoin="round"/>
<path d="M193.042 40.5894C193.042 41.2431 192.782 41.87 192.32 42.3322C191.858 42.7945 191.231 43.0542 190.577 43.0542C189.922 43.0542 189.295 42.7947 188.831 42.3326C188.368 41.8705 188.107 41.2436 188.105 40.5894C188.105 39.9341 188.366 39.3056 188.829 38.8423C189.293 38.379 189.921 38.1187 190.577 38.1187C191.231 38.1202 191.858 38.3812 192.32 38.8444C192.782 39.3076 193.042 39.9351 193.042 40.5894Z" fill="#FF5100"/>
<path d="M202.886 40.5894C202.886 40.913 202.822 41.2336 202.698 41.5326C202.574 41.8316 202.393 42.1034 202.164 42.3322C201.935 42.5611 201.663 42.7427 201.364 42.8665C201.065 42.9904 200.744 43.0542 200.42 43.0542C199.766 43.0542 199.138 42.7947 198.675 42.3326C198.212 41.8705 197.951 41.2436 197.949 40.5894C197.949 39.9341 198.21 39.3056 198.673 38.8423C199.136 38.379 199.765 38.1187 200.42 38.1187C201.075 38.1202 201.702 38.3812 202.164 38.8444C202.626 39.3076 202.886 39.9351 202.886 40.5894Z" fill="white"/>
<path d="M212.718 40.5894C212.718 40.913 212.654 41.2336 212.53 41.5326C212.406 41.8316 212.225 42.1034 211.996 42.3322C211.767 42.5611 211.495 42.7427 211.196 42.8665C210.897 42.9904 210.576 43.0542 210.252 43.0542C209.598 43.0542 208.97 42.7947 208.507 42.3326C208.044 41.8705 207.783 41.2436 207.781 40.5894C207.781 39.9341 208.042 39.3056 208.505 38.8423C208.969 38.379 209.597 38.1187 210.252 38.1187C210.907 38.1202 211.534 38.3812 211.996 38.8444C212.458 39.3076 212.718 39.9351 212.718 40.5894Z" fill="#3C3C3C"/>
<path d="M194.018 80.2625C211.937 60.6624 229.59 80.2625 229.59 80.2625C248.107 59.9294 265.163 80.2625 265.163 80.2625" stroke="white" stroke-miterlimit="10"/>
<path d="M194.035 80.2627H265.175" stroke="#2C2B2B" stroke-miterlimit="10"/>
<path d="M265.176 76.4854V82.4375" stroke="#2C2B2B" stroke-miterlimit="10"/>
<path d="M194.035 76.4854V82.4375" stroke="#2C2B2B" stroke-miterlimit="10"/>
<path d="M265.944 70.6042H264.407C263.872 70.6042 263.438 71.0382 263.438 71.5736V73.1104C263.438 73.6458 263.872 74.0798 264.407 74.0798H265.944C266.48 74.0798 266.914 73.6458 266.914 73.1104V71.5736C266.914 71.0382 266.48 70.6042 265.944 70.6042Z" stroke="#2C2B2B" stroke-miterlimit="10"/>
<path d="M194.804 70.6042H193.266C192.731 70.6042 192.297 71.0382 192.297 71.5736V73.1104C192.297 73.6458 192.731 74.0798 193.266 74.0798H194.804C195.339 74.0798 195.773 73.6458 195.773 73.1104V71.5736C195.773 71.0382 195.339 70.6042 194.804 70.6042Z" stroke="#2C2B2B" stroke-miterlimit="10"/>
<path d="M230.378 82.8098H228.841C228.305 82.8098 227.871 83.2438 227.871 83.7792V85.316C227.871 85.8513 228.305 86.2853 228.841 86.2853H230.378C230.913 86.2853 231.347 85.8513 231.347 85.316V83.7792C231.347 83.2438 230.913 82.8098 230.378 82.8098Z" stroke="#2C2B2B" stroke-miterlimit="10"/>
<path d="M229.603 89.7492C232.476 89.7492 234.806 87.4204 234.806 84.5477C234.806 81.675 232.476 79.3462 229.603 79.3462C226.73 79.3462 224.4 81.675 224.4 84.5477C224.4 87.4204 226.73 89.7492 229.603 89.7492Z" stroke="#2D2D2D" stroke-miterlimit="10"/>
<path d="M195.373 65.119L194.652 64.0078L193.954 65.1131C193.891 65.2129 193.804 65.295 193.7 65.3519C193.597 65.4087 193.481 65.4384 193.363 65.4382H193.049C192.919 65.443 192.79 65.4111 192.676 65.346C192.563 65.2809 192.47 65.1853 192.409 65.0701C192.347 64.9549 192.319 64.8247 192.328 64.6944C192.337 64.5641 192.382 64.4388 192.458 64.3329L193.599 62.737L192.506 61.1825C192.431 61.076 192.388 60.9512 192.38 60.8217C192.373 60.6922 192.401 60.5631 192.462 60.4487C192.524 60.3343 192.615 60.2391 192.727 60.1735C192.839 60.1079 192.967 60.0746 193.097 60.0771H193.41C193.526 60.0761 193.641 60.1035 193.744 60.1571C193.847 60.2107 193.935 60.2888 194.001 60.3845L194.705 61.4248L195.385 60.3904C195.449 60.2932 195.537 60.2137 195.641 60.159C195.744 60.1043 195.859 60.0762 195.976 60.0771H196.177C196.308 60.0738 196.437 60.1069 196.55 60.1727C196.662 60.2386 196.755 60.3346 196.816 60.45C196.878 60.5654 196.906 60.6956 196.897 60.826C196.889 60.9564 196.844 61.0819 196.768 61.1884L195.704 62.6661L196.886 64.3329C196.963 64.4388 197.008 64.5641 197.017 64.6944C197.026 64.8247 196.998 64.9549 196.936 65.0701C196.874 65.1853 196.782 65.2809 196.668 65.346C196.555 65.4111 196.426 65.443 196.295 65.4382H195.97C195.852 65.4401 195.735 65.4118 195.63 65.3559C195.526 65.3001 195.437 65.2185 195.373 65.119Z" fill="#3C3C3C"/>
<path d="M208.361 63.4936V64.7408C208.36 64.9263 208.285 65.1037 208.153 65.2343C208.022 65.3649 207.843 65.4382 207.658 65.4382H207.25C207.158 65.4382 207.068 65.4202 206.983 65.3851C206.898 65.3501 206.821 65.2987 206.757 65.2339C206.692 65.1692 206.641 65.0923 206.605 65.0077C206.57 64.923 206.552 64.8323 206.552 64.7408V63.4699L205.157 61.1352C205.093 61.0298 205.059 60.9095 205.057 60.7864C205.055 60.6633 205.085 60.5419 205.145 60.4344C205.205 60.327 205.293 60.2373 205.399 60.1746C205.505 60.1118 205.625 60.0782 205.748 60.0771H206.02C206.14 60.0804 206.256 60.1135 206.359 60.1734C206.463 60.2333 206.549 60.3181 206.611 60.42L207.504 61.9331L208.403 60.42C208.464 60.3169 208.55 60.2313 208.654 60.1712C208.757 60.1112 208.874 60.0788 208.994 60.0771H209.112C209.235 60.0782 209.356 60.1118 209.462 60.1746C209.568 60.2373 209.655 60.327 209.715 60.4344C209.775 60.5419 209.806 60.6633 209.804 60.7864C209.802 60.9095 209.767 61.0298 209.703 61.1352L208.361 63.4936Z" fill="#3C3C3C"/>
<path d="M220.841 64.7409C220.841 64.833 220.823 64.9242 220.788 65.0092C220.752 65.0942 220.7 65.1714 220.635 65.2362C220.569 65.3011 220.492 65.3523 220.407 65.387C220.321 65.4217 220.23 65.4392 220.138 65.4384H216.768C216.652 65.4425 216.537 65.4229 216.43 65.3807C216.322 65.3386 216.224 65.2748 216.142 65.1934C216.06 65.112 215.996 65.0146 215.953 64.9073C215.91 64.8 215.89 64.685 215.893 64.5695C215.894 64.4033 215.952 64.2425 216.058 64.1144L218.341 61.4605H216.667C216.482 61.4605 216.305 61.387 216.174 61.2562C216.043 61.1254 215.97 60.948 215.97 60.763C215.969 60.6709 215.986 60.5796 216.021 60.4943C216.056 60.4089 216.107 60.3314 216.172 60.266C216.237 60.2006 216.314 60.1487 216.399 60.1132C216.484 60.0778 216.575 60.0596 216.667 60.0596H219.842C219.954 60.0588 220.065 60.0803 220.169 60.1228C220.273 60.1653 220.367 60.2279 220.446 60.3071C220.525 60.3863 220.588 60.4805 220.63 60.5841C220.673 60.6877 220.694 60.7988 220.693 60.9107C220.693 61.0772 220.635 61.2383 220.528 61.3659L218.258 64.0376H220.132C220.225 64.0368 220.317 64.0544 220.403 64.0894C220.489 64.1244 220.567 64.1761 220.633 64.2415C220.699 64.3069 220.751 64.3847 220.787 64.4704C220.823 64.5561 220.841 64.6481 220.841 64.7409Z" fill="#3C3C3C"/>
<path d="M203.182 60.875H200.149C199.849 60.875 199.605 61.1185 199.605 61.4188V61.8444C199.605 62.1447 199.849 62.3882 200.149 62.3882H203.182C203.483 62.3882 203.726 62.1447 203.726 61.8444V61.4188C203.726 61.1185 203.483 60.875 203.182 60.875Z" fill="#3C3C3C"/>
<path d="M203.182 63.3164H200.149C199.849 63.3164 199.605 63.5599 199.605 63.8602V64.2858C199.605 64.5861 199.849 64.8296 200.149 64.8296H203.182C203.483 64.8296 203.726 64.5861 203.726 64.2858V63.8602C203.726 63.5599 203.483 63.3164 203.182 63.3164Z" fill="#3C3C3C"/>
<path d="M214.668 63.4041L212.523 61.26C212.311 61.0476 211.966 61.0476 211.754 61.26L211.453 61.5609C211.241 61.7733 211.241 62.1176 211.453 62.33L213.598 64.4741C213.81 64.6864 214.154 64.6864 214.367 64.4741L214.668 64.1732C214.88 63.9608 214.88 63.6165 214.668 63.4041Z" fill="#3C3C3C"/>
<path d="M212.524 64.4737L214.668 62.3296C214.881 62.1172 214.881 61.7729 214.668 61.5606L214.367 61.2596C214.155 61.0473 213.81 61.0473 213.598 61.2596L211.453 63.4037C211.241 63.6161 211.241 63.9604 211.453 64.1728L211.754 64.4737C211.967 64.6861 212.311 64.6861 212.524 64.4737Z" fill="#3C3C3C"/>
<path d="M227.291 60.2485H265.175" stroke="white" stroke-opacity="0.26" stroke-width="5" stroke-linecap="round" stroke-linejoin="round"/>
<path d="M227.291 66.0588H246.233" stroke="white" stroke-opacity="0.26" stroke-width="5" stroke-linecap="round" stroke-linejoin="round"/>
<path d="M121.514 178.588H54.4005C39.4845 177.075 42.4109 160.655 59.2129 152.847C59.6149 152.646 60.0288 152.462 60.4545 152.256L115.064 150.151C116.004 150.672 116.991 151.257 117.99 151.925C118.041 151.962 118.095 151.995 118.15 152.025C128.348 158.769 139.753 171.879 121.514 178.588Z" fill="#2D2D2D"/>
<path d="M48.8047 207.788H130.079C124.846 175.484 114.578 158.287 114.578 158.287L64.9413 154.806C53.1624 168.47 49.7539 192.695 48.8047 207.788Z" fill="#131313"/>
<path d="M151.374 139.926C149.234 156.949 117.752 158.598 123.126 134.677L151.374 139.926Z" fill="#1E1E1E"/>
<path d="M148.886 132.774L129.169 150.973C122.731 144.324 98.864 109.22 94.3886 92.8112C93.4618 89.4225 93.8481 85.809 95.4701 82.6926C97.0922 79.5762 99.8307 77.1865 103.138 76.0009C105.902 75.0151 108.907 74.9282 111.723 75.7527C114.771 76.6317 117.429 78.5252 119.255 81.1197L148.886 132.774Z" fill="#1E1E1E"/>
<path d="M169.936 88.0831L165.101 91.5157C164.073 92.2452 163.832 93.6695 164.562 94.6969L167.454 98.7691C168.184 99.7965 169.608 100.038 170.636 99.3084L175.471 95.8758C176.498 95.1462 176.74 93.7219 176.01 92.6945L173.117 88.6223C172.388 87.5949 170.963 87.3535 169.936 88.0831Z" fill="#2C2B2B"/>
<path d="M185.906 91.8891C177.281 97.3329 169.696 128.536 151.829 141.806C150.86 142.517 149.81 143.112 148.702 143.579C139.467 147.445 128.436 140.623 128.436 129.854L141.673 117.766L171.481 90.5769L185.906 91.8891Z" fill="#EFBFA9"/>
<path d="M148.702 143.602C139.467 147.468 128.436 140.647 128.436 129.878L141.673 117.766C133.071 133.897 137.747 145.819 148.69 143.573L148.702 143.602Z" fill="#2D2D2D"/>
<path d="M171.482 90.5769L168.201 98.6214C182.502 105.714 192.712 99.047 199.032 98.1013L190.673 81.1196L171.482 90.5769Z" fill="#EFBFA9"/>
<path d="M195.822 88.768C195.497 88.9726 195.216 89.2399 194.994 89.5541C194.929 89.6427 194.876 89.7255 194.823 89.8142C194.563 90.2696 194.426 90.7851 194.426 91.3096C194.426 91.8341 194.563 92.3496 194.823 92.805C195.022 93.1611 195.291 93.4729 195.615 93.7212L197.69 95.3289L200.646 97.5927C201.049 97.9058 201.525 98.1094 202.03 98.1838C202.716 98.2768 203.412 98.1261 203.998 97.7582C204.325 97.553 204.607 97.2835 204.826 96.9662C205.226 96.3994 205.412 95.7086 205.349 95.0176C205.286 94.3265 204.979 93.6805 204.483 93.1951C204.428 93.1394 204.369 93.088 204.306 93.0414L199.417 88.9985L199.269 88.8862C198.774 88.5196 198.179 88.312 197.564 88.2908C196.948 88.2697 196.341 88.4361 195.822 88.768Z" fill="#EFBFA9"/>
<path d="M215.432 81.1788C215.489 80.8357 215.475 80.4844 215.389 80.1473C215.303 79.8101 215.148 79.4946 214.933 79.2209C214.718 78.9472 214.449 78.7213 214.142 78.5577C213.834 78.3941 213.497 78.2963 213.15 78.2707L200.474 77.3486L188.029 80.9365L190.134 91.6291L203.85 83.555L213.043 83.2653C213.621 83.2484 214.176 83.031 214.612 82.6504C215.047 82.2698 215.337 81.7496 215.432 81.1788Z" fill="#EFBFA9"/>
<path d="M188.029 80.9361L190.583 80.1973L200.22 81.8937L201.852 84.7308L189.543 91.6524L188.029 80.9361Z" fill="#E89076"/>
<path d="M202.294 102.138C201.981 102.565 201.559 102.9 201.072 103.108C200.586 103.316 200.052 103.389 199.527 103.32L193.237 102.475C192.458 102.366 191.751 101.96 191.264 101.342C190.777 100.724 190.548 99.9422 190.624 99.1592C190.678 98.7085 190.829 98.275 191.067 97.8884C191.104 97.8194 191.148 97.7541 191.197 97.6933C191.232 97.6371 191.274 97.5855 191.321 97.5397C191.658 97.1288 192.097 96.8148 192.595 96.6299C193.092 96.445 193.63 96.3959 194.153 96.4875L200.402 97.5397C200.829 97.6135 201.234 97.7811 201.587 98.0306C201.941 98.28 202.235 98.605 202.448 98.9819C202.507 99.0883 202.56 99.2006 202.613 99.3129C202.808 99.7402 202.885 100.211 202.838 100.678C202.791 101.205 202.603 101.709 202.294 102.138Z" fill="#EFBFA9"/>
<path d="M202.473 98.9878C202.015 99.342 201.46 99.5482 200.882 99.5789L194.562 100.064C192.984 100.188 191.074 99.171 191.092 97.0431C191.754 96.2334 193.072 96.2747 194.178 96.4521L200.427 97.5042C200.857 97.5825 201.265 97.7565 201.619 98.0133C201.973 98.2701 202.265 98.6031 202.473 98.9878Z" fill="#E89076"/>
<path d="M200.391 95.9792C200.17 96.3383 199.873 96.6452 199.522 96.8788C199.171 97.1125 198.774 97.2674 198.357 97.3328L194.03 97.9239C193.254 98.0468 192.462 97.8632 191.819 97.412C191.177 96.9607 190.736 96.2773 190.589 95.5064C190.462 94.8325 190.57 94.1355 190.896 93.5322C190.922 93.4701 190.954 93.4107 190.991 93.3548C191.227 92.9673 191.547 92.6379 191.928 92.3912C192.308 92.1446 192.74 91.987 193.19 91.9303L197.547 91.5284C198.268 91.4411 198.996 91.6267 199.587 92.0486C200.2 92.476 200.624 93.1242 200.769 93.8573C200.919 94.5869 200.784 95.3463 200.391 95.9792Z" fill="#E89076"/>
<path d="M192.121 94.0642L192.009 94.2357L191.89 94.4366C191.604 94.9661 191.487 95.5704 191.553 96.1685C191.637 96.9497 192.023 97.6673 192.628 98.1685C193.233 98.6698 194.01 98.915 194.793 98.852L201.113 98.3791C201.413 98.3537 201.708 98.2839 201.988 98.1722C202.495 97.9664 202.933 97.6223 203.253 97.1792C203.694 96.5807 203.888 95.8362 203.797 95.0986C203.742 94.6795 203.599 94.2767 203.377 93.9165C203.211 93.6476 202.999 93.4096 202.751 93.2131C202.2 92.7415 201.489 92.4983 200.764 92.5334L194.799 92.7993H194.421C193.967 92.8237 193.524 92.95 193.126 93.169C192.728 93.388 192.384 93.694 192.121 94.0642Z" fill="#EFBFA9"/>
<path d="M194.864 92.7697H194.48C194.027 92.79 193.584 92.9121 193.185 93.127C192.786 93.3419 192.44 93.644 192.174 94.011L192.062 94.1824L191.943 94.3833C192.263 94.96 192.762 95.4162 193.365 95.682C193.969 95.9478 194.643 96.0086 195.284 95.8551L197.719 95.264L203.04 93.9991C203.185 93.9679 203.326 93.9203 203.46 93.8573C203.864 93.6944 204.228 93.4441 204.524 93.1243C204.469 93.0686 204.41 93.0172 204.347 92.9707L199.458 88.9277L199.31 88.8213L194.905 89.7611C194.633 90.2142 194.486 90.7313 194.479 91.2598C194.471 91.7883 194.604 92.3093 194.864 92.7697Z" fill="#E89076"/>
<path d="M195.479 84.3469C195.02 84.6355 194.65 85.0444 194.409 85.529C194.049 86.2298 193.976 87.0431 194.206 87.7965C194.435 88.55 194.949 89.1847 195.638 89.5661L197.412 90.5591L201.178 92.622C201.717 92.9223 202.339 93.0404 202.952 92.9589C203.374 92.9115 203.779 92.7657 204.134 92.5333C204.59 92.2454 204.956 91.836 205.192 91.3512C205.509 90.6911 205.57 89.9369 205.362 89.2347C205.155 88.5325 204.694 87.9324 204.069 87.5505L202.295 86.5043L200.421 85.3872L198.606 84.3114C198.131 84.0315 197.589 83.8868 197.037 83.893C196.486 83.8993 195.947 84.0562 195.479 84.3469Z" fill="#EFBFA9"/>
<path d="M200.681 91.091C200.519 91.4755 200.277 91.8213 199.971 92.1055C199.666 92.3898 199.303 92.6061 198.908 92.7401L194.722 93.9932C193.975 94.2333 193.163 94.1725 192.46 93.8237C191.757 93.4749 191.217 92.8656 190.956 92.1254C190.726 91.4814 190.726 90.7775 190.956 90.1335C190.972 90.0685 190.993 90.0051 191.021 89.9443C191.187 89.5173 191.451 89.1348 191.79 88.8271C192.13 88.5193 192.537 88.2948 192.978 88.1711L197.223 87.1013C197.922 86.9051 198.669 86.9789 199.316 87.3081C199.987 87.6331 200.505 88.2081 200.758 88.91C201.017 89.6193 200.99 90.4017 200.681 91.091Z" fill="#E89076"/>
<path d="M203.743 91.8003C203.552 92.176 203.281 92.5055 202.949 92.7658C202.617 93.0261 202.233 93.211 201.822 93.3076L195.638 94.7498C194.874 94.9305 194.07 94.807 193.396 94.4054C192.722 94.0039 192.23 93.3557 192.026 92.5983C191.85 91.9355 191.907 91.2327 192.185 90.6063C192.205 90.5448 192.231 90.4853 192.262 90.429C192.468 90.0236 192.762 89.67 193.123 89.3946C193.485 89.1193 193.904 88.9293 194.349 88.839L200.575 87.5859C201.288 87.4491 202.027 87.5795 202.65 87.9524C203.293 88.3324 203.763 88.9469 203.962 89.6665C204.166 90.3795 204.087 91.1434 203.743 91.8003Z" fill="#EFBFA9"/>
<path d="M175.041 92.078L189.088 83.9802L198.796 85.9071L195.378 90.7658L191.37 91.1618C191.37 91.1618 185.369 102.989 175.041 92.078Z" fill="#E89076"/>
<path d="M198.794 85.9072L201.206 91.1146C201.457 91.6595 201.484 92.2809 201.281 92.8454C201.079 93.41 200.664 93.873 200.124 94.135C199.639 94.3668 199.088 94.421 198.568 94.2881C198.047 94.1553 197.589 93.8438 197.275 93.408L195.377 90.7659L198.794 85.9072Z" fill="#E89076"/>
<path d="M171.482 90.5766L188.036 80.9539L199.5 83.194L195.485 88.9393L190.756 89.424C190.756 89.424 183.72 103.391 171.482 90.5766Z" fill="#EFBFA9"/>
<path d="M200.469 85.3755L196.727 89.0461L197.43 90.5474L198.37 92.5157C198.416 92.6198 198.47 92.7205 198.53 92.8172C198.838 93.3032 199.295 93.6772 199.833 93.8837C200.371 94.0901 200.96 94.1183 201.515 93.9639C202.109 93.8093 202.629 93.449 202.982 92.9472C203.215 92.6279 203.375 92.2609 203.449 91.8725C203.524 91.4842 203.512 91.0841 203.413 90.7011L202.343 86.4926L200.469 85.3755Z" fill="#E89076"/>
<path d="M199.493 83.1763L202.36 89.3176C202.656 89.9559 202.69 90.6847 202.454 91.3477C202.219 92.0107 201.733 92.555 201.101 92.864C200.53 93.1391 199.88 93.2051 199.266 93.0506C198.651 92.8962 198.11 92.531 197.737 92.0188L195.479 88.9038L199.493 83.1763Z" fill="#EFBFA9"/>
<path d="M171.18 90.2043L179.386 102.487L176.738 106.619L166.734 93.7626L171.18 90.2043Z" fill="#2C2B2B"/>
<path d="M123.12 171.921L71.5555 172.01L52.8203 172.045C55.3114 165.77 57.449 159.361 59.2231 152.847C61.7179 143.661 63.9113 132.62 63.5152 123.039C63.2846 117.311 62.5338 111.294 62.5397 105.123C62.5397 101.204 59.2703 74.1093 62.5397 71.615C70.0775 65.8697 91.7511 64.9535 90.4445 66.183L107.424 75.8353C108.376 79.0921 117.569 91.8298 119.053 99.2183C119.177 99.768 119.277 100.353 119.372 100.915C119.686 102.869 119.842 104.846 119.839 106.825C119.849 107.408 119.821 107.99 119.756 108.569C119.718 109.441 119.628 110.309 119.484 111.17C118.57 116.859 115.672 122.042 111.302 125.799L111.379 126.142V126.213L114.678 139.045L117.989 151.937L118.077 152.279L123.12 171.921Z" fill="#2D2D2D"/>
<path d="M118.15 152.049L118.079 152.291L73.4137 165.644L71.5455 171.986L70.2508 176.348L66.8041 178.565H54.3888C39.4727 177.051 42.3992 160.631 59.2012 152.823C61.6961 143.638 63.8894 132.596 63.4933 123.015C63.2627 117.288 62.5119 111.27 62.5179 105.1L79.5268 87.509L79.1011 128.997L108.401 134.021L114.668 139.027L117.979 151.919C118.032 151.966 118.09 152.01 118.15 152.049Z" fill="#1E1E1E"/>
<mask id="mask0_1174_34464" style="mask-type:luminance" maskUnits="userSpaceOnUse" x="62" y="65" width="58" height="101">
<path d="M118.8 165.644L64.0365 164.662C64.0365 164.662 64.3735 144.004 63.5044 123.015C63.1261 113.652 61.3524 103.51 63.8 93.2012C70.3033 66.1121 91.7403 64.9299 90.4042 66.1594L107.389 75.8117C108.335 79.0685 117.529 91.8062 119.013 99.1947C119.137 99.7444 119.237 100.324 119.332 100.891C119.646 102.846 119.802 104.822 119.799 106.802C119.807 107.394 119.779 107.986 119.716 108.575C119.678 109.447 119.587 110.315 119.444 111.176C118.528 116.864 115.629 122.046 111.262 125.805L111.339 126.148V126.225L118.8 165.644Z" fill="white"/>
</mask>
<g mask="url(#mask0_1174_34464)">
<path d="M91.1898 111.862L81.5236 126.964L71.8516 111.862L81.5236 96.7654L91.1898 111.862Z" stroke="#FF6020" stroke-miterlimit="10"/>
<path d="M110.428 111.862L100.756 126.964L91.084 111.862L100.756 96.7654L110.428 111.862Z" stroke="#FF6020" stroke-miterlimit="10"/>
<path d="M129.659 111.862L119.992 126.964L110.32 111.862L119.992 96.7654L129.659 111.862Z" stroke="#FF6020" stroke-miterlimit="10"/>
</g>
<path d="M120.247 35.3877C126.49 35.3877 131.551 30.3279 131.551 24.0863C131.551 17.8447 126.49 12.7849 120.247 12.7849C114.004 12.7849 108.943 17.8447 108.943 24.0863C108.943 30.3279 114.004 35.3877 120.247 35.3877Z" fill="#2C2B2B"/>
<path d="M108.732 22.6028C114.974 22.6028 120.035 17.543 120.035 11.3014C120.035 5.05981 114.974 0 108.732 0C102.489 0 97.4277 5.05981 97.4277 11.3014C97.4277 17.543 102.489 22.6028 108.732 22.6028Z" fill="#2C2B2B"/>
<path d="M93.9561 26.7168C100.199 26.7168 105.26 21.657 105.26 15.4154C105.26 9.17383 100.199 4.11401 93.9561 4.11401C87.7132 4.11401 82.6523 9.17383 82.6523 15.4154C82.6523 21.657 87.7132 26.7168 93.9561 26.7168Z" fill="#2C2B2B"/>
<path d="M79.7684 22.3192C75.2043 34.0107 76.8124 41.4524 84.1965 46.3111L91.1786 38.6921L87.0047 20.3687L79.7684 22.3192Z" fill="#2C2B2B"/>
<path d="M83.7227 38.686L86.3772 67.1524L107.584 81.486L107.885 46.3878L83.7227 38.686Z" fill="#EFBFA9"/>
<path d="M80.2598 46.6421L85.285 55.4196L88.4302 48.7286L80.2598 46.6421Z" fill="#2C2B2B"/>
<path d="M107.702 69.4992C107.702 69.4992 94.6245 67.1349 94.2402 52.3579L107.903 56.8087L107.702 69.4992Z" fill="#E89076"/>
<path d="M116.429 17.9629C122.754 25.7178 123.588 35.9317 123.588 35.9317L116.73 37.0133L111.516 20.5932L116.429 17.9629Z" fill="#2C2B2B"/>
<path d="M85.8699 27.0477L87.9096 35.1218L88.8436 38.8042L91.3445 48.687C92.0137 51.3107 93.3427 53.7197 95.2052 55.6852C97.0677 57.6508 99.4019 59.1077 101.986 59.9175L110.151 62.4946C111.804 63.0132 113.553 63.1542 115.269 62.907C116.984 62.6599 118.622 62.031 120.062 61.0667C121.502 60.1023 122.707 58.8272 123.589 57.3353C124.47 55.8433 125.006 54.1726 125.155 52.4463C125.64 47.0261 125.634 40.7016 123.571 33.981C122.368 30.1742 120.278 26.7075 117.473 23.8661C114.668 21.0248 111.229 18.89 107.437 17.6377L106.13 17.2417L105.989 17.2062C105.338 17.0407 104.664 16.8989 103.996 16.7866C102.377 16.5017 100.733 16.3828 99.0892 16.4319L93.8098 16.5856C92.5489 16.6183 91.3116 16.934 90.1893 17.5094C89.067 18.0848 88.0885 18.9051 87.3261 19.9097C86.5637 20.9143 86.037 22.0773 85.7849 23.3129C85.5329 24.5484 85.5619 25.8249 85.8699 27.0477Z" fill="#EFBFA9"/>
<path d="M123.032 46.3701C126.829 46.3701 129.908 42.9589 129.908 38.7511C129.908 34.5432 126.829 31.1321 123.032 31.1321C119.235 31.1321 116.156 34.5432 116.156 38.7511C116.156 42.9589 119.235 46.3701 123.032 46.3701Z" stroke="white" stroke-miterlimit="10"/>
<path d="M120.444 40.3352C120.627 42.268 120.065 43.8816 119.179 43.988C118.292 44.0944 117.435 42.5754 117.245 40.6425C117.056 38.7097 117.624 37.0961 118.505 36.9838C119.386 36.8715 120.255 38.4201 120.444 40.3352Z" fill="#131313"/>
<path d="M114.85 37.4802C116.624 41.736 119.544 42.6167 121.578 42.6462C122.207 42.6562 122.809 42.9004 123.268 43.3312C123.726 43.7619 124.007 44.3482 124.055 44.9751C124.124 45.8147 123.947 46.6562 123.546 47.3971C123.145 48.138 122.537 48.7463 121.797 49.1481L116.446 52.0562C115.738 52.2929 114.988 52.3791 114.244 52.3093C113.5 52.2395 112.779 52.0152 112.127 51.6508C111.474 51.2864 110.905 50.7898 110.456 50.193C110.007 49.5961 109.687 48.9121 109.518 48.1846L107.111 37.7403L114.85 37.4802Z" fill="#EFBFA9"/>
<path d="M118.421 51.3707L118.096 50.7796L121.643 48.8527C122.325 48.4807 122.884 47.9194 123.253 47.2365C123.623 46.5537 123.786 45.7785 123.724 45.0047C123.683 44.4621 123.44 43.9546 123.042 43.5826C122.645 43.2105 122.123 43.0009 121.578 42.9951C119.373 42.9596 116.364 42.0021 114.537 37.6163L115.17 37.3562C116.849 41.3992 119.586 42.2799 121.59 42.3094C122.304 42.3192 122.989 42.5956 123.51 43.0846C124.031 43.5735 124.35 44.2394 124.404 44.9516C124.474 45.8569 124.281 46.763 123.849 47.5617C123.417 48.3604 122.764 49.0179 121.969 49.4556L118.421 51.3707Z" fill="#E89076"/>
<path d="M108.695 42.1083C108.884 44.0412 108.316 45.6548 107.436 45.7671C106.555 45.8794 105.662 44.3485 105.496 42.4157C105.331 40.4829 105.875 38.8397 106.762 38.7569C107.648 38.6742 108.506 40.1696 108.695 42.1083Z" fill="#131313"/>
<path d="M103.711 34.4244C99.3124 36.2627 98.1064 33.9988 101.263 32.0896C104.657 30.0268 109.186 32.1369 103.711 34.4244Z" fill="#2C2B2B"/>
<path d="M116.394 32.3616C112.959 31.7706 113.917 29.6427 116.784 29.6072C119.876 29.5717 120.663 33.0532 116.394 32.3616Z" fill="#2C2B2B"/>
<path d="M116.465 52.8069L108.543 52.2158C108.543 52.2158 109.436 56.7908 111.735 57.2873C114.236 57.8015 116.465 52.8069 116.465 52.8069Z" fill="white"/>
<path d="M105.634 49.875C109.431 49.875 112.509 46.4638 112.509 42.256C112.509 38.0481 109.431 34.637 105.634 34.637C101.836 34.637 98.7578 38.0481 98.7578 42.256C98.7578 46.4638 101.836 49.875 105.634 49.875Z" stroke="white" stroke-miterlimit="10"/>
<path d="M98.7697 40.8317L91.0723 38.6565" stroke="white" stroke-miterlimit="10"/>
<path d="M97.2916 16.497C101.43 26.3089 93.6202 39.7323 77.2202 38.7511C70.315 24.8017 70.6106 12.3299 97.2916 16.497Z" fill="#2C2B2B"/>
<path d="M91.6521 39.8444C75.1811 17.218 66.6264 53.0491 90.8362 51.1695L91.6521 39.8444Z" fill="#EFBFA9"/>
<path d="M91.4789 25.3513L91.7864 44.3545L90.1901 45.4184L84.1953 27.1482L91.4789 25.3513Z" fill="#2C2B2B"/>
<path d="M92.3848 18.5479C100.447 21.605 109.293 21.9187 117.552 19.4404C117.552 19.4404 113.177 8.91331 92.3848 18.5479Z" fill="#2C2B2B"/>
<path d="M75.7414 20.7055C75.7414 14.0145 68.3514 17.2241 73.4239 21.5508C64.5559 20.3686 71.2601 31.3863 75.3571 27.5266" fill="#2C2B2B"/>
<path d="M108.4 81.8583C111.255 66.3366 96.6465 63.0443 85.6088 58.5107L79.5371 66.3425L108.4 81.8583Z" fill="white"/>
<path d="M56.4218 126.349C68.0803 124.097 78.8048 127.366 73.0701 138.88L55.334 139.926L56.4218 126.349Z" fill="#2D2D2D"/>
<path d="M53.8135 159.697C22.3319 167.837 27.4221 134.08 46.1633 129.021L53.8135 159.697Z" fill="#2D2D2D"/>
<path d="M55.2272 151.174L36.4861 153.934C33.134 127.377 41.0088 98.4202 58.6385 75.0608C60.6244 72.4311 63.5295 70.6471 66.7735 70.0653C70.0176 69.4834 73.3617 70.1466 76.1381 71.9222C78.5517 73.4688 80.3899 75.7657 81.3695 78.4594C82.3491 81.153 82.4159 84.0939 81.5595 86.8292L55.2272 151.174Z" fill="#2D2D2D"/>
<path d="M148.348 112.866L146.888 111.022C146.712 110.809 146.46 110.671 146.185 110.638L118.085 106.926C117.681 106.873 117.27 106.924 116.892 107.074C116.513 107.224 116.179 107.468 115.921 107.783L85.7696 144.737C85.648 144.884 85.5655 145.059 85.5298 145.246C85.4941 145.433 85.5063 145.626 85.5653 145.807C85.6243 145.989 85.7282 146.152 85.8673 146.282C86.0064 146.412 86.1762 146.505 86.3608 146.552L105.723 151.062C106.11 151.157 106.516 151.153 106.901 151.05C107.287 150.947 107.64 150.747 107.928 150.471L146.528 112.884L148.348 112.866Z" fill="#8B8B8B"/>
<path d="M87.1639 146.552L117.315 109.598C117.574 109.283 117.908 109.04 118.287 108.89C118.665 108.74 119.075 108.689 119.479 108.741L147.608 112.447C147.819 112.474 148.017 112.56 148.181 112.694C148.345 112.829 148.467 113.007 148.534 113.208C148.602 113.409 148.611 113.625 148.561 113.831C148.511 114.037 148.405 114.225 148.253 114.373L109.346 152.256C109.058 152.532 108.705 152.732 108.319 152.835C107.934 152.938 107.528 152.942 107.141 152.847L87.7787 148.337C87.5972 148.291 87.43 148.2 87.2922 148.073C87.1543 147.946 87.0503 147.787 86.9893 147.61C86.9283 147.433 86.9123 147.244 86.9428 147.059C86.9733 146.874 87.0492 146.7 87.1639 146.552Z" fill="white"/>
<path d="M122.743 130.874C125.312 128.535 126.382 125.528 125.133 124.157C123.885 122.786 120.79 123.57 118.221 125.909C115.653 128.247 114.583 131.254 115.831 132.625C117.08 133.996 120.174 133.212 122.743 130.874Z" fill="#8B8B8B"/>
<path d="M120.513 112.677C120.339 112.981 120.097 113.241 119.806 113.436C119.514 113.631 119.182 113.756 118.834 113.8C118.284 113.8 118.148 113.262 118.527 112.618C118.702 112.314 118.945 112.054 119.238 111.859C119.53 111.665 119.863 111.54 120.211 111.495C120.761 111.519 120.897 112.039 120.513 112.677Z" fill="#8B8B8B"/>
<path d="M108.312 147.953L133.876 130.51L101.035 132.981L98.2559 143.975L108.312 147.953Z" fill="#EFBFA9"/>
<path d="M103.623 134.128L98.9994 133.471C98.6805 133.426 98.3761 133.309 98.1096 133.128C97.8431 132.948 97.6214 132.708 97.4617 132.429C97.3019 132.149 97.2082 131.837 97.1878 131.516C97.1674 131.194 97.2208 130.873 97.344 130.575L97.5036 130.185C97.7399 129.615 98.0925 129.101 98.5388 128.675C98.9852 128.25 99.5155 127.922 100.096 127.712C100.676 127.503 101.294 127.417 101.909 127.461C102.525 127.504 103.124 127.675 103.67 127.963C104.43 128.36 105.058 128.971 105.478 129.719C105.898 130.467 106.091 131.321 106.035 132.177C106.015 132.467 105.935 132.751 105.801 133.009C105.667 133.267 105.48 133.495 105.254 133.678C105.028 133.861 104.766 133.996 104.485 134.073C104.204 134.15 103.911 134.169 103.623 134.128Z" fill="#EFBFA9"/>
<path d="M113.773 133.921L133.874 130.516L134.111 129.925C134.572 128.777 135.279 127.743 136.182 126.897C137.085 126.051 138.162 125.412 139.337 125.025C139.514 124.959 139.666 124.839 139.772 124.682C139.878 124.525 139.933 124.339 139.928 124.15C139.934 124.091 139.934 124.032 139.928 123.973C139.759 123.21 139.331 122.529 138.717 122.047C138.102 121.564 137.34 121.309 136.558 121.325C136.29 121.335 136.025 121.377 135.766 121.449L134.584 121.857L134.46 121.898C133.448 122.25 132.537 122.842 131.805 123.623C131.073 124.405 130.541 125.352 130.256 126.384L114.294 133.69L113.773 133.921Z" fill="#EFBFA9"/>
<path d="M121.234 134.766L130.398 131.604C131.693 127.685 133.892 126.177 136.269 125.397C136.446 125.332 136.599 125.212 136.705 125.055C136.811 124.898 136.865 124.712 136.86 124.522C136.866 124.463 136.866 124.404 136.86 124.345C136.735 123.764 136.457 123.227 136.055 122.79C135.652 122.352 135.141 122.03 134.572 121.857L134.448 121.898C133.436 122.25 132.525 122.842 131.793 123.623C131.061 124.405 130.529 125.352 130.244 126.384L128.512 130.634L121.234 134.766Z" fill="#E89076"/>
<path d="M128.513 130.634L128.749 130.043C129.211 128.895 129.918 127.862 130.821 127.015C131.723 126.169 132.8 125.53 133.976 125.143C134.187 125.072 134.365 124.926 134.474 124.731C134.583 124.537 134.616 124.308 134.567 124.091C134.466 123.65 134.279 123.234 134.015 122.867C133.751 122.5 133.417 122.19 133.031 121.954C132.645 121.718 132.216 121.562 131.769 121.494C131.322 121.427 130.866 121.45 130.428 121.561L129.11 122.022C128.098 122.375 127.187 122.967 126.454 123.748C125.721 124.53 125.188 125.477 124.901 126.508L108.43 134.045L128.513 130.634Z" fill="#EFBFA9"/>
<path d="M61.5232 134.766L102.026 138.868L108.293 147.953C108.293 147.953 80.6013 161.849 54.6475 160.123C43.4146 159.372 39.489 144.855 48.8182 138.572L50.2844 137.585C53.5853 135.36 57.5623 134.362 61.5232 134.766Z" fill="#EFBFA9"/>
<path d="M52.0527 181.946L98.5154 188.383L101.058 172.045L55.6 172.039L52.0527 181.946Z" fill="white"/>
<path d="M104.658 172.045L107.602 188.383L124.44 181.946L120.899 172.045H104.658Z" fill="white"/>
<path d="M144.191 182.3V206.505H267.327C268.787 206.474 270.2 205.986 271.367 205.109C272.534 204.232 273.396 203.01 273.83 201.616C274.103 200.809 274.241 199.962 274.238 199.11V189.694C274.24 188.794 274.086 187.9 273.783 187.052C273.325 185.694 272.458 184.511 271.302 183.664C270.145 182.818 268.755 182.35 267.321 182.324L144.191 182.3Z" fill="#1E1E1E"/>
<path d="M204.152 187.052V201.617H273.832C274.104 200.809 274.242 199.963 274.239 199.11V189.695C274.241 188.794 274.087 187.9 273.784 187.052H204.152Z" fill="#2D2D2D"/>
<path d="M225.966 199.702C228.934 199.702 231.34 197.296 231.34 194.329C231.34 191.361 228.934 188.956 225.966 188.956C222.998 188.956 220.592 191.361 220.592 194.329C220.592 197.296 222.998 199.702 225.966 199.702Z" fill="#FF6020"/>
<path d="M146.195 182.294H201.768C204.434 182.294 206.99 183.353 208.875 185.237C210.76 187.122 211.819 189.678 211.819 192.343V196.421C211.819 199.086 210.76 201.642 208.875 203.526C206.99 205.411 204.434 206.469 201.768 206.469H146.195V182.235V182.294Z" fill="#2D2D2D"/>
<path d="M142.832 182.3H153.474V185.923H142.832C142.369 185.903 141.932 185.703 141.615 185.365C141.298 185.027 141.126 184.578 141.135 184.115C141.124 183.65 141.295 183.2 141.613 182.861C141.93 182.521 142.368 182.32 142.832 182.3Z" fill="#2D2D2D"/>
<path d="M142.648 202.876H153.45V206.505H142.648C142.249 206.505 141.865 206.346 141.582 206.063C141.3 205.781 141.141 205.397 141.141 204.998V204.407C141.138 204.207 141.174 204.008 141.249 203.823C141.323 203.637 141.434 203.468 141.574 203.326C141.714 203.183 141.881 203.07 142.066 202.993C142.25 202.915 142.448 202.876 142.648 202.876Z" fill="#2D2D2D"/>
<path d="M144.197 185.924H200.468C201.393 185.924 202.31 186.106 203.165 186.46C204.02 186.814 204.797 187.333 205.451 187.987C206.105 188.641 206.625 189.418 206.979 190.273C207.333 191.128 207.515 192.044 207.515 192.969V195.824C207.515 196.749 207.333 197.666 206.979 198.52C206.625 199.375 206.105 200.152 205.451 200.806C204.797 201.46 204.02 201.979 203.165 202.333C202.31 202.688 201.393 202.87 200.468 202.87H144.197V185.924Z" fill="#E9EEEC"/>
<path d="M144.197 188.152H199.031C199.781 188.153 200.524 188.301 201.216 188.59C201.908 188.878 202.537 189.3 203.066 189.831C203.595 190.363 204.014 190.993 204.298 191.687C204.583 192.381 204.728 193.124 204.725 193.873V199.075C204.725 199.577 204.626 200.074 204.433 200.538C204.241 201.002 203.96 201.424 203.604 201.779C203.249 202.134 202.827 202.416 202.363 202.608C201.899 202.8 201.402 202.899 200.9 202.899H144.197V188.152Z" fill="white"/>
<mask id="mask1_1174_34464" style="mask-type:luminance" maskUnits="userSpaceOnUse" x="144" y="188" width="61" height="15">
<path d="M144.191 188.158H201.03C202.01 188.158 202.95 188.547 203.642 189.24C204.335 189.933 204.725 190.872 204.725 191.852V200.281C204.725 200.969 204.451 201.629 203.965 202.116C203.478 202.602 202.818 202.876 202.129 202.876H144.191V188.158Z" fill="white"/>
</mask>
<g mask="url(#mask1_1174_34464)">
<path d="M205.227 191.202H144.197" stroke="#AFAFAF" stroke-miterlimit="10"/>
<path d="M207.308 194.199H144.197" stroke="#AFAFAF" stroke-miterlimit="10"/>
<path d="M207.308 197.196H144.197" stroke="#AFAFAF" stroke-miterlimit="10"/>
<path d="M207.308 200.192H144.197" stroke="#AFAFAF" stroke-miterlimit="10"/>
</g>
<path d="M263.047 201.611H256.189C255.756 203.006 254.895 204.229 253.728 205.108C252.56 205.986 251.146 206.475 249.686 206.505H262.751C264.212 206.475 265.626 205.986 266.793 205.108C267.96 204.229 268.821 203.006 269.254 201.611H263.047Z" fill="#FF6020" fill-opacity="0.5"/>
<path d="M262.745 182.3H249.68C251.113 182.326 252.503 182.794 253.66 183.641C254.817 184.487 255.683 185.671 256.142 187.029H269.207C268.749 185.671 267.882 184.487 266.726 183.641C265.569 182.794 264.179 182.326 262.745 182.3Z" fill="#FF6020" fill-opacity="0.5"/>
<path d="M269.208 187.052H256.143C256.446 187.9 256.6 188.794 256.598 189.695V199.105C256.601 199.957 256.463 200.804 256.19 201.611H269.255C269.529 200.804 269.666 199.957 269.663 199.105V189.695C269.665 188.794 269.511 187.9 269.208 187.052Z" fill="#FF6020"/>
<path d="M189.945 191.167V201.611L193.404 199.495L196.862 201.611V191.167" fill="#727272"/>
<path d="M187.35 199.495L191.275 197.385L194.267 199.495L196.862 191.167H189.945L187.35 199.495Z" fill="#FF6020"/>
<path d="M261.534 164.816V182.359H156.56C155.389 182.384 154.236 182.061 153.248 181.429C152.261 180.798 151.483 179.887 151.015 178.813C150.78 178.237 150.659 177.62 150.66 176.998V170.177C150.662 169.517 150.794 168.864 151.05 168.256C151.533 167.208 152.311 166.323 153.29 165.712C154.27 165.1 155.406 164.789 156.56 164.816H261.534Z" fill="#FF6020" fill-opacity="0.5"/>
<path d="M210.413 168.256V178.813H151.015C150.78 178.237 150.659 177.621 150.66 176.998V170.177C150.662 169.517 150.794 168.864 151.05 168.256H210.413Z" fill="#FF6020"/>
<path d="M194.904 171.791H157.966C157.166 171.791 156.518 172.439 156.518 173.239V173.824C156.518 174.624 157.166 175.272 157.966 175.272H194.904C195.704 175.272 196.353 174.624 196.353 173.824V173.239C196.353 172.439 195.704 171.791 194.904 171.791Z" fill="white"/>
<path d="M259.824 182.354H211.109C209.174 182.354 207.319 181.585 205.95 180.217C204.582 178.849 203.814 176.994 203.814 175.06V172.104C203.814 170.17 204.582 168.315 205.95 166.947C207.319 165.579 209.174 164.81 211.109 164.81H259.824V182.354Z" fill="#FF6020"/>
<path d="M262.692 164.816H253.646V167.417H262.692C263.058 167.435 263.416 167.306 263.688 167.06C263.959 166.814 264.122 166.471 264.14 166.105C264.116 165.743 263.951 165.405 263.68 165.164C263.409 164.923 263.054 164.798 262.692 164.816Z" fill="#FF6020"/>
<path d="M263.053 182.354H253.653V179.723H263.053C263.343 179.723 263.621 179.838 263.826 180.043C264.031 180.249 264.146 180.527 264.146 180.817V181.26C264.146 181.55 264.031 181.828 263.826 182.033C263.621 182.238 263.343 182.354 263.053 182.354Z" fill="#FF6020"/>
<path d="M261.534 167.446V179.729H213.688C212.674 179.73 211.676 179.478 210.785 178.996C209.805 178.471 208.987 177.69 208.416 176.737C207.846 175.783 207.545 174.693 207.545 173.582C207.539 171.958 208.176 170.398 209.319 169.243C209.891 168.676 210.569 168.228 211.315 167.924C212.06 167.62 212.859 167.465 213.664 167.47L261.534 167.446Z" fill="#E9EEEC"/>
<path d="M261.534 169.06V179.729H213.688C212.674 179.73 211.677 179.478 210.785 178.996C210.512 178.743 210.294 178.435 210.145 178.094C209.997 177.752 209.921 177.383 209.922 177.01V176.124C209.917 175.191 210.098 174.266 210.452 173.404C210.807 172.541 211.33 171.757 211.989 171.098C212.649 170.438 213.433 169.916 214.296 169.561C215.159 169.206 216.083 169.026 217.016 169.031L261.534 169.06Z" fill="white"/>
<mask id="mask2_1174_34464" style="mask-type:luminance" maskUnits="userSpaceOnUse" x="209" y="169" width="53" height="11">
<path d="M261.539 179.723H212.28C211.653 179.723 211.051 179.474 210.608 179.031C210.164 178.587 209.915 177.986 209.915 177.359V175.586C209.915 173.861 210.6 172.207 211.82 170.988C213.04 169.769 214.694 169.084 216.418 169.084H261.515V179.723H261.539Z" fill="white"/>
</mask>
<g mask="url(#mask2_1174_34464)">
<path d="M209.496 171.265H261.54" stroke="#AFAFAF" stroke-miterlimit="10"/>
<path d="M207.723 173.434H261.54" stroke="#AFAFAF" stroke-miterlimit="10"/>
<path d="M207.723 175.609H261.54" stroke="#AFAFAF" stroke-miterlimit="10"/>
<path d="M207.723 177.779H261.54" stroke="#AFAFAF" stroke-miterlimit="10"/>
</g>
<path d="M267.729 140.742V164.816H152.238C150.36 164.815 148.509 164.374 146.832 163.528C145.155 162.682 143.7 161.455 142.584 159.946C141.043 157.873 140.214 155.358 140.219 152.776C140.213 150.192 141.042 147.675 142.584 145.6C142.935 145.128 143.321 144.682 143.736 144.264C144.853 143.142 146.18 142.25 147.642 141.642C149.104 141.033 150.672 140.719 152.256 140.718L267.729 140.742Z" fill="#FF6020" fill-opacity="0.5"/>
<path d="M214.545 145.6V159.946H142.584C141.043 157.873 140.214 155.358 140.219 152.776C140.213 150.192 141.042 147.675 142.584 145.6H214.545Z" fill="#DF7B53"/>
<path d="M265.596 164.81H205.766C203.111 164.81 200.566 163.756 198.688 161.879C196.811 160.003 195.757 157.457 195.757 154.803V150.749C195.757 148.095 196.811 145.549 198.688 143.673C200.566 141.796 203.111 140.742 205.766 140.742H265.596V164.81Z" fill="#FF6020"/>
<path d="M269.171 140.736H257.867V144.365H269.153C269.391 144.369 269.627 144.325 269.848 144.236C270.069 144.147 270.269 144.014 270.437 143.846C270.605 143.677 270.738 143.477 270.827 143.257C270.917 143.036 270.96 142.8 270.956 142.562C270.96 142.325 270.916 142.089 270.828 141.869C270.74 141.649 270.609 141.448 270.443 141.278C270.277 141.109 270.079 140.973 269.861 140.88C269.643 140.787 269.408 140.738 269.171 140.736Z" fill="#454545" fill-opacity="0.5"/>
<path d="M269.479 164.81H257.885V161.205H269.479C269.877 161.205 270.259 161.363 270.541 161.644C270.822 161.926 270.98 162.308 270.98 162.706V163.297C270.982 163.495 270.944 163.692 270.87 163.875C270.795 164.059 270.684 164.226 270.545 164.366C270.405 164.507 270.239 164.619 270.056 164.695C269.873 164.771 269.677 164.81 269.479 164.81Z" fill="#FF6020" fill-opacity="0.25"/>
<path d="M267.723 144.365V161.223H208.798C206.686 161.223 204.65 160.43 203.094 159.002C201.539 157.573 200.576 155.613 200.397 153.509C200.397 153.273 200.367 153.036 200.367 152.794C200.369 151.68 200.593 150.579 201.025 149.552C201.457 148.526 202.09 147.597 202.886 146.818C204.455 145.251 206.58 144.369 208.798 144.365H267.723Z" fill="white" fill-opacity="0.26"/>
<path d="M267.723 147.078V161.205H208.797C206.685 161.205 204.65 160.413 203.094 158.984C201.538 157.556 200.576 155.596 200.396 153.491C200.551 151.85 201.272 150.314 202.436 149.147C203.091 148.489 203.869 147.968 204.727 147.613C205.584 147.258 206.504 147.076 207.432 147.078H267.723Z" fill="white"/>
<mask id="mask3_1174_34464" style="mask-type:luminance" maskUnits="userSpaceOnUse" x="200" y="144" width="68" height="18">
<path d="M267.729 161.187H209.199C206.857 161.187 204.61 160.257 202.954 158.601C201.297 156.944 200.367 154.698 200.367 152.356V151.34C200.367 149.48 201.106 147.697 202.42 146.383C203.735 145.068 205.519 144.329 207.378 144.329H267.729V161.187Z" fill="white"/>
</mask>
<g mask="url(#mask3_1174_34464)">
<path d="M202.82 148.461H267.729" stroke="#AFAFAF" stroke-miterlimit="10"/>
<path d="M200.609 151.818H267.729" stroke="#AFAFAF" stroke-miterlimit="10"/>
<path d="M200.609 155.176H267.729" stroke="#AFAFAF" stroke-miterlimit="10"/>
<path d="M200.609 158.533H267.729" stroke="#AFAFAF" stroke-miterlimit="10"/>
</g>
<path d="M219.593 148.461V159.946L215.792 157.623L211.99 159.946V148.461" fill="#727272"/>
<path d="M222.443 157.623L218.133 155.3L214.84 157.623L211.99 148.461H219.593L222.443 157.623Z" fill="#2D2D2D"/>
<path d="M170.962 164.816H157.713C155.832 164.816 153.978 164.376 152.298 163.53C150.618 162.684 149.16 161.457 148.041 159.946C146.502 157.872 145.673 155.358 145.676 152.776C145.672 150.192 146.502 147.676 148.041 145.6C148.404 145.129 148.799 144.682 149.223 144.264C150.338 143.142 151.665 142.251 153.126 141.642C154.587 141.033 156.154 140.719 157.736 140.718H170.962C169.379 140.719 167.812 141.033 166.351 141.642C164.89 142.251 163.564 143.142 162.448 144.264C162.024 144.682 161.629 145.129 161.266 145.6C159.727 147.676 158.898 150.192 158.901 152.776C158.898 155.358 159.728 157.872 161.266 159.946C162.388 161.46 163.85 162.689 165.534 163.535C167.218 164.381 169.077 164.82 170.962 164.816Z" fill="#FF6020" fill-opacity="0.5"/>
<path d="M179.83 164.816H174.113C172.235 164.814 170.384 164.372 168.708 163.527C167.031 162.681 165.576 161.455 164.459 159.946C162.918 157.873 162.089 155.358 162.094 152.776C162.088 150.192 162.917 147.675 164.459 145.6C164.823 145.13 165.218 144.684 165.641 144.264C166.758 143.142 168.085 142.251 169.547 141.643C171.009 141.034 172.577 140.72 174.16 140.718H179.83C178.246 140.72 176.679 141.034 175.217 141.643C173.755 142.251 172.428 143.142 171.311 144.264C170.888 144.684 170.493 145.13 170.128 145.6C168.587 147.675 167.757 150.192 167.763 152.776C167.758 155.358 168.588 157.873 170.128 159.946C171.25 161.461 172.713 162.691 174.398 163.537C176.084 164.383 177.944 164.821 179.83 164.816Z" fill="#FF6020" fill-opacity="0.5"/>
<path d="M158.919 152.776C158.916 155.358 159.745 157.872 161.284 159.946H148.035C146.497 157.872 145.667 155.358 145.67 152.776C145.666 150.192 146.496 147.676 148.035 145.6H161.284C159.745 147.676 158.915 150.192 158.919 152.776Z" fill="#FF6020"/>
<path d="M167.799 152.776C167.794 155.358 168.623 157.873 170.164 159.946H164.459C162.918 157.873 162.089 155.358 162.094 152.776C162.088 150.192 162.917 147.675 164.459 145.6H170.176C168.63 147.673 167.796 150.19 167.799 152.776Z" fill="#FF6020"/>
<path d="M203.678 164.816H197.967C196.086 164.818 194.231 164.378 192.551 163.532C190.871 162.686 189.413 161.458 188.295 159.946C186.754 157.873 185.925 155.358 185.93 152.776C185.924 150.192 186.753 147.675 188.295 145.6C188.646 145.128 189.032 144.682 189.447 144.264C190.564 143.142 191.891 142.25 193.353 141.642C194.815 141.033 196.383 140.719 197.967 140.718H203.678C202.095 140.719 200.528 141.033 199.067 141.642C197.606 142.251 196.28 143.142 195.164 144.264C194.74 144.682 194.345 145.129 193.982 145.6C192.443 147.676 191.614 150.192 191.617 152.776C191.614 155.358 192.444 157.872 193.982 159.946C195.104 161.46 196.566 162.689 198.25 163.535C199.934 164.381 201.793 164.82 203.678 164.816Z" fill="#1E1E1E"/>
<path d="M191.652 152.776C191.65 155.358 192.479 157.872 194.017 159.946H188.306C186.766 157.873 185.936 155.358 185.941 152.776C185.935 150.192 186.765 147.675 188.306 145.6H194.017C192.478 147.676 191.649 150.192 191.652 152.776Z" fill="#2D2D2D"/>
<g style="mix-blend-mode:multiply">
<path d="M182.418 119.22H231.045C232.506 119.22 233.908 118.64 234.941 117.607C235.974 116.574 236.555 115.173 236.555 113.712C236.555 112.25 235.974 110.848 234.941 109.814C233.908 108.78 232.507 108.198 231.045 108.197H182.418C180.956 108.198 179.555 108.78 178.522 109.814C177.489 110.848 176.908 112.25 176.908 113.712C176.908 115.173 177.489 116.574 178.522 117.607C179.555 118.64 180.957 119.22 182.418 119.22Z" fill="white" fill-opacity="0.26"/>
</g>
<g style="mix-blend-mode:multiply">
<path d="M231.269 123.754H183.021C179.645 123.754 176.908 126.49 176.908 129.866V165.537C176.908 168.913 179.645 171.649 183.021 171.649H231.269C234.645 171.649 237.382 168.913 237.382 165.537V129.866C237.382 126.49 234.645 123.754 231.269 123.754Z" fill="white" fill-opacity="0.26"/>
</g>
<path d="M240.121 120.403H191.873C188.497 120.403 185.76 123.139 185.76 126.514V162.186C185.76 165.561 188.497 168.298 191.873 168.298H240.121C243.497 168.298 246.234 165.561 246.234 162.186V126.514C246.234 123.139 243.497 120.403 240.121 120.403Z" fill="#FF6020" fill-opacity="0.25" stroke="white" stroke-miterlimit="10"/>
<path d="M191.27 115.869H239.896C241.358 115.867 242.76 115.286 243.793 114.251C244.826 113.217 245.406 111.816 245.406 110.354C245.406 108.893 244.826 107.492 243.792 106.459C242.759 105.426 241.358 104.845 239.896 104.845H191.27C189.808 104.845 188.407 105.426 187.374 106.459C186.34 107.492 185.76 108.893 185.76 110.354C185.76 111.816 186.34 113.217 187.373 114.251C188.406 115.286 189.808 115.867 191.27 115.869Z" fill="#FF6020" fill-opacity="0.25" stroke="white" stroke-miterlimit="10"/>
<path d="M195.083 110.354C195.083 111.009 194.823 111.636 194.361 112.099C193.899 112.563 193.272 112.824 192.618 112.825C191.962 112.825 191.334 112.565 190.87 112.102C190.407 111.638 190.146 111.01 190.146 110.354C190.148 109.7 190.409 109.073 190.872 108.611C191.336 108.149 191.963 107.89 192.618 107.89C193.272 107.89 193.899 108.149 194.361 108.612C194.823 109.074 195.083 109.701 195.083 110.354Z" fill="#FF5100"/>
<path d="M204.919 110.354C204.919 111.01 204.659 111.638 204.195 112.102C203.732 112.565 203.103 112.825 202.448 112.825C201.793 112.824 201.166 112.563 200.704 112.099C200.242 111.636 199.982 111.009 199.982 110.354C199.982 109.701 200.242 109.074 200.705 108.612C201.167 108.149 201.794 107.89 202.448 107.89C203.102 107.89 203.73 108.149 204.193 108.611C204.656 109.073 204.917 109.7 204.919 110.354Z" fill="white"/>
<path d="M214.757 110.354C214.757 111.01 214.496 111.638 214.033 112.102C213.57 112.565 212.941 112.825 212.286 112.825C211.631 112.824 211.004 112.563 210.542 112.099C210.08 111.636 209.82 111.009 209.82 110.354C209.82 109.701 210.08 109.074 210.542 108.612C211.005 108.149 211.632 107.89 212.286 107.89C212.94 107.89 213.568 108.149 214.031 108.611C214.494 109.073 214.755 109.7 214.757 110.354Z" fill="#3C3C3C"/>
<path d="M193.031 130.067H238.134" stroke="white" stroke-opacity="0.26" stroke-width="5" stroke-linecap="round" stroke-linejoin="round"/>
<path d="M193.031 135.534H218.329" stroke="white" stroke-opacity="0.26" stroke-width="5" stroke-linecap="round" stroke-linejoin="round"/>
<path d="M201.503 154.839H194.414V161.926H201.503V154.839Z" stroke="#FF6020" stroke-opacity="0.25" stroke-width="3" stroke-miterlimit="10"/>
<path d="M194.414 161.926V141.138L237.235 161.926H194.414Z" stroke="white" stroke-width="3" stroke-linejoin="round"/>
</svg>
