<svg width="30" height="30" viewBox="0 0 30 30" fill="none" xmlns="http://www.w3.org/2000/svg">
<rect width="30" height="30" rx="15" fill="#EBBB39"/>
<path d="M14.5 9H9.5M22 20V12C22 11.7348 21.8946 11.4804 21.7071 11.2929C21.5196 11.1054 21.2652 11 21 11H9C8.73478 11 8.48043 11.1054 8.29289 11.2929C8.10536 11.4804 8 11.7348 8 12V20C8 20.2652 8.10536 20.5196 8.29289 20.7071C8.48043 20.8946 8.73478 21 9 21H21C21.2652 21 21.5196 20.8946 21.7071 20.7071C21.8946 20.5196 22 20.2652 22 20ZM17 18C16.4696 18 15.9609 17.7893 15.5858 17.4142C15.2107 17.0391 15 16.5304 15 16C15 15.4696 15.2107 14.9609 15.5858 14.5858C15.9609 14.2107 16.4696 14 17 14C17.5304 14 18.0391 14.2107 18.4142 14.5858C18.7893 14.9609 19 15.4696 19 16C19 16.5304 18.7893 17.0391 18.4142 17.4142C18.0391 17.7893 17.5304 18 17 18Z" stroke="black" stroke-linecap="round"/>
</svg>
