<svg width="75" height="68" viewBox="0 0 75 68" fill="none" xmlns="http://www.w3.org/2000/svg">
<path opacity="0.25" d="M74.9998 30.1993C75.0213 34.4163 73.0439 38.2481 71.0879 42.0563C70.5207 43.1615 69.9554 44.2646 69.441 45.3815C67.5672 49.4206 66.2606 53.8489 63.3012 57.1916C61.1985 59.5642 58.4113 61.1974 55.6475 62.7563C52.2852 64.6517 48.8133 66.5216 45.009 67.1847C38.3861 68.3406 33.1832 65.1661 26.9476 63.9964C21.6078 62.9969 15.9648 64.1021 10.9888 61.3735C9.01134 60.2899 7.36442 58.6879 5.94634 56.9354C4.99831 55.7684 4.14785 54.5254 3.40358 53.219C1.37582 49.6875 0.216039 45.7248 0.0197574 41.6573C-0.211047 36.1024 1.58453 30.4398 5.18547 26.2052C7.63825 23.3201 10.8187 21.1666 13.7291 18.7451C18.4528 14.8332 22.531 10.1545 27.3544 6.36774C32.1778 2.58099 38.0946 -0.362745 44.2168 0.0362725C49.4158 0.374655 54.1336 3.04455 58.644 5.6499C61.4254 7.25575 64.2479 8.8929 66.4503 11.2264C68.6019 13.5109 70.0708 16.353 71.481 19.1637C73.2297 22.6473 74.9803 26.301 74.9998 30.1993Z" fill="#17CF97"/>
<path opacity="0.43" d="M71.0881 42.0564C70.5209 43.1615 69.9556 44.2647 69.4412 45.3815C67.5674 49.4206 66.2608 53.8489 63.3014 57.1916C61.1987 59.5642 58.4115 61.1975 55.6477 62.7564C52.2854 64.6517 48.8136 66.5216 45.0092 67.1847C38.3863 68.3407 33.1834 65.1661 26.9478 63.9965C21.608 62.997 15.965 64.1021 10.9891 61.3735C9.01157 60.2899 7.36464 58.688 5.94657 56.9354C4.99853 55.7684 4.14808 54.5255 3.40381 53.2191C8.00229 42.5571 23.7459 34.7058 42.4371 34.7058C53.6389 34.6961 63.7728 37.5107 71.0881 42.0564Z" fill="#17CF97"/>
<path d="M53.8246 58.7389C53.94 59.312 53.7815 59.8283 53.4705 59.8909C53.3923 59.9066 52.8211 60.1667 52.7429 60.1276C52.5082 60.0122 52.782 59.398 52.694 58.9697C52.606 58.5413 52.1072 58.287 52.2696 58.0895C52.5206 57.9728 52.7827 57.8817 53.0519 57.8176C53.3512 57.7609 53.7072 58.1618 53.8246 58.7389Z" fill="#3F3D56"/>
<path d="M53.8246 58.7389C53.94 59.312 53.7815 59.8283 53.4705 59.8909C53.3923 59.9066 52.8211 60.1667 52.7429 60.1276C52.5082 60.0122 52.782 59.398 52.694 58.9697C52.606 58.5413 52.1072 58.287 52.2696 58.0895C52.5206 57.9728 52.7827 57.8817 53.0519 57.8176C53.3512 57.7609 53.7072 58.1618 53.8246 58.7389Z" fill="url(#paint0_linear_2515_12299)"/>
<path d="M52.7471 60.1179C53.0593 60.0543 53.2179 59.5385 53.1011 58.9658C52.9844 58.3932 52.6367 57.9805 52.3244 58.0442C52.0122 58.1078 51.8536 58.6236 51.9704 59.1963C52.0871 59.7689 52.4348 60.1816 52.7471 60.1179Z" fill="#3F3D56"/>
<path d="M52.7471 60.1179C53.0593 60.0543 53.2179 59.5385 53.1011 58.9658C52.9844 58.3932 52.6367 57.9805 52.3244 58.0442C52.0122 58.1078 51.8536 58.6236 51.9704 59.1963C52.0871 59.7689 52.4348 60.1816 52.7471 60.1179Z" fill="#3F3D56"/>
<path d="M52.6115 59.8056C52.8052 59.7661 52.9035 59.4458 52.831 59.0901C52.7585 58.7345 52.5427 58.4781 52.349 58.5176C52.1553 58.5571 52.0571 58.8774 52.1295 59.2331C52.202 59.5887 52.4178 59.845 52.6115 59.8056Z" fill="url(#paint1_linear_2515_12299)"/>
<path d="M46.3211 53.9662C46.4385 54.5374 46.28 55.0538 45.9671 55.1183C45.8888 55.1339 45.3177 55.3921 45.2395 55.355C45.0047 55.2376 45.2786 54.6254 45.1906 54.1951C45.1025 53.7648 44.6038 53.5144 44.7681 53.3149C45.0194 53.1996 45.2815 53.1092 45.5505 53.045C45.8575 52.9804 46.2038 53.3931 46.3211 53.9662Z" fill="#3F3D56"/>
<path d="M46.3211 53.9662C46.4385 54.5374 46.28 55.0538 45.9671 55.1183C45.8888 55.1339 45.3177 55.3921 45.2395 55.355C45.0047 55.2376 45.2786 54.6254 45.1906 54.1951C45.1025 53.7648 44.6038 53.5144 44.7681 53.3149C45.0194 53.1996 45.2815 53.1092 45.5505 53.045C45.8575 52.9804 46.2038 53.3931 46.3211 53.9662Z" fill="url(#paint2_linear_2515_12299)"/>
<path d="M45.2449 55.3494C45.5571 55.2857 45.7157 54.7699 45.5989 54.1973C45.4822 53.6246 45.1345 53.212 44.8222 53.2756C44.51 53.3393 44.3515 53.8551 44.4682 54.4277C44.5849 55.0004 44.9326 55.413 45.2449 55.3494Z" fill="#3F3D56"/>
<path d="M45.2449 55.3494C45.5571 55.2857 45.7157 54.7699 45.5989 54.1973C45.4822 53.6246 45.1345 53.212 44.8222 53.2756C44.51 53.3393 44.3515 53.8551 44.4682 54.4277C44.5849 55.0004 44.9326 55.413 45.2449 55.3494Z" fill="#3F3D56"/>
<path d="M45.1076 55.037C45.3013 54.9975 45.3996 54.6772 45.3271 54.3216C45.2546 53.9659 45.0388 53.7096 44.8451 53.7491C44.6514 53.7886 44.5531 54.1089 44.6256 54.4645C44.6981 54.8202 44.9139 55.0765 45.1076 55.037Z" fill="url(#paint3_linear_2515_12299)"/>
<path d="M53.0653 54.2593C52.948 54.8324 53.1064 55.3488 53.4194 55.4114C53.4976 55.427 54.0668 55.6872 54.145 55.6481C54.3817 55.5327 54.1079 54.9204 54.1959 54.4901C54.2839 54.0598 54.7827 53.8094 54.6184 53.6099C54.3674 53.4932 54.1053 53.4021 53.836 53.3381C53.5289 53.2755 53.1827 53.6882 53.0653 54.2593Z" fill="#3F3D56"/>
<path d="M53.0653 54.2593C52.948 54.8324 53.1064 55.3488 53.4194 55.4114C53.4976 55.427 54.0668 55.6872 54.145 55.6481C54.3817 55.5327 54.1079 54.9204 54.1959 54.4901C54.2839 54.0598 54.7827 53.8094 54.6184 53.6099C54.3674 53.4932 54.1053 53.4021 53.836 53.3381C53.5289 53.2755 53.1827 53.6882 53.0653 54.2593Z" fill="url(#paint4_linear_2515_12299)"/>
<path d="M54.9266 54.7332C55.0433 54.1605 54.8848 53.6447 54.5725 53.5811C54.2603 53.5174 53.9125 53.93 53.7958 54.5027C53.6791 55.0753 53.8376 55.5911 54.1499 55.6548C54.4621 55.7184 54.8099 55.3058 54.9266 54.7332Z" fill="#3F3D56"/>
<path d="M54.9266 54.7332C55.0433 54.1605 54.8848 53.6447 54.5725 53.5811C54.2603 53.5174 53.9125 53.93 53.7958 54.5027C53.6791 55.0753 53.8376 55.5911 54.1499 55.6548C54.4621 55.7184 54.8099 55.3058 54.9266 54.7332Z" fill="#3F3D56"/>
<path d="M54.7692 54.7676C54.8417 54.4119 54.7435 54.0916 54.5498 54.0521C54.356 54.0126 54.1403 54.2689 54.0678 54.6246C53.9953 54.9802 54.0935 55.3006 54.2873 55.34C54.481 55.3795 54.6968 55.1232 54.7692 54.7676Z" fill="url(#paint5_linear_2515_12299)"/>
<path d="M45.0031 58.7C44.8857 59.2731 45.0441 59.7895 45.3571 59.8521C45.4334 59.8677 46.0045 60.1279 46.0828 60.0887C46.3175 59.9733 46.0456 59.3611 46.1317 58.9308C46.2177 58.5005 46.7185 58.2501 46.5561 58.0506C46.3051 57.934 46.043 57.8429 45.7737 57.7787C45.4666 57.7161 45.1185 58.1289 45.0031 58.7Z" fill="#3F3D56"/>
<path d="M45.0031 58.7C44.8857 59.2731 45.0441 59.7895 45.3571 59.8521C45.4334 59.8677 46.0045 60.1279 46.0828 60.0887C46.3175 59.9733 46.0456 59.3611 46.1317 58.9308C46.2177 58.5005 46.7185 58.2501 46.5561 58.0506C46.3051 57.934 46.043 57.8429 45.7737 57.7787C45.4666 57.7161 45.1185 58.1289 45.0031 58.7Z" fill="url(#paint6_linear_2515_12299)"/>
<path d="M46.8629 59.1721C46.9796 58.5995 46.8211 58.0837 46.5088 58.02C46.1965 57.9564 45.8488 58.369 45.7321 58.9417C45.6154 59.5143 45.7739 60.0301 46.0861 60.0938C46.3984 60.1574 46.7461 59.7448 46.8629 59.1721Z" fill="#3F3D56"/>
<path d="M46.8629 59.1721C46.9796 58.5995 46.8211 58.0837 46.5088 58.02C46.1965 57.9564 45.8488 58.369 45.7321 58.9417C45.6154 59.5143 45.7739 60.0301 46.0861 60.0938C46.3984 60.1574 46.7461 59.7448 46.8629 59.1721Z" fill="#3F3D56"/>
<path d="M46.7062 59.2102C46.7787 58.8545 46.6805 58.5342 46.4868 58.4947C46.2931 58.4553 46.0773 58.7116 46.0048 59.0672C45.9323 59.4229 46.0306 59.7432 46.2243 59.7827C46.418 59.8221 46.6338 59.5658 46.7062 59.2102Z" fill="url(#paint7_linear_2515_12299)"/>
<path d="M48.6729 54.0447L46.1517 52.4975C45.8766 52.298 45.5594 52.1641 45.2245 52.1064C44.8862 52.077 44.5067 52.2511 44.4187 52.5777C44.2779 53.0922 44.8744 53.4736 45.3576 53.6985C46.1573 54.0753 46.9157 54.5342 47.6206 55.0677C47.6776 55.101 47.7207 55.1538 47.7419 55.2163C47.7693 55.3474 47.6147 55.4335 47.4876 55.4784C46.4926 55.8246 45.5315 56.2613 44.6162 56.7831C44.4447 56.8674 44.2907 56.9836 44.1625 57.1254C43.7713 57.6085 44.0529 58.3166 44.3424 58.8623C44.3926 58.9926 44.4876 59.1008 44.6104 59.1674C44.7345 59.2017 44.8667 59.1913 44.984 59.1381C46.4627 58.6354 47.5424 57.3327 48.982 56.7283C49.1806 56.632 49.3989 56.5831 49.6196 56.5855C49.7986 56.6076 49.9725 56.6598 50.134 56.74C51.1328 57.1776 52.0731 57.7381 52.933 58.4085C53.3359 58.7234 53.866 59.0794 54.3022 58.829C54.6934 58.6119 54.7247 58.0368 54.4978 57.6554C54.2709 57.274 53.8641 57.051 53.4768 56.8398L50.981 55.4863L54.3922 53.9508C54.5689 53.8894 54.7257 53.7812 54.846 53.6379C55.0552 53.3327 54.887 52.9181 54.7129 52.5895C54.6489 52.4262 54.5327 52.2887 54.3824 52.1983C54.1868 52.1044 53.9403 52.1983 53.7369 52.2941C52.5488 52.8539 51.4114 53.5155 50.3374 54.2716C50.5037 53.6555 50.2964 53.0061 50.091 52.4017L49.7252 51.3298C49.4397 50.4907 49.1776 51.2672 49.1228 51.676C49.025 52.4682 48.8235 53.2623 48.6729 54.0447Z" fill="#17CF97"/>
<path d="M48.6729 54.0447L46.1517 52.4975C45.8766 52.298 45.5594 52.1641 45.2245 52.1064C44.8862 52.077 44.5067 52.2511 44.4187 52.5777C44.2779 53.0922 44.8744 53.4736 45.3576 53.6985C46.1573 54.0753 46.9157 54.5342 47.6206 55.0677C47.6776 55.101 47.7207 55.1538 47.7419 55.2163C47.7693 55.3474 47.6147 55.4335 47.4876 55.4784C46.4926 55.8246 45.5315 56.2613 44.6162 56.7831C44.4447 56.8674 44.2907 56.9836 44.1625 57.1254C43.7713 57.6085 44.0529 58.3166 44.3424 58.8623C44.3926 58.9926 44.4876 59.1008 44.6104 59.1674C44.7345 59.2017 44.8667 59.1913 44.984 59.1381C46.4627 58.6354 47.5424 57.3327 48.982 56.7283C49.1806 56.632 49.3989 56.5831 49.6196 56.5855C49.7986 56.6076 49.9725 56.6598 50.134 56.74C51.1328 57.1776 52.0731 57.7381 52.933 58.4085C53.3359 58.7234 53.866 59.0794 54.3022 58.829C54.6934 58.6119 54.7247 58.0368 54.4978 57.6554C54.2709 57.274 53.8641 57.051 53.4768 56.8398L50.981 55.4863L54.3922 53.9508C54.5689 53.8894 54.7257 53.7812 54.846 53.6379C55.0552 53.3327 54.887 52.9181 54.7129 52.5895C54.6489 52.4262 54.5327 52.2887 54.3824 52.1983C54.1868 52.1044 53.9403 52.1983 53.7369 52.2941C52.5488 52.8539 51.4114 53.5155 50.3374 54.2716C50.5037 53.6555 50.2964 53.0061 50.091 52.4017L49.7252 51.3298C49.4397 50.4907 49.1776 51.2672 49.1228 51.676C49.025 52.4682 48.8235 53.2623 48.6729 54.0447Z" fill="url(#paint8_linear_2515_12299)"/>
<path d="M48.8312 55.4503C48.9192 55.5425 49.0298 55.6099 49.152 55.6459C49.2792 55.6981 49.4188 55.7121 49.5539 55.6865C49.6889 55.6608 49.8136 55.5964 49.9128 55.5012C49.9957 55.3849 50.0505 55.251 50.0732 55.11C50.2556 54.2548 50.286 53.3743 50.1632 52.5086C49.8737 52.5086 49.5588 52.4949 49.3241 52.665C48.7471 53.066 48.3129 54.8792 48.8312 55.4503Z" fill="url(#paint9_linear_2515_12299)"/>
<path d="M34.0145 55.5467C33.5235 55.6836 33.0071 55.709 32.5045 55.8029C32.0018 55.8968 31.4482 56.1334 31.3309 56.6283C31.2194 57.0919 31.5676 57.5496 31.9724 57.8019C32.6766 58.2439 33.5529 58.2909 34.3822 58.2713C35.5836 58.2423 36.7796 58.0989 37.9538 57.843C38.0769 57.8275 38.1919 57.7734 38.2824 57.6884C38.3548 57.5781 38.3866 57.446 38.3724 57.3149C38.3683 56.6271 38.2863 55.9421 38.1279 55.2728C38.114 55.153 38.0766 55.037 38.0179 54.9316C37.9592 54.8262 37.8802 54.7335 37.7856 54.6587C37.6396 54.5858 37.4771 54.5521 37.3142 54.5609C36.7704 54.5452 35.7729 54.3653 35.2995 54.645C34.8262 54.9247 34.6286 55.3784 34.0145 55.5467Z" fill="#3F3D56"/>
<path d="M34.0145 55.5467C33.5235 55.6836 33.0071 55.709 32.5045 55.8029C32.0018 55.8968 31.4482 56.1334 31.3309 56.6283C31.2194 57.0919 31.5676 57.5496 31.9724 57.8019C32.6766 58.2439 33.5529 58.2909 34.3822 58.2713C35.5836 58.2423 36.7796 58.0989 37.9538 57.843C38.0769 57.8275 38.1919 57.7734 38.2824 57.6884C38.3548 57.5781 38.3866 57.446 38.3724 57.3149C38.3683 56.6271 38.2863 55.9421 38.1279 55.2728C38.114 55.153 38.0766 55.037 38.0179 54.9316C37.9592 54.8262 37.8802 54.7335 37.7856 54.6587C37.6396 54.5858 37.4771 54.5521 37.3142 54.5609C36.7704 54.5452 35.7729 54.3653 35.2995 54.645C34.8262 54.9247 34.6286 55.3784 34.0145 55.5467Z" fill="url(#paint10_linear_2515_12299)"/>
<path d="M42.922 39.2553C42.0829 38.9502 41.1147 38.7057 40.3342 39.1341C39.3308 39.6817 39.1431 41.0177 39.0746 42.1599C38.9155 44.7679 38.7577 47.3726 38.6013 49.974C38.57 50.4982 38.5484 51.0635 38.834 51.5036C39.2252 52.108 40.035 52.2488 40.7509 52.3349C41.0834 52.374 41.4589 52.4014 41.7112 52.1804C41.8781 51.9994 41.9847 51.7712 42.0164 51.5271C42.4796 49.5174 42.7637 47.4706 42.8653 45.4108C43.7497 46.5056 44.9875 47.2587 46.3664 47.5408C46.717 47.631 47.0842 47.6344 47.4364 47.5506C47.8535 47.4024 48.2149 47.1292 48.4711 46.7682C49.0704 46.0078 49.4287 45.0855 49.4999 44.1198C49.5742 43.1301 49.2906 42.8504 48.5356 42.2988C46.8172 41.0248 44.9273 40.0001 42.922 39.2553Z" fill="#3F3D56"/>
<path d="M42.922 39.2553C42.0829 38.9502 41.1147 38.7057 40.3342 39.1341C39.3308 39.6817 39.1431 41.0177 39.0746 42.1599C38.9155 44.7679 38.7577 47.3726 38.6013 49.974C38.57 50.4982 38.5484 51.0635 38.834 51.5036C39.2252 52.108 40.035 52.2488 40.7509 52.3349C41.0834 52.374 41.4589 52.4014 41.7112 52.1804C41.8781 51.9994 41.9847 51.7712 42.0164 51.5271C42.4796 49.5174 42.7637 47.4706 42.8653 45.4108C43.7497 46.5056 44.9875 47.2587 46.3664 47.5408C46.717 47.631 47.0842 47.6344 47.4364 47.5506C47.8535 47.4024 48.2149 47.1292 48.4711 46.7682C49.0704 46.0078 49.4287 45.0855 49.4999 44.1198C49.5742 43.1301 49.2906 42.8504 48.5356 42.2988C46.8172 41.0248 44.9273 40.0001 42.922 39.2553Z" fill="url(#paint11_linear_2515_12299)"/>
<path d="M47.6887 53.972L55.7982 46.3985C56.5199 45.9819 49.7347 43.4195 49.009 43.8362L41.946 47.9144C41.2242 48.331 40.6375 49.4478 40.6375 50.4082C40.6375 51.3686 46.9689 54.3886 47.6887 53.972Z" fill="#17CF97"/>
<path d="M47.6887 53.972L55.7982 46.3985C56.5199 45.9819 49.7347 43.4195 49.009 43.8362L41.946 47.9144C41.2242 48.331 40.6375 49.4478 40.6375 50.4082C40.6375 51.3686 46.9689 54.3886 47.6887 53.972Z" fill="url(#paint12_linear_2515_12299)"/>
<path d="M47.9758 53.8079L55.0407 49.7297C55.7605 49.3131 56.3454 48.1963 56.3454 47.2359C56.3454 46.2755 55.7586 45.8335 55.0407 46.2579L47.9758 50.3283C47.256 50.7429 46.6711 51.8598 46.6711 52.8202C46.6711 53.7825 47.256 54.2226 47.9758 53.8079Z" fill="#17CF97"/>
<path d="M47.9758 53.8079L55.0407 49.7297C55.7605 49.3131 56.3454 48.1963 56.3454 47.2359C56.3454 46.2755 55.7586 45.8335 55.0407 46.2579L47.9758 50.3283C47.256 50.7429 46.6711 51.8598 46.6711 52.8202C46.6711 53.7825 47.256 54.2226 47.9758 53.8079Z" fill="url(#paint13_linear_2515_12299)"/>
<path d="M39.0121 42.7877C38.085 42.7016 37.1344 42.6527 36.2327 42.8933C35.331 43.1339 34.4723 43.7128 34.1202 44.5735C33.8758 45.1603 33.8797 45.8077 33.8914 46.4395C33.9266 48.265 34.0146 50.0906 34.1555 51.9162C34.2298 52.8726 34.3198 53.8369 34.6327 54.7425C34.7112 55.0207 34.857 55.2753 35.0572 55.4839C35.2684 55.6595 35.5208 55.7786 35.7906 55.8301C36.2548 55.9442 36.7355 55.976 37.2107 55.9239C37.3793 55.9156 37.5436 55.8674 37.6899 55.7831C37.9461 55.611 38.0322 55.2785 38.0811 54.9733C38.4723 52.4071 37.6019 49.7353 38.218 47.2121C41.152 48.6204 44.3597 49.5925 47.6066 49.4223C48.1113 49.3969 50.2922 49.0565 50.7538 48.8492C52.1386 48.2233 53.6134 46.5627 53.4335 45.8096C53.2535 45.0566 49.0482 45.6003 48.4614 45.0918C47.3465 44.1138 46.0106 43.9319 44.6199 43.6542C42.7672 43.2665 40.8954 42.9772 39.0121 42.7877Z" fill="#3F3D56"/>
<path d="M8.63989 39.7601V41.5537L23.8182 52.3252L60.876 28.8536L60.8486 27.7817L8.63989 39.7601Z" fill="#17CF97"/>
<path d="M8.63989 39.7601V41.5537L23.8182 52.3252L60.876 28.8536L60.8486 27.7817L8.63989 39.7601Z" fill="url(#paint14_linear_2515_12299)"/>
<path d="M18.8872 34.6939L8.63989 39.7598L23.8319 50.6096L60.8486 27.7815L53.2927 23.9224L18.8872 34.6939Z" fill="#17CF97"/>
<path d="M18.8872 34.6939L8.63989 39.7598L23.8319 50.6096L60.8486 27.7815L53.2927 23.9224L18.8872 34.6939Z" fill="url(#paint15_linear_2515_12299)"/>
<path d="M10.8503 25.9335L26.3553 48.7675L56.9623 30.7589L57.5413 29.2411L11.2963 24.8167L10.8503 25.9335Z" fill="#17CF97"/>
<path d="M10.8503 25.9335L26.3553 48.7675L56.9623 30.7589L57.5413 29.2411L11.2963 24.8167L10.8503 25.9335Z" fill="url(#paint16_linear_2515_12299)"/>
<path d="M11.2959 24.8163L43.0647 7.39062L57.5408 29.2407L26.7109 47.4704L11.2959 24.8163Z" fill="#17CF97"/>
<path d="M11.2959 24.8163L43.0647 7.39062L57.5408 29.2407L26.7109 47.4704L11.2959 24.8163Z" fill="url(#paint17_linear_2515_12299)"/>
<path d="M27.0864 30.9971L30.8927 36.73" stroke="url(#paint18_linear_2515_12299)" stroke-miterlimit="10"/>
<path d="M18.9941 27.0049L29.6855 42.0365" stroke="url(#paint19_linear_2515_12299)" stroke-miterlimit="10"/>
<path d="M29.6855 42.0368L53.8006 27.4062L50.2212 22.5691L31.9368 33.2741L25.4254 23.6292L18.9941 27.0052" stroke="url(#paint20_linear_2515_12299)" stroke-miterlimit="10"/>
<path d="M40.8681 30.6316C40.1737 29.726 39.5674 28.6913 38.5776 28.1241C38.7528 28.0459 38.8959 27.9101 38.9831 27.7393C39.0703 27.5685 39.0963 27.3729 39.0568 27.1852C38.9864 26.8957 38.8202 26.4772 39.1057 26.3852C39.1699 26.3687 39.2372 26.3687 39.3013 26.3852C40.8016 26.6884 41.6876 28.2141 42.961 29.061C43.2993 29.284 43.669 29.462 43.9878 29.7123C44.2481 29.9305 44.4877 30.1721 44.7037 30.4341L46.9472 32.9768C46.994 33.0157 47.0311 33.0649 47.0556 33.1206C47.08 33.1763 47.0911 33.2369 47.0881 33.2976C47.0665 33.4071 46.959 33.4756 46.8612 33.5323C46.4426 33.771 45.6876 34.4321 45.1829 34.4282C44.6783 34.4243 44.0504 33.726 43.6847 33.4345C42.6637 32.615 41.6446 31.6996 40.8681 30.6316Z" fill="url(#paint21_linear_2515_12299)"/>
<path d="M35.9643 38.7878C35.4337 38.2892 35.0397 37.6629 34.8201 36.9687C34.7732 36.8654 34.7502 36.7528 34.7529 36.6393C34.7556 36.5259 34.7839 36.4145 34.8358 36.3135C34.9053 36.2381 34.9897 36.178 35.0836 36.137C35.1775 36.0959 35.279 36.0747 35.3815 36.0749C35.8173 36.0228 36.2593 36.0757 36.6705 36.2294C37.179 36.425 37.5956 36.8064 38.0005 37.1741C38.7829 37.8861 41.1496 39.4117 39.5046 40.4582C38.2 41.2914 36.8171 39.5897 35.9643 38.7878Z" fill="url(#paint22_linear_2515_12299)"/>
<path d="M36.7585 34.4256C36.7199 34.4194 36.6804 34.4248 36.645 34.4412C36.5238 34.5077 36.5883 34.6897 36.5746 34.8324C36.552 34.9343 36.491 35.0234 36.4043 35.0814C36.3175 35.1393 36.2118 35.1615 36.1091 35.1434C35.9043 35.0989 35.7152 35.0002 35.5614 34.8579C35.489 34.7843 35.4025 34.7261 35.307 34.6868C35.2116 34.6474 35.1092 34.6278 35.0059 34.629C34.9266 34.6448 34.8506 34.6739 34.781 34.7151C34.5621 34.8017 34.376 34.955 34.249 35.1532C34.1941 35.2759 34.1713 35.4105 34.1825 35.5444C34.204 36.227 34.7164 36.8197 35.3287 37.1209C35.9409 37.4221 36.6411 37.4867 37.3218 37.5121C38.0611 37.5395 38.2196 36.5791 37.9907 36.0295C37.7951 35.5385 37.3492 34.4843 36.7585 34.4256Z" fill="#E8B08D"/>
<path d="M40.3023 25.8921C40.052 25.7697 39.7799 25.6986 39.5018 25.6828C39.2237 25.667 38.9452 25.7069 38.6828 25.8001C38.5904 25.8303 38.5089 25.8867 38.448 25.9625C38.4086 26.0472 38.3916 26.1407 38.3988 26.2339C38.406 26.3271 38.4371 26.4168 38.4891 26.4945C38.6085 26.7435 38.7534 26.9795 38.9214 27.1986C38.9948 27.276 39.0603 27.3606 39.117 27.451C39.1675 27.6018 39.2041 27.757 39.2265 27.9145C39.2361 27.9858 39.2645 28.0533 39.3087 28.1101C39.3449 28.1455 39.3883 28.1728 39.4358 28.1903C39.6061 28.2393 39.7712 28.3048 39.9287 28.3859C39.9893 28.427 40.0422 28.4778 40.1067 28.515C40.2299 28.5854 40.4255 28.5483 40.5703 28.5835C40.7599 28.6431 40.9608 28.6579 41.1571 28.6265C41.6852 28.5111 41.9394 27.7463 41.7673 27.271C41.5443 26.694 40.8461 26.1444 40.3023 25.8921Z" fill="#E8B08D"/>
<path d="M48.3395 29.1019C47.5122 29.3406 46.6476 29.6711 45.8163 29.4481C45.2569 29.2975 44.7973 28.9161 44.3376 28.5621C43.7793 28.1321 43.1982 27.7325 42.5968 27.365C42.4468 27.2547 42.2697 27.1871 42.0843 27.1694C41.8144 27.1694 41.5895 27.365 41.3958 27.5606C40.8599 28.0692 40.279 28.8105 40.6232 29.4657C40.7952 29.729 41.036 29.9401 41.3196 30.076C42.2702 30.638 43.2292 31.1857 44.1968 31.719C44.5502 31.9349 44.9311 32.102 45.3293 32.2158C45.6969 32.2885 46.0718 32.3174 46.4462 32.3019H48.6329C49.3453 32.3352 50.0589 32.2694 50.7532 32.1063C51.4378 31.9107 52.0891 31.4843 52.4001 30.8427C53.7713 27.9812 49.6344 28.7342 48.3395 29.1019Z" fill="#17CF97"/>
<path d="M48.3395 29.1019C47.5122 29.3406 46.6476 29.6711 45.8163 29.4481C45.2569 29.2975 44.7973 28.9161 44.3376 28.5621C43.7793 28.1321 43.1982 27.7325 42.5968 27.365C42.4468 27.2547 42.2697 27.1871 42.0843 27.1694C41.8144 27.1694 41.5895 27.365 41.3958 27.5606C40.8599 28.0692 40.279 28.8105 40.6232 29.4657C40.7952 29.729 41.036 29.9401 41.3196 30.076C42.2702 30.638 43.2292 31.1857 44.1968 31.719C44.5502 31.9349 44.9311 32.102 45.3293 32.2158C45.6969 32.2885 46.0718 32.3174 46.4462 32.3019H48.6329C49.3453 32.3352 50.0589 32.2694 50.7532 32.1063C51.4378 31.9107 52.0891 31.4843 52.4001 30.8427C53.7713 27.9812 49.6344 28.7342 48.3395 29.1019Z" fill="url(#paint23_linear_2515_12299)"/>
<path d="M55.1115 42.7835C54.6793 44.497 53.7541 46.138 52.3028 47.1473C50.8514 48.1566 48.8407 48.4304 47.2877 47.5893C46.9258 47.4048 46.6042 47.1502 46.3416 46.8402C46.0791 46.5303 45.8807 46.1713 45.7581 45.784C45.6648 45.3789 45.626 44.9632 45.6427 44.5478C45.6297 41.4991 45.7235 38.4524 45.9244 35.4076C45.9713 34.7113 46.0261 33.9993 46.2882 33.3519C46.5913 32.6105 47.141 32.0061 47.6808 31.4213L47.8334 31.257C48.6451 30.3631 49.6896 29.1954 50.7673 28.8257C51.5497 28.5578 52.3321 28.7064 53.0636 29.6766C54.6969 31.8418 55.178 34.8892 55.3873 37.5161C55.5242 39.2726 55.5458 41.0701 55.1115 42.7835Z" fill="#17CF97"/>
<path d="M44.645 35.1812C43.9642 36.1811 43.1344 37.0709 42.1844 37.8198C42.1124 37.8859 42.0249 37.9329 41.9301 37.9567C41.7891 37.964 41.6502 37.9202 41.5389 37.8334L38.1551 35.7953C37.8159 36.2243 37.5241 36.6886 37.2847 37.1802C37.136 37.4833 37.0069 37.8315 37.1126 38.1581C37.2338 38.4254 37.4347 38.6488 37.6876 38.7977C38.8371 39.6322 40.0437 40.3851 41.2983 41.051C41.7462 41.2896 42.2215 41.5204 42.7281 41.5283C43.624 41.542 44.3653 40.8691 45.0029 40.2393C46.0337 39.2202 47.0821 38.1679 47.6865 36.8516C48.1247 35.901 48.643 33.4716 47.4577 32.7753C46.331 32.1064 45.1359 34.4848 44.645 35.1812Z" fill="#17CF97"/>
<path d="M44.645 35.1812C43.9642 36.1811 43.1344 37.0709 42.1844 37.8198C42.1124 37.8859 42.0249 37.9329 41.9301 37.9567C41.7891 37.964 41.6502 37.9202 41.5389 37.8334L38.1551 35.7953C37.8159 36.2243 37.5241 36.6886 37.2847 37.1802C37.136 37.4833 37.0069 37.8315 37.1126 38.1581C37.2338 38.4254 37.4347 38.6488 37.6876 38.7977C38.8371 39.6322 40.0437 40.3851 41.2983 41.051C41.7462 41.2896 42.2215 41.5204 42.7281 41.5283C43.624 41.542 44.3653 40.8691 45.0029 40.2393C46.0337 39.2202 47.0821 38.1679 47.6865 36.8516C48.1247 35.901 48.643 33.4716 47.4577 32.7753C46.331 32.1064 45.1359 34.4848 44.645 35.1812Z" fill="url(#paint24_linear_2515_12299)"/>
<path d="M50.7611 28.8124C49.6892 29.1821 48.6447 30.3498 47.8271 31.2437C47.6726 30.7547 47.8975 29.8217 47.8584 29.3992C47.7997 29.0411 47.7748 28.6783 47.7841 28.3156C47.7898 28.1336 47.8361 27.9551 47.9197 27.7934C48.0033 27.6316 48.122 27.4906 48.2672 27.3806C48.5664 27.2201 48.9084 27.1572 49.2452 27.2007C49.3744 27.2005 49.5027 27.2223 49.6246 27.2652C49.7485 27.3295 49.8572 27.4195 49.9435 27.5293C50.2832 27.9102 50.5593 28.3435 50.7611 28.8124Z" fill="#E6B28B"/>
<path d="M45.5465 26.7427C45.6819 27.3888 45.9629 27.9955 46.368 28.5168C46.7963 29.0156 47.4594 29.3539 48.1088 29.2464C48.3954 29.1922 48.6669 29.0768 48.9049 28.908C49.6387 28.3726 50.1613 27.5966 50.3816 26.7153C50.597 25.8408 50.6677 24.9369 50.5909 24.0396C50.5635 23.5271 50.5068 22.9931 50.2193 22.5687C49.8887 22.0797 49.296 21.8176 48.7093 21.7354C48.1187 21.6843 47.5245 21.6908 46.9352 21.755C46.5595 21.7499 46.1856 21.8095 45.8301 21.931C45.0086 22.2812 45.1709 23.2787 45.1807 24.0181C45.1928 24.9377 45.3156 25.8525 45.5465 26.7427Z" fill="#E8B08D"/>
<path d="M47.7237 18.393C47.6082 18.411 47.4939 18.4358 47.3814 18.4673C46.871 18.6184 46.4086 18.8996 46.0396 19.2833C45.6707 19.667 45.4078 20.1401 45.2768 20.656C44.9892 20.699 44.6763 20.7538 44.4944 20.9748C44.4074 21.0932 44.3535 21.2327 44.3384 21.3788C44.3232 21.5249 44.3474 21.6724 44.4083 21.8061C44.7897 22.7587 45.6699 22.9543 46.3643 23.5665C46.3994 23.5957 46.4327 23.6271 46.464 23.6604C46.8022 24.0311 47.0163 24.4981 47.0763 24.9963C47.1167 25.2553 47.1396 25.5167 47.1447 25.7787C47.1447 25.9091 47.1447 26.0395 47.1447 26.1699C47.1447 26.2912 47.1134 26.43 47.1956 26.5317C47.2078 26.55 47.225 26.5644 47.245 26.5734C47.2651 26.5824 47.2872 26.5856 47.309 26.5826C47.3677 26.567 47.3814 26.4907 47.3834 26.4281C47.3751 26.2186 47.3935 26.0089 47.4381 25.8041C47.4792 25.6633 47.575 25.3934 47.7628 25.4129C47.83 25.4262 47.8899 25.4638 47.931 25.5186C48.1494 25.7808 48.2584 26.1171 48.2355 26.4576C48.2125 26.7982 48.0594 27.1168 47.8078 27.3474C48.0137 27.3179 48.2236 27.3574 48.4047 27.4596C48.5858 27.5619 48.7281 27.7212 48.8093 27.9127C48.9227 28.2041 48.9305 28.6051 49.222 28.7185C49.316 28.7453 49.416 28.7428 49.5086 28.7114C49.6012 28.6799 49.682 28.621 49.7403 28.5425C49.8542 28.3833 49.9335 28.2021 49.9731 28.0105C50.2254 28.3078 50.7554 28.1356 50.951 27.7973C51.1466 27.4589 51.1134 27.0442 51.1056 26.655C51.1144 25.6794 51.2459 24.7088 51.4968 23.766C51.8273 22.3694 51.7315 21.3758 50.9921 20.1103C50.8137 19.7886 50.5926 19.4926 50.3349 19.2301C49.9939 18.8984 49.5806 18.6502 49.1276 18.505C48.6745 18.3597 48.194 18.3214 47.7237 18.393Z" fill="#3F3D56"/>
<path d="M55.72 36.3307C54.1396 37.4201 52.6511 38.6367 51.1646 39.8514C50.5778 40.3345 49.9675 40.8294 49.5998 41.5022C48.9113 42.7541 49.2086 44.3012 49.588 45.6782C49.7836 46.4019 50.1357 47.243 50.8712 47.3936C51.137 47.4377 51.4095 47.4196 51.6672 47.3408C52.7137 47.0748 53.6349 46.4645 54.5327 45.866C55.4716 45.2381 56.4652 44.5457 56.8682 43.4895C57.041 42.9687 57.125 42.4225 57.1166 41.8739C57.1515 40.6618 57.0933 39.4487 56.9425 38.2455C56.8721 37.5923 56.8721 35.5307 55.72 36.3307Z" fill="#17CF97"/>
<path d="M57.1256 41.8762C57.1321 42.4247 57.0482 42.9706 56.8772 43.4918C56.4723 44.548 55.4806 45.2424 54.5398 45.8683C53.7261 46.4101 52.8928 46.9636 51.9677 47.2609C51.8718 47.2922 51.7721 47.3196 51.6762 47.345C51.4175 47.4222 51.1446 47.4396 50.8782 47.3959C50.1428 47.2394 49.7985 46.4042 49.5951 45.6805C49.2039 44.3113 48.9203 42.7466 49.6088 41.5045C49.9745 40.8356 50.5868 40.3309 51.1736 39.8556C52.662 38.641 54.1505 37.4244 55.729 36.3349C56.441 35.842 56.707 36.4347 56.8322 37.1173C56.9045 37.5417 56.9241 38.0014 56.9554 38.2498C57.1048 39.4524 57.1617 40.6648 57.1256 41.8762Z" fill="url(#paint25_linear_2515_12299)"/>
<path d="M57.1255 41.8761C57.1321 42.4246 57.0481 42.9705 56.8771 43.4917C56.4722 44.5479 55.4805 45.2423 54.5397 45.8682C53.726 46.41 52.8928 46.9635 51.9676 47.2608C51.6845 46.8791 51.4815 46.4439 51.3711 45.9816C50.9799 44.6125 50.6963 43.0594 51.3828 41.8076C51.7505 41.1387 52.3608 40.634 52.9476 40.1548C54.219 39.1142 55.4903 38.0756 56.8282 37.1152C56.9006 37.5397 56.9201 37.9993 56.9514 38.2477C57.1023 39.4509 57.1605 40.6639 57.1255 41.8761Z" fill="url(#paint26_linear_2515_12299)"/>
<path d="M55.3697 42.1578C55.2308 44.5714 54.8983 50.2007 54.7927 50.6212C54.6597 51.1572 54.1238 51.5601 53.0499 52.1625C52.9753 52.205 52.8975 52.2416 52.8172 52.2721C51.8118 52.6731 50.7732 52.096 50.7732 52.096L52.514 51.1572L53.402 43.6776C53.4353 43.4018 53.6211 42.8111 53.8108 42.6037L54.6969 41.88C54.7514 41.8235 54.8216 41.7846 54.8985 41.7685C54.9753 41.7525 55.0552 41.7599 55.1278 41.7898C55.2004 41.8198 55.2623 41.8709 55.3055 41.9366C55.3486 42.0022 55.371 42.0793 55.3697 42.1578Z" fill="#17CF97"/>
<path d="M55.3697 42.158C55.2308 44.5716 54.8983 50.2009 54.7927 50.6214C54.6597 51.1574 54.1237 51.5603 53.0499 52.1627C52.9752 52.2052 52.8974 52.2418 52.8171 52.2723C52.9511 52.177 53.0549 52.0453 53.1164 51.8928C53.1829 51.6248 54.157 44.2195 54.0944 43.6152C54.0318 43.0108 55.3697 42.158 55.3697 42.158Z" fill="url(#paint27_linear_2515_12299)"/>
<path d="M23.4563 33.0747L29.4044 29.5364" stroke="url(#paint28_linear_2515_12299)" stroke-miterlimit="10"/>
<path d="M25.9424 37.0861L29.426 34.9424" stroke="url(#paint29_linear_2515_12299)" stroke-miterlimit="10"/>
<path d="M37.9263 30.18L34.697 25.3703L41.8246 21.2178L44.3165 25.8788" stroke="url(#paint30_linear_2515_12299)" stroke-miterlimit="10"/>
<path d="M38.5265 27.4748L40.8933 23.8974C40.9121 23.869 40.9364 23.8448 40.9649 23.8262C40.9933 23.8076 41.0253 23.795 41.0588 23.7891C41.0923 23.7833 41.1266 23.7843 41.1597 23.7922C41.1928 23.8 41.2239 23.8145 41.2512 23.8348C41.3021 23.8737 41.3363 23.9305 41.3468 23.9937C41.3574 24.057 41.3435 24.1218 41.3079 24.1751L38.8434 27.823L38.239 28.2514L38.5265 27.4748Z" fill="#17CF97"/>
<path d="M38.5265 27.4748L40.8933 23.8974C40.9121 23.869 40.9364 23.8448 40.9649 23.8262C40.9933 23.8076 41.0253 23.795 41.0588 23.7891C41.0923 23.7833 41.1266 23.7843 41.1597 23.7922C41.1928 23.8 41.2239 23.8145 41.2512 23.8348C41.3021 23.8737 41.3363 23.9305 41.3468 23.9937C41.3574 24.057 41.3435 24.1218 41.3079 24.1751L38.8434 27.823L38.239 28.2514L38.5265 27.4748Z" fill="url(#paint31_linear_2515_12299)"/>
<path d="M38.6505 27.1165C38.6335 27.1092 38.6152 27.1055 38.5967 27.1055C38.5782 27.1055 38.5599 27.1092 38.5429 27.1165C38.5268 27.1296 38.5141 27.1464 38.5057 27.1654C38.4743 27.2152 38.4531 27.2708 38.4434 27.3289C38.4336 27.387 38.4355 27.4464 38.449 27.5038C38.5026 27.6194 38.5996 27.7094 38.7189 27.7541C38.8813 27.8304 39.2627 28.1453 39.4426 28.1649C39.5541 28.1766 39.47 27.9106 39.5561 27.8382C39.5906 27.8055 39.6174 27.7656 39.6346 27.7213C39.6519 27.677 39.6591 27.6294 39.6558 27.582C39.6558 27.2964 39.5287 27.2945 39.2823 27.2436L38.6505 27.1165Z" fill="#E8B08D"/>
<defs>
<linearGradient id="paint0_linear_2515_12299" x1="52.7097" y1="58.9677" x2="54.337" y2="58.9677" gradientUnits="userSpaceOnUse">
<stop offset="0.01"/>
<stop offset="0.83" stop-opacity="0.07"/>
<stop offset="1" stop-opacity="0"/>
</linearGradient>
<linearGradient id="paint1_linear_2515_12299" x1="53.0988" y1="56.8653" x2="51.9331" y2="61.1547" gradientUnits="userSpaceOnUse">
<stop offset="0.01"/>
<stop offset="0.83" stop-opacity="0.07"/>
<stop offset="1" stop-opacity="0"/>
</linearGradient>
<linearGradient id="paint2_linear_2515_12299" x1="45.2062" y1="54.197" x2="46.8336" y2="54.197" gradientUnits="userSpaceOnUse">
<stop offset="0.01"/>
<stop offset="0.83" stop-opacity="0.07"/>
<stop offset="1" stop-opacity="0"/>
</linearGradient>
<linearGradient id="paint3_linear_2515_12299" x1="45.5972" y1="52.0967" x2="44.4314" y2="56.3862" gradientUnits="userSpaceOnUse">
<stop offset="0.01"/>
<stop offset="0.83" stop-opacity="0.07"/>
<stop offset="1" stop-opacity="0"/>
</linearGradient>
<linearGradient id="paint4_linear_2515_12299" x1="54.1802" y1="54.4921" x2="52.5529" y2="54.4921" gradientUnits="userSpaceOnUse">
<stop offset="0.01"/>
<stop offset="0.83" stop-opacity="0.07"/>
<stop offset="1" stop-opacity="0"/>
</linearGradient>
<linearGradient id="paint5_linear_2515_12299" x1="53.5457" y1="52.8611" x2="54.7128" y2="57.1492" gradientUnits="userSpaceOnUse">
<stop offset="0.01"/>
<stop offset="0.83" stop-opacity="0.07"/>
<stop offset="1" stop-opacity="0"/>
</linearGradient>
<linearGradient id="paint6_linear_2515_12299" x1="46.118" y1="58.9328" x2="44.4906" y2="58.9328" gradientUnits="userSpaceOnUse">
<stop offset="0.01"/>
<stop offset="0.83" stop-opacity="0.07"/>
<stop offset="1" stop-opacity="0"/>
</linearGradient>
<linearGradient id="paint7_linear_2515_12299" x1="45.4812" y1="57.3058" x2="46.6483" y2="61.5939" gradientUnits="userSpaceOnUse">
<stop offset="0.01"/>
<stop offset="0.83" stop-opacity="0.07"/>
<stop offset="1" stop-opacity="0"/>
</linearGradient>
<linearGradient id="paint8_linear_2515_12299" x1="49.9189" y1="61.2329" x2="48.6318" y2="45.102" gradientUnits="userSpaceOnUse">
<stop offset="0.01"/>
<stop offset="0.83" stop-opacity="0.07"/>
<stop offset="1" stop-opacity="0"/>
</linearGradient>
<linearGradient id="paint9_linear_2515_12299" x1="48.708" y1="55.9178" x2="49.7133" y2="53.7271" gradientUnits="userSpaceOnUse">
<stop offset="0.01"/>
<stop offset="0.83" stop-opacity="0.07"/>
<stop offset="1" stop-opacity="0"/>
</linearGradient>
<linearGradient id="paint10_linear_2515_12299" x1="31.3074" y1="56.3819" x2="38.3704" y2="56.3819" gradientUnits="userSpaceOnUse">
<stop offset="0.01"/>
<stop offset="0.83" stop-opacity="0.07"/>
<stop offset="1" stop-opacity="0"/>
</linearGradient>
<linearGradient id="paint11_linear_2515_12299" x1="38.5836" y1="45.6318" x2="49.5116" y2="45.6318" gradientUnits="userSpaceOnUse">
<stop offset="0.01"/>
<stop offset="0.83" stop-opacity="0.07"/>
<stop offset="1" stop-opacity="0"/>
</linearGradient>
<linearGradient id="paint12_linear_2515_12299" x1="40.6394" y1="48.9002" x2="55.8529" y2="48.9002" gradientUnits="userSpaceOnUse">
<stop offset="0.01"/>
<stop offset="0.83" stop-opacity="0.07"/>
<stop offset="1" stop-opacity="0"/>
</linearGradient>
<linearGradient id="paint13_linear_2515_12299" x1="46.6711" y1="50.029" x2="56.3454" y2="50.029" gradientUnits="userSpaceOnUse">
<stop offset="0.01"/>
<stop offset="0.83" stop-opacity="0.07"/>
<stop offset="1" stop-opacity="0"/>
</linearGradient>
<linearGradient id="paint14_linear_2515_12299" x1="24.7219" y1="55.2572" x2="39.3525" y2="24.7109" gradientUnits="userSpaceOnUse">
<stop offset="0.01"/>
<stop offset="0.83" stop-opacity="0.07"/>
<stop offset="1" stop-opacity="0"/>
</linearGradient>
<linearGradient id="paint15_linear_2515_12299" x1="43.4307" y1="40.8552" x2="21.8485" y2="23.2515" gradientUnits="userSpaceOnUse">
<stop offset="0.01"/>
<stop offset="0.83" stop-opacity="0.07"/>
<stop offset="1" stop-opacity="0"/>
</linearGradient>
<linearGradient id="paint16_linear_2515_12299" x1="34.9694" y1="27.0836" x2="0.786887" y2="55.7698" gradientUnits="userSpaceOnUse">
<stop offset="0.02" stop-color="white" stop-opacity="0"/>
<stop offset="0.39" stop-color="white" stop-opacity="0.39"/>
<stop offset="1" stop-color="white"/>
</linearGradient>
<linearGradient id="paint17_linear_2515_12299" x1="13.1893" y1="-5.70067" x2="45.3591" y2="43.8949" gradientUnits="userSpaceOnUse">
<stop offset="0.02" stop-color="white" stop-opacity="0"/>
<stop offset="0.39" stop-color="white" stop-opacity="0.39"/>
<stop offset="1" stop-color="white"/>
</linearGradient>
<linearGradient id="paint18_linear_2515_12299" x1="27.0277" y1="33.8645" x2="30.9514" y2="33.8645" gradientUnits="userSpaceOnUse">
<stop offset="0.01"/>
<stop offset="0.83" stop-opacity="0.07"/>
<stop offset="1" stop-opacity="0"/>
</linearGradient>
<linearGradient id="paint19_linear_2515_12299" x1="22.3819" y1="38.6077" x2="26.2977" y2="30.4337" gradientUnits="userSpaceOnUse">
<stop offset="0.01"/>
<stop offset="0.83" stop-opacity="0.07"/>
<stop offset="1" stop-opacity="0"/>
</linearGradient>
<linearGradient id="paint20_linear_2515_12299" x1="29.3705" y1="41.9293" x2="40.8443" y2="17.9745" gradientUnits="userSpaceOnUse">
<stop offset="0.01"/>
<stop offset="0.83" stop-opacity="0.07"/>
<stop offset="1" stop-opacity="0"/>
</linearGradient>
<linearGradient id="paint21_linear_2515_12299" x1="45.8323" y1="26.0703" x2="41.0891" y2="32.5817" gradientUnits="userSpaceOnUse">
<stop offset="0.01"/>
<stop offset="0.83" stop-opacity="0.07"/>
<stop offset="1" stop-opacity="0"/>
</linearGradient>
<linearGradient id="paint22_linear_2515_12299" x1="40.553" y1="35.1888" x2="35.5692" y2="39.932" gradientUnits="userSpaceOnUse">
<stop offset="0.01"/>
<stop offset="0.83" stop-opacity="0.07"/>
<stop offset="1" stop-opacity="0"/>
</linearGradient>
<linearGradient id="paint23_linear_2515_12299" x1="49.8104" y1="35.1596" x2="44.7836" y2="26.1778" gradientUnits="userSpaceOnUse">
<stop offset="0.01"/>
<stop offset="0.83" stop-opacity="0.07"/>
<stop offset="1" stop-opacity="0"/>
</linearGradient>
<linearGradient id="paint24_linear_2515_12299" x1="48.6117" y1="42.4789" x2="42.8025" y2="36.0437" gradientUnits="userSpaceOnUse">
<stop offset="0.01"/>
<stop offset="0.83" stop-opacity="0.07"/>
<stop offset="1" stop-opacity="0"/>
</linearGradient>
<linearGradient id="paint25_linear_2515_12299" x1="50.1193" y1="38.4024" x2="58.8331" y2="47.1162" gradientUnits="userSpaceOnUse">
<stop offset="0.01"/>
<stop offset="0.83" stop-opacity="0.07"/>
<stop offset="1" stop-opacity="0"/>
</linearGradient>
<linearGradient id="paint26_linear_2515_12299" x1="51.6566" y1="39.4487" x2="58.5319" y2="46.322" gradientUnits="userSpaceOnUse">
<stop offset="0.01"/>
<stop offset="0.83" stop-opacity="0.07"/>
<stop offset="1" stop-opacity="0"/>
</linearGradient>
<linearGradient id="paint27_linear_2515_12299" x1="51.2973" y1="46.1325" x2="56.9266" y2="48.3114" gradientUnits="userSpaceOnUse">
<stop offset="0.01"/>
<stop offset="0.83" stop-opacity="0.07"/>
<stop offset="1" stop-opacity="0"/>
</linearGradient>
<linearGradient id="paint28_linear_2515_12299" x1="25.1697" y1="33.9393" x2="27.691" y2="28.6718" gradientUnits="userSpaceOnUse">
<stop offset="0.01"/>
<stop offset="0.83" stop-opacity="0.07"/>
<stop offset="1" stop-opacity="0"/>
</linearGradient>
<linearGradient id="paint29_linear_2515_12299" x1="25.9052" y1="36.0143" x2="29.4631" y2="36.0143" gradientUnits="userSpaceOnUse">
<stop offset="0.01"/>
<stop offset="0.83" stop-opacity="0.07"/>
<stop offset="1" stop-opacity="0"/>
</linearGradient>
<linearGradient id="paint30_linear_2515_12299" x1="34.5953" y1="25.6696" x2="44.3791" y2="25.6696" gradientUnits="userSpaceOnUse">
<stop offset="0.01"/>
<stop offset="0.83" stop-opacity="0.07"/>
<stop offset="1" stop-opacity="0"/>
</linearGradient>
<linearGradient id="paint31_linear_2515_12299" x1="38.239" y1="26.0176" x2="41.351" y2="26.0176" gradientUnits="userSpaceOnUse">
<stop offset="0.01"/>
<stop offset="0.83" stop-opacity="0.07"/>
<stop offset="1" stop-opacity="0"/>
</linearGradient>
</defs>
</svg>
