<svg width="299" height="100" viewBox="0 0 299 100" fill="none" xmlns="http://www.w3.org/2000/svg">
<path d="M16.6 8.04V22H13.8V12.92L10.06 22H7.94L4.18 12.92V22H1.38V8.04H4.56L9 18.42L13.44 8.04H16.6ZM18.6483 16.42C18.6483 15.3 18.8683 14.3067 19.3083 13.44C19.7616 12.5733 20.3683 11.9067 21.1283 11.44C21.9016 10.9733 22.7616 10.74 23.7083 10.74C24.5349 10.74 25.2549 10.9067 25.8683 11.24C26.4949 11.5733 26.9949 11.9933 27.3683 12.5V10.92H30.1883V22H27.3683V20.38C27.0083 20.9 26.5083 21.3333 25.8683 21.68C25.2416 22.0133 24.5149 22.18 23.6883 22.18C22.7549 22.18 21.9016 21.94 21.1283 21.46C20.3683 20.98 19.7616 20.3067 19.3083 19.44C18.8683 18.56 18.6483 17.5533 18.6483 16.42ZM27.3683 16.46C27.3683 15.78 27.2349 15.2 26.9683 14.72C26.7016 14.2267 26.3416 13.8533 25.8883 13.6C25.4349 13.3333 24.9483 13.2 24.4283 13.2C23.9083 13.2 23.4283 13.3267 22.9883 13.58C22.5483 13.8333 22.1883 14.2067 21.9083 14.7C21.6416 15.18 21.5083 15.7533 21.5083 16.42C21.5083 17.0867 21.6416 17.6733 21.9083 18.18C22.1883 18.6733 22.5483 19.0533 22.9883 19.32C23.4416 19.5867 23.9216 19.72 24.4283 19.72C24.9483 19.72 25.4349 19.5933 25.8883 19.34C26.3416 19.0733 26.7016 18.7 26.9683 18.22C27.2349 17.7267 27.3683 17.14 27.3683 16.46ZM36.183 13.22V18.58C36.183 18.9533 36.2696 19.2267 36.443 19.4C36.6296 19.56 36.9363 19.64 37.363 19.64H38.663V22H36.903C34.543 22 33.363 20.8533 33.363 18.56V13.22H32.043V10.92H33.363V8.18H36.183V10.92H38.663V13.22H36.183ZM46.9169 10.76C47.7569 10.76 48.5035 10.9467 49.1569 11.32C49.8102 11.68 50.3169 12.22 50.6769 12.94C51.0502 13.6467 51.2369 14.5 51.2369 15.5V22H48.4369V15.88C48.4369 15 48.2169 14.3267 47.7769 13.86C47.3369 13.38 46.7369 13.14 45.9769 13.14C45.2035 13.14 44.5902 13.38 44.1369 13.86C43.6969 14.3267 43.4769 15 43.4769 15.88V22H40.6769V7.2H43.4769V12.3C43.8369 11.82 44.3169 11.4467 44.9169 11.18C45.5169 10.9 46.1835 10.76 46.9169 10.76ZM64.1995 16.22C64.1995 16.62 64.1729 16.98 64.1195 17.3H56.0195C56.0862 18.1 56.3662 18.7267 56.8595 19.18C57.3529 19.6333 57.9595 19.86 58.6795 19.86C59.7195 19.86 60.4595 19.4133 60.8995 18.52H63.9195C63.5995 19.5867 62.9862 20.4667 62.0795 21.16C61.1729 21.84 60.0595 22.18 58.7395 22.18C57.6729 22.18 56.7129 21.9467 55.8595 21.48C55.0195 21 54.3595 20.3267 53.8795 19.46C53.4129 18.5933 53.1795 17.5933 53.1795 16.46C53.1795 15.3133 53.4129 14.3067 53.8795 13.44C54.3462 12.5733 54.9995 11.9067 55.8395 11.44C56.6795 10.9733 57.6462 10.74 58.7395 10.74C59.7929 10.74 60.7329 10.9667 61.5595 11.42C62.3995 11.8733 63.0462 12.52 63.4995 13.36C63.9662 14.1867 64.1995 15.14 64.1995 16.22ZM61.2995 15.42C61.2862 14.7 61.0262 14.1267 60.5195 13.7C60.0129 13.26 59.3929 13.04 58.6595 13.04C57.9662 13.04 57.3795 13.2533 56.8995 13.68C56.4329 14.0933 56.1462 14.6733 56.0395 15.42H61.2995ZM80.0033 10.76C81.3633 10.76 82.4566 11.18 83.2833 12.02C84.1233 12.8467 84.5433 14.0067 84.5433 15.5V22H81.7433V15.88C81.7433 15.0133 81.5233 14.3533 81.0833 13.9C80.6433 13.4333 80.0433 13.2 79.2833 13.2C78.5233 13.2 77.9166 13.4333 77.4633 13.9C77.0233 14.3533 76.8033 15.0133 76.8033 15.88V22H74.0033V15.88C74.0033 15.0133 73.7833 14.3533 73.3433 13.9C72.9033 13.4333 72.3033 13.2 71.5433 13.2C70.7699 13.2 70.1566 13.4333 69.7033 13.9C69.2633 14.3533 69.0433 15.0133 69.0433 15.88V22H66.2433V10.92H69.0433V12.26C69.4033 11.7933 69.8633 11.4267 70.4233 11.16C70.9966 10.8933 71.6233 10.76 72.3033 10.76C73.1699 10.76 73.9433 10.9467 74.6233 11.32C75.3033 11.68 75.8299 12.2 76.2033 12.88C76.5633 12.24 77.0833 11.7267 77.7633 11.34C78.4566 10.9533 79.2033 10.76 80.0033 10.76ZM86.4803 16.42C86.4803 15.3 86.7003 14.3067 87.1403 13.44C87.5936 12.5733 88.2003 11.9067 88.9603 11.44C89.7336 10.9733 90.5936 10.74 91.5403 10.74C92.367 10.74 93.087 10.9067 93.7003 11.24C94.327 11.5733 94.827 11.9933 95.2003 12.5V10.92H98.0203V22H95.2003V20.38C94.8403 20.9 94.3403 21.3333 93.7003 21.68C93.0736 22.0133 92.347 22.18 91.5203 22.18C90.587 22.18 89.7336 21.94 88.9603 21.46C88.2003 20.98 87.5936 20.3067 87.1403 19.44C86.7003 18.56 86.4803 17.5533 86.4803 16.42ZM95.2003 16.46C95.2003 15.78 95.067 15.2 94.8003 14.72C94.5336 14.2267 94.1736 13.8533 93.7203 13.6C93.267 13.3333 92.7803 13.2 92.2603 13.2C91.7403 13.2 91.2603 13.3267 90.8203 13.58C90.3803 13.8333 90.0203 14.2067 89.7403 14.7C89.4736 15.18 89.3403 15.7533 89.3403 16.42C89.3403 17.0867 89.4736 17.6733 89.7403 18.18C90.0203 18.6733 90.3803 19.0533 90.8203 19.32C91.2736 19.5867 91.7536 19.72 92.2603 19.72C92.7803 19.72 93.267 19.5933 93.7203 19.34C94.1736 19.0733 94.5336 18.7 94.8003 18.22C95.067 17.7267 95.2003 17.14 95.2003 16.46ZM104.015 13.22V18.58C104.015 18.9533 104.102 19.2267 104.275 19.4C104.462 19.56 104.768 19.64 105.195 19.64H106.495V22H104.735C102.375 22 101.195 20.8533 101.195 18.56V13.22H99.875V10.92H101.195V8.18H104.015V10.92H106.495V13.22H104.015ZM109.929 9.6C109.436 9.6 109.022 9.44667 108.689 9.14C108.369 8.82 108.209 8.42667 108.209 7.96C108.209 7.49333 108.369 7.10667 108.689 6.8C109.022 6.48 109.436 6.32 109.929 6.32C110.422 6.32 110.829 6.48 111.149 6.8C111.482 7.10667 111.649 7.49333 111.649 7.96C111.649 8.42667 111.482 8.82 111.149 9.14C110.829 9.44667 110.422 9.6 109.929 9.6ZM111.309 10.92V22H108.509V10.92H111.309ZM113.355 16.46C113.355 15.3133 113.589 14.3133 114.055 13.46C114.522 12.5933 115.169 11.9267 115.995 11.46C116.822 10.98 117.769 10.74 118.835 10.74C120.209 10.74 121.342 11.0867 122.235 11.78C123.142 12.46 123.749 13.42 124.055 14.66H121.035C120.875 14.18 120.602 13.8067 120.215 13.54C119.842 13.26 119.375 13.12 118.815 13.12C118.015 13.12 117.382 13.4133 116.915 14C116.449 14.5733 116.215 15.3933 116.215 16.46C116.215 17.5133 116.449 18.3333 116.915 18.92C117.382 19.4933 118.015 19.78 118.815 19.78C119.949 19.78 120.689 19.2733 121.035 18.26H124.055C123.749 19.46 123.142 20.4133 122.235 21.12C121.329 21.8267 120.195 22.18 118.835 22.18C117.769 22.18 116.822 21.9467 115.995 21.48C115.169 21 114.522 20.3333 114.055 19.48C113.589 18.6133 113.355 17.6067 113.355 16.46Z" fill="white"/>
<path d="M288 22L293 27L298 22" stroke="#009379" stroke-width="2" stroke-linecap="round" stroke-linejoin="round"/>
<path d="M247.274 15.412C247.322 14.668 247.606 14.088 248.126 13.672C248.654 13.256 249.326 13.048 250.142 13.048C250.702 13.048 251.186 13.148 251.594 13.348C252.002 13.548 252.31 13.82 252.518 14.164C252.726 14.508 252.83 14.896 252.83 15.328C252.83 15.824 252.698 16.248 252.434 16.6C252.17 16.952 251.854 17.188 251.486 17.308V17.356C251.958 17.5 252.326 17.764 252.59 18.148C252.854 18.524 252.986 19.008 252.986 19.6C252.986 20.072 252.878 20.492 252.662 20.86C252.446 21.228 252.126 21.52 251.702 21.736C251.278 21.944 250.77 22.048 250.178 22.048C249.314 22.048 248.602 21.828 248.042 21.388C247.49 20.94 247.194 20.3 247.154 19.468H248.474C248.506 19.892 248.67 20.24 248.966 20.512C249.262 20.776 249.662 20.908 250.166 20.908C250.654 20.908 251.03 20.776 251.294 20.512C251.558 20.24 251.69 19.892 251.69 19.468C251.69 18.908 251.51 18.512 251.15 18.28C250.798 18.04 250.254 17.92 249.518 17.92H249.206V16.792H249.53C250.178 16.784 250.67 16.676 251.006 16.468C251.35 16.26 251.522 15.932 251.522 15.484C251.522 15.1 251.398 14.796 251.15 14.572C250.902 14.34 250.55 14.224 250.094 14.224C249.646 14.224 249.298 14.34 249.05 14.572C248.802 14.796 248.654 15.076 248.606 15.412H247.274ZM255.255 20.176V19.144L259.287 13.36H260.943V18.988H262.059V20.176H260.943V22H259.599V20.176H255.255ZM259.659 14.752L256.827 18.988H259.659V14.752ZM263.977 15.364C263.977 14.78 264.145 14.324 264.481 13.996C264.825 13.66 265.265 13.492 265.801 13.492C266.337 13.492 266.773 13.66 267.109 13.996C267.453 14.324 267.625 14.78 267.625 15.364C267.625 15.948 267.453 16.408 267.109 16.744C266.773 17.08 266.337 17.248 265.801 17.248C265.265 17.248 264.825 17.08 264.481 16.744C264.145 16.408 263.977 15.948 263.977 15.364ZM271.297 13.648L266.509 22H265.165L269.953 13.648H271.297ZM265.801 14.32C265.297 14.32 265.045 14.668 265.045 15.364C265.045 16.068 265.297 16.42 265.801 16.42C266.041 16.42 266.225 16.336 266.353 16.168C266.489 15.992 266.557 15.724 266.557 15.364C266.557 14.668 266.305 14.32 265.801 14.32ZM268.861 20.272C268.861 19.688 269.029 19.232 269.365 18.904C269.709 18.568 270.149 18.4 270.685 18.4C271.213 18.4 271.645 18.568 271.981 18.904C272.325 19.232 272.497 19.688 272.497 20.272C272.497 20.856 272.325 21.316 271.981 21.652C271.645 21.988 271.213 22.156 270.685 22.156C270.149 22.156 269.709 21.988 269.365 21.652C269.029 21.316 268.861 20.856 268.861 20.272ZM270.673 19.228C270.169 19.228 269.917 19.576 269.917 20.272C269.917 20.968 270.169 21.316 270.673 21.316C271.177 21.316 271.429 20.968 271.429 20.272C271.429 19.576 271.177 19.228 270.673 19.228Z" fill="white"/>
<g filter="url(#filter0_i_222_3533)">
<rect width="272" height="6" rx="3" transform="matrix(1 0 0 -1 0 37)" fill="#202237"/>
</g>
<g filter="url(#filter1_i_222_3533)">
<rect width="105.778" height="6" rx="3" transform="matrix(1 0 0 -1 0 37)" fill="#E90808"/>
</g>
<path d="M11.1 75.24C10.78 74.6533 10.34 74.2067 9.78 73.9C9.22 73.5933 8.56667 73.44 7.82 73.44C6.99333 73.44 6.26 73.6267 5.62 74C4.98 74.3733 4.48 74.9067 4.12 75.6C3.76 76.2933 3.58 77.0933 3.58 78C3.58 78.9333 3.76 79.7467 4.12 80.44C4.49333 81.1333 5.00667 81.6667 5.66 82.04C6.31333 82.4133 7.07333 82.6 7.94 82.6C9.00667 82.6 9.88 82.32 10.56 81.76C11.24 81.1867 11.6867 80.3933 11.9 79.38H7.1V77.24H14.66V79.68C14.4733 80.6533 14.0733 81.5533 13.46 82.38C12.8467 83.2067 12.0533 83.8733 11.08 84.38C10.12 84.8733 9.04 85.12 7.84 85.12C6.49333 85.12 5.27333 84.82 4.18 84.22C3.1 83.6067 2.24667 82.76 1.62 81.68C1.00667 80.6 0.7 79.3733 0.7 78C0.7 76.6267 1.00667 75.4 1.62 74.32C2.24667 73.2267 3.1 72.38 4.18 71.78C5.27333 71.1667 6.48667 70.86 7.82 70.86C9.39333 70.86 10.76 71.2467 11.92 72.02C13.08 72.78 13.88 73.8533 14.32 75.24H11.1ZM27.0316 79.22C27.0316 79.62 27.0049 79.98 26.9516 80.3H18.8516C18.9182 81.1 19.1982 81.7267 19.6916 82.18C20.1849 82.6333 20.7916 82.86 21.5116 82.86C22.5516 82.86 23.2916 82.4133 23.7316 81.52H26.7516C26.4316 82.5867 25.8182 83.4667 24.9116 84.16C24.0049 84.84 22.8916 85.18 21.5716 85.18C20.5049 85.18 19.5449 84.9467 18.6916 84.48C17.8516 84 17.1916 83.3267 16.7116 82.46C16.2449 81.5933 16.0116 80.5933 16.0116 79.46C16.0116 78.3133 16.2449 77.3067 16.7116 76.44C17.1782 75.5733 17.8316 74.9067 18.6716 74.44C19.5116 73.9733 20.4782 73.74 21.5716 73.74C22.6249 73.74 23.5649 73.9667 24.3916 74.42C25.2316 74.8733 25.8782 75.52 26.3316 76.36C26.7982 77.1867 27.0316 78.14 27.0316 79.22ZM24.1316 78.42C24.1182 77.7 23.8582 77.1267 23.3516 76.7C22.8449 76.26 22.2249 76.04 21.4916 76.04C20.7982 76.04 20.2116 76.2533 19.7316 76.68C19.2649 77.0933 18.9782 77.6733 18.8716 78.42H24.1316ZM31.8753 75.64C32.2353 75.0533 32.702 74.5933 33.2753 74.26C33.862 73.9267 34.5286 73.76 35.2753 73.76V76.7H34.5353C33.6553 76.7 32.9886 76.9067 32.5353 77.32C32.0953 77.7333 31.8753 78.4533 31.8753 79.48V85H29.0753V73.92H31.8753V75.64ZM50.9213 73.76C52.2813 73.76 53.3746 74.18 54.2013 75.02C55.0413 75.8467 55.4613 77.0067 55.4613 78.5V85H52.6613V78.88C52.6613 78.0133 52.4413 77.3533 52.0013 76.9C51.5613 76.4333 50.9613 76.2 50.2013 76.2C49.4413 76.2 48.8346 76.4333 48.3813 76.9C47.9413 77.3533 47.7213 78.0133 47.7213 78.88V85H44.9213V78.88C44.9213 78.0133 44.7013 77.3533 44.2613 76.9C43.8213 76.4333 43.2213 76.2 42.4613 76.2C41.6879 76.2 41.0746 76.4333 40.6213 76.9C40.1813 77.3533 39.9613 78.0133 39.9613 78.88V85H37.1613V73.92H39.9613V75.26C40.3213 74.7933 40.7813 74.4267 41.3413 74.16C41.9146 73.8933 42.5413 73.76 43.2213 73.76C44.0879 73.76 44.8613 73.9467 45.5413 74.32C46.2213 74.68 46.7479 75.2 47.1213 75.88C47.4813 75.24 48.0013 74.7267 48.6813 74.34C49.3746 73.9533 50.1213 73.76 50.9213 73.76ZM57.3983 79.42C57.3983 78.3 57.6183 77.3067 58.0583 76.44C58.5116 75.5733 59.1183 74.9067 59.8783 74.44C60.6516 73.9733 61.5116 73.74 62.4583 73.74C63.2849 73.74 64.0049 73.9067 64.6183 74.24C65.2449 74.5733 65.7449 74.9933 66.1183 75.5V73.92H68.9383V85H66.1183V83.38C65.7583 83.9 65.2583 84.3333 64.6183 84.68C63.9916 85.0133 63.2649 85.18 62.4383 85.18C61.5049 85.18 60.6516 84.94 59.8783 84.46C59.1183 83.98 58.5116 83.3067 58.0583 82.44C57.6183 81.56 57.3983 80.5533 57.3983 79.42ZM66.1183 79.46C66.1183 78.78 65.9849 78.2 65.7183 77.72C65.4516 77.2267 65.0916 76.8533 64.6383 76.6C64.1849 76.3333 63.6983 76.2 63.1783 76.2C62.6583 76.2 62.1783 76.3267 61.7383 76.58C61.2983 76.8333 60.9383 77.2067 60.6583 77.7C60.3916 78.18 60.2583 78.7533 60.2583 79.42C60.2583 80.0867 60.3916 80.6733 60.6583 81.18C60.9383 81.6733 61.2983 82.0533 61.7383 82.32C62.1916 82.5867 62.6716 82.72 63.1783 82.72C63.6983 82.72 64.1849 82.5933 64.6383 82.34C65.0916 82.0733 65.4516 81.7 65.7183 81.22C65.9849 80.7267 66.1183 80.14 66.1183 79.46ZM77.813 73.76C79.133 73.76 80.1996 74.18 81.013 75.02C81.8263 75.8467 82.233 77.0067 82.233 78.5V85H79.433V78.88C79.433 78 79.213 77.3267 78.773 76.86C78.333 76.38 77.733 76.14 76.973 76.14C76.1996 76.14 75.5863 76.38 75.133 76.86C74.693 77.3267 74.473 78 74.473 78.88V85H71.673V73.92H74.473V75.3C74.8463 74.82 75.3196 74.4467 75.893 74.18C76.4796 73.9 77.1196 73.76 77.813 73.76Z" fill="white"/>
<path d="M288 85L293 90L298 85" stroke="#009379" stroke-width="2" stroke-linecap="round" stroke-linejoin="round"/>
<path d="M248.898 83.14C249.666 82.476 250.27 81.932 250.71 81.508C251.158 81.076 251.53 80.628 251.826 80.164C252.122 79.7 252.27 79.236 252.27 78.772C252.27 78.292 252.154 77.916 251.922 77.644C251.698 77.372 251.342 77.236 250.854 77.236C250.382 77.236 250.014 77.388 249.75 77.692C249.494 77.988 249.358 78.388 249.342 78.892H248.022C248.046 77.98 248.318 77.284 248.838 76.804C249.366 76.316 250.034 76.072 250.842 76.072C251.714 76.072 252.394 76.312 252.882 76.792C253.378 77.272 253.626 77.912 253.626 78.712C253.626 79.288 253.478 79.844 253.182 80.38C252.894 80.908 252.546 81.384 252.138 81.808C251.738 82.224 251.226 82.708 250.602 83.26L250.062 83.74H253.866V84.88H248.034V83.884L248.898 83.14ZM256.044 78.412C256.092 77.668 256.376 77.088 256.896 76.672C257.424 76.256 258.096 76.048 258.912 76.048C259.472 76.048 259.956 76.148 260.364 76.348C260.772 76.548 261.08 76.82 261.288 77.164C261.496 77.508 261.6 77.896 261.6 78.328C261.6 78.824 261.468 79.248 261.204 79.6C260.94 79.952 260.624 80.188 260.256 80.308V80.356C260.728 80.5 261.096 80.764 261.36 81.148C261.624 81.524 261.756 82.008 261.756 82.6C261.756 83.072 261.648 83.492 261.432 83.86C261.216 84.228 260.896 84.52 260.472 84.736C260.048 84.944 259.54 85.048 258.948 85.048C258.084 85.048 257.372 84.828 256.812 84.388C256.26 83.94 255.964 83.3 255.924 82.468H257.244C257.276 82.892 257.44 83.24 257.736 83.512C258.032 83.776 258.432 83.908 258.936 83.908C259.424 83.908 259.8 83.776 260.064 83.512C260.328 83.24 260.46 82.892 260.46 82.468C260.46 81.908 260.28 81.512 259.92 81.28C259.568 81.04 259.024 80.92 258.288 80.92H257.976V79.792H258.3C258.948 79.784 259.44 79.676 259.776 79.468C260.12 79.26 260.292 78.932 260.292 78.484C260.292 78.1 260.168 77.796 259.92 77.572C259.672 77.34 259.32 77.224 258.864 77.224C258.416 77.224 258.068 77.34 257.82 77.572C257.572 77.796 257.424 78.076 257.376 78.412H256.044ZM263.977 78.364C263.977 77.78 264.145 77.324 264.481 76.996C264.825 76.66 265.265 76.492 265.801 76.492C266.337 76.492 266.773 76.66 267.109 76.996C267.453 77.324 267.625 77.78 267.625 78.364C267.625 78.948 267.453 79.408 267.109 79.744C266.773 80.08 266.337 80.248 265.801 80.248C265.265 80.248 264.825 80.08 264.481 79.744C264.145 79.408 263.977 78.948 263.977 78.364ZM271.297 76.648L266.509 85H265.165L269.953 76.648H271.297ZM265.801 77.32C265.297 77.32 265.045 77.668 265.045 78.364C265.045 79.068 265.297 79.42 265.801 79.42C266.041 79.42 266.225 79.336 266.353 79.168C266.489 78.992 266.557 78.724 266.557 78.364C266.557 77.668 266.305 77.32 265.801 77.32ZM268.861 83.272C268.861 82.688 269.029 82.232 269.365 81.904C269.709 81.568 270.149 81.4 270.685 81.4C271.213 81.4 271.645 81.568 271.981 81.904C272.325 82.232 272.497 82.688 272.497 83.272C272.497 83.856 272.325 84.316 271.981 84.652C271.645 84.988 271.213 85.156 270.685 85.156C270.149 85.156 269.709 84.988 269.365 84.652C269.029 84.316 268.861 83.856 268.861 83.272ZM270.673 82.228C270.169 82.228 269.917 82.576 269.917 83.272C269.917 83.968 270.169 84.316 270.673 84.316C271.177 84.316 271.429 83.968 271.429 83.272C271.429 82.576 271.177 82.228 270.673 82.228Z" fill="white"/>
<g filter="url(#filter2_i_222_3533)">
<rect width="272" height="6" rx="3" transform="matrix(1 0 0 -1 0 100)" fill="#202237"/>
</g>
<g filter="url(#filter3_i_222_3533)">
<rect width="53" height="6" rx="3" transform="matrix(1 0 0 -1 0 100)" fill="#AB40F2"/>
</g>
<defs>
<filter id="filter0_i_222_3533" x="0" y="31" width="272" height="11" filterUnits="userSpaceOnUse" color-interpolation-filters="sRGB">
<feFlood flood-opacity="0" result="BackgroundImageFix"/>
<feBlend mode="normal" in="SourceGraphic" in2="BackgroundImageFix" result="shape"/>
<feColorMatrix in="SourceAlpha" type="matrix" values="0 0 0 0 0 0 0 0 0 0 0 0 0 0 0 0 0 0 127 0" result="hardAlpha"/>
<feOffset dy="5"/>
<feGaussianBlur stdDeviation="7.5"/>
<feComposite in2="hardAlpha" operator="arithmetic" k2="-1" k3="1"/>
<feColorMatrix type="matrix" values="0 0 0 0 0.0911285 0 0 0 0 0.0950469 0 0 0 0 0.150538 0 0 0 1 0"/>
<feBlend mode="normal" in2="shape" result="effect1_innerShadow_222_3533"/>
</filter>
<filter id="filter1_i_222_3533" x="0" y="31" width="110.778" height="11" filterUnits="userSpaceOnUse" color-interpolation-filters="sRGB">
<feFlood flood-opacity="0" result="BackgroundImageFix"/>
<feBlend mode="normal" in="SourceGraphic" in2="BackgroundImageFix" result="shape"/>
<feColorMatrix in="SourceAlpha" type="matrix" values="0 0 0 0 0 0 0 0 0 0 0 0 0 0 0 0 0 0 127 0" result="hardAlpha"/>
<feOffset dx="5" dy="5"/>
<feGaussianBlur stdDeviation="7.5"/>
<feComposite in2="hardAlpha" operator="arithmetic" k2="-1" k3="1"/>
<feColorMatrix type="matrix" values="0 0 0 0 1 0 0 0 0 1 0 0 0 0 1 0 0 0 0.3 0"/>
<feBlend mode="normal" in2="shape" result="effect1_innerShadow_222_3533"/>
</filter>
<filter id="filter2_i_222_3533" x="0" y="94" width="272" height="11" filterUnits="userSpaceOnUse" color-interpolation-filters="sRGB">
<feFlood flood-opacity="0" result="BackgroundImageFix"/>
<feBlend mode="normal" in="SourceGraphic" in2="BackgroundImageFix" result="shape"/>
<feColorMatrix in="SourceAlpha" type="matrix" values="0 0 0 0 0 0 0 0 0 0 0 0 0 0 0 0 0 0 127 0" result="hardAlpha"/>
<feOffset dy="5"/>
<feGaussianBlur stdDeviation="7.5"/>
<feComposite in2="hardAlpha" operator="arithmetic" k2="-1" k3="1"/>
<feColorMatrix type="matrix" values="0 0 0 0 0.0911285 0 0 0 0 0.0950469 0 0 0 0 0.150538 0 0 0 1 0"/>
<feBlend mode="normal" in2="shape" result="effect1_innerShadow_222_3533"/>
</filter>
<filter id="filter3_i_222_3533" x="0" y="94" width="58" height="11" filterUnits="userSpaceOnUse" color-interpolation-filters="sRGB">
<feFlood flood-opacity="0" result="BackgroundImageFix"/>
<feBlend mode="normal" in="SourceGraphic" in2="BackgroundImageFix" result="shape"/>
<feColorMatrix in="SourceAlpha" type="matrix" values="0 0 0 0 0 0 0 0 0 0 0 0 0 0 0 0 0 0 127 0" result="hardAlpha"/>
<feOffset dx="5" dy="5"/>
<feGaussianBlur stdDeviation="7.5"/>
<feComposite in2="hardAlpha" operator="arithmetic" k2="-1" k3="1"/>
<feColorMatrix type="matrix" values="0 0 0 0 1 0 0 0 0 1 0 0 0 0 1 0 0 0 0.3 0"/>
<feBlend mode="normal" in2="shape" result="effect1_innerShadow_222_3533"/>
</filter>
</defs>
</svg>
