<svg width="83" height="63" viewBox="0 0 83 63" fill="none" xmlns="http://www.w3.org/2000/svg">
<path opacity="0.24" d="M11.3914 16.3284C8.51248 19.4872 5.00235 22.1591 2.87704 25.869C-0.885269 32.4315 0.648224 41.1223 5.18602 47.1761C8.01686 50.9544 11.8287 53.861 15.5881 56.7181C17.5108 58.1758 19.4583 59.6539 21.6711 60.6204C23.8139 61.5547 26.1418 61.9848 28.4654 62.2442C30.8225 62.5095 33.2247 62.6057 35.5512 62.1378C39.0395 61.4367 42.1546 59.514 45.5393 58.4105C53.4998 55.8187 62.1148 57.9499 70.4819 58.2574C72.1801 58.3201 73.9162 58.2997 75.5299 57.7647C79.7324 56.3712 82.1128 51.7882 82.6726 47.3991C83.2324 43.01 82.4 38.5655 82.3971 34.1341C82.3971 29.8674 83.1566 25.6066 82.8592 21.3501C82.5618 17.0936 80.9511 12.6156 77.3651 10.2964C75.7806 9.27604 73.9337 8.74398 72.1174 8.23233C62.2212 5.43647 52.2535 2.63187 42.0117 1.4045C34.2072 0.470114 27.6024 -0.863675 21.2964 4.60413C17.4059 7.98306 14.8374 12.5486 11.3914 16.3284Z" fill="#C67C4F"/>
<path d="M56.4414 52.6772C55.0085 52.2778 53.612 51.7093 52.1353 51.5184C50.803 51.3464 49.4517 51.4878 48.1165 51.6292L30.7845 53.4629C30.3224 53.5125 29.7335 53.686 29.7087 54.151C29.7148 54.3297 29.7736 54.5027 29.8778 54.648C30.8749 56.2894 32.8253 57.148 34.7349 57.3491C36.6444 57.5503 38.5613 57.1917 40.4621 56.925C44.6377 56.3391 48.8625 56.1843 53.0697 56.4629C59.1498 56.8666 65.8027 58.0459 70.9075 54.7136C66.0898 54.0927 61.1672 53.9906 56.4414 52.6772Z" fill="url(#paint0_linear_2515_12146)"/>
<path d="M25.375 14.9876C25.375 14.9876 25.7584 12.1772 28.595 11.0781C31.4317 9.97896 34.1911 12.3302 34.7538 14.5022C35.3165 16.6741 25.375 14.9876 25.375 14.9876Z" fill="#C67C4F"/>
<path d="M30.3225 19.8854C32.3053 19.8854 33.9128 18.278 33.9128 16.2951C33.9128 14.3123 32.3053 12.7048 30.3225 12.7048C28.3396 12.7048 26.7322 14.3123 26.7322 16.2951C26.7322 18.278 28.3396 19.8854 30.3225 19.8854Z" fill="white"/>
<path opacity="0.26" d="M41.315 43.1191H20.9452C20.6852 43.1191 20.4744 43.3299 20.4744 43.59C20.4744 43.85 20.6852 44.0608 20.9452 44.0608H41.315C41.575 44.0608 41.7858 43.85 41.7858 43.59C41.7858 43.3299 41.575 43.1191 41.315 43.1191Z" fill="url(#paint1_linear_2515_12146)"/>
<path d="M45.1502 50.3087L26.5281 50.5098C25.8474 50.5175 25.1693 50.4232 24.5165 50.23C23.5388 49.943 22.6358 49.4454 21.8708 48.7723C20.8315 47.8481 19.6099 46.7315 18.7892 45.8569C17.6231 44.6164 16.3505 41.8992 15.9803 38.9255C15.7913 37.5094 15.853 36.0711 16.1625 34.6764C17.1829 30.3354 16.1625 22.1213 16.1625 22.1213L43.8922 22.0061L43.777 24.8574C43.4403 29.6561 45.1502 50.3087 45.1502 50.3087Z" fill="white"/>
<path d="M24.5209 50.2302C23.5431 49.9432 22.6401 49.4457 21.8752 48.7725C20.8358 47.8483 19.6143 46.7317 18.7936 45.8571C17.6274 44.6166 16.3549 41.8995 15.9846 38.9258C16.7324 39.5089 17.2309 40.3908 18.0094 40.9564C18.7382 41.4913 19.6449 41.6983 20.5326 41.8499C21.8027 42.0739 23.0864 42.2122 24.3751 42.2639L23.9553 47.4256C23.8941 48.185 23.8824 48.8833 24.1914 49.5961C24.2774 49.7987 24.4115 50.0115 24.5209 50.2302Z" fill="url(#paint2_linear_2515_12146)"/>
<path d="M16.623 25.0379C16.623 25.0379 32.4565 25.551 36.3019 25.3805C38.7281 25.2817 41.1582 25.3387 43.5772 25.551L43.8906 22.0132L16.1667 22.1225L16.623 25.0379Z" fill="url(#paint3_linear_2515_12146)"/>
<path d="M16.1667 22.1227L17.1361 20.8662L42.7565 20.8093L43.8964 22.0076L16.1667 22.1227Z" fill="#C67C4F"/>
<path opacity="0.26" d="M16.1667 22.1227L17.1361 20.8662L42.7565 20.8093L43.8964 22.0076L16.1667 22.1227Z" fill="url(#paint4_linear_2515_12146)"/>
<path opacity="0.26" d="M40.8585 29.083H20.4887C20.2286 29.083 20.0178 29.2938 20.0178 29.5538C20.0178 29.8139 20.2286 30.0247 20.4887 30.0247H40.8585C41.1185 30.0247 41.3293 29.8139 41.3293 29.5538C41.3293 29.2938 41.1185 29.083 40.8585 29.083Z" fill="url(#paint5_linear_2515_12146)"/>
<path opacity="0.26" d="M40.8585 32.6208H20.4887C20.2286 32.6208 20.0178 32.8316 20.0178 33.0917C20.0178 33.3517 20.2286 33.5625 20.4887 33.5625H40.8585C41.1185 33.5625 41.3293 33.3517 41.3293 33.0917C41.3293 32.8316 41.1185 32.6208 40.8585 32.6208Z" fill="url(#paint6_linear_2515_12146)"/>
<path opacity="0.26" d="M40.8585 36.1589H20.4887C20.2286 36.1589 20.0178 36.3697 20.0178 36.6298C20.0178 36.8898 20.2286 37.1006 20.4887 37.1006H40.8585C41.1185 37.1006 41.3293 36.8898 41.3293 36.6298C41.3293 36.3697 41.1185 36.1589 40.8585 36.1589Z" fill="url(#paint7_linear_2515_12146)"/>
<path opacity="0.26" d="M40.8585 39.6963H20.4887C20.2286 39.6963 20.0178 39.9071 20.0178 40.1671C20.0178 40.4272 20.2286 40.638 20.4887 40.638H40.8585C41.1185 40.638 41.3293 40.4272 41.3293 40.1671C41.3293 39.9071 41.1185 39.6963 40.8585 39.6963Z" fill="url(#paint8_linear_2515_12146)"/>
<path d="M16.1667 22.1227L17.1361 20.8662L42.7565 20.8093L43.8964 22.0076L16.1667 22.1227Z" fill="white"/>
<path d="M26.397 18.9988L25.2978 21.0395C25.2978 21.0395 25.171 21.3719 25.8095 21.2699L27.0879 19.7101L26.397 18.9988Z" fill="#C67C4F"/>
<path d="M33.8487 18.9988L34.9478 21.0395C34.9478 21.0395 35.076 21.3719 34.4361 21.2699L33.1592 19.7101L33.8487 18.9988Z" fill="#C67C4F"/>
<path d="M26.397 18.9988L25.2978 21.0395C25.2978 21.0395 25.171 21.3719 25.8095 21.2699L27.0879 19.7101L26.397 18.9988Z" fill="url(#paint9_linear_2515_12146)"/>
<path d="M33.8487 18.9988L34.9478 21.0395C34.9478 21.0395 35.076 21.3719 34.4361 21.2699L33.1592 19.7101L33.8487 18.9988Z" fill="url(#paint10_linear_2515_12146)"/>
<path d="M30.1535 11.3573C31.4433 11.3476 32.6855 11.8438 33.6135 12.7396C34.5416 13.6354 35.0815 14.8593 35.1173 16.1486C35.1532 17.4379 34.6822 18.6899 33.8054 19.6359C32.9286 20.5819 31.7159 21.1464 30.4275 21.2084C29.7679 21.2476 29.1072 21.1538 28.4846 20.9326C27.862 20.7114 27.2902 20.3673 26.8032 19.9208C26.3162 19.4742 25.9239 18.9343 25.6497 18.3332C25.3755 17.732 25.2249 17.0819 25.2069 16.4214C25.1889 15.7609 25.3039 15.1035 25.545 14.4883C25.7861 13.8731 26.1484 13.3127 26.6104 12.8403C27.0724 12.3679 27.6246 11.9932 28.2343 11.7384C28.8439 11.4837 29.4986 11.3541 30.1593 11.3573H30.1535ZM33.5878 16.2668C33.5763 15.3603 33.2071 14.495 32.5605 13.8594C31.914 13.2238 31.0426 12.8694 30.136 12.8733C29.2321 12.877 28.3667 13.2396 27.7302 13.8813C27.0936 14.5231 26.7381 15.3914 26.7417 16.2953C26.7454 17.1991 27.108 18.0645 27.7497 18.7011C28.3915 19.3376 29.2598 19.6932 30.1637 19.6895C31.0705 19.686 31.9392 19.3244 32.5806 18.6833C33.2219 18.0422 33.584 17.1736 33.5878 16.2668Z" fill="#C67C4F"/>
<path d="M32.5601 11.3982C32.7612 10.9478 33.4449 10.6257 34.0178 10.6985C34.3509 10.73 34.6643 10.8707 34.9093 11.0987C35.1542 11.3268 35.3168 11.6294 35.3719 11.9594C35.4711 12.5148 35.2043 13.2203 34.8064 13.4171C34.2563 12.5514 33.4794 11.8531 32.5601 11.3982Z" fill="#C67C4F"/>
<path d="M25.5106 13.3993C25.2771 13.2147 25.1043 12.9644 25.0144 12.6807C24.9245 12.397 24.9217 12.0929 25.0062 11.8075C25.0851 11.5343 25.2386 11.2884 25.4495 11.0976C25.6604 10.9068 25.9203 10.7786 26.2001 10.7274C26.4949 10.6739 26.7989 10.7067 27.0756 10.8218C27.3522 10.9368 27.5898 11.1293 27.7598 11.376C26.8401 11.8335 26.0624 12.533 25.5106 13.3993Z" fill="#C67C4F"/>
<path d="M32.0601 14.105C32.321 14.3601 32.321 14.3601 32.079 14.6006C31.6417 15.0379 31.2044 15.4752 30.7671 15.9125C30.728 15.9434 30.6992 15.9855 30.6846 16.0331C30.67 16.0808 30.6703 16.1318 30.6855 16.1793C30.7222 16.3099 30.706 16.4498 30.6406 16.5686C30.5752 16.6875 30.4656 16.7759 30.3356 16.8148C30.2075 16.8594 30.0673 16.8542 29.9428 16.8002C29.8183 16.7462 29.7187 16.6473 29.6636 16.5233C29.641 16.467 29.6069 16.416 29.5635 16.3736C29.5201 16.3312 29.4683 16.2983 29.4115 16.2769C28.9654 16.0816 28.5237 15.8761 28.0777 15.6807C27.9581 15.6297 27.9319 15.5743 27.98 15.449C28.1972 14.9636 28.1258 15.0335 28.5514 15.2172C28.9392 15.3848 29.3196 15.5685 29.7088 15.7347C29.8036 15.7612 29.9023 15.7706 30.0004 15.7624C30.0529 15.7624 30.1097 15.7347 30.1578 15.7478C30.3488 15.7988 30.4639 15.6982 30.5864 15.5729C31.0237 15.1254 31.4712 14.6851 31.9158 14.242C31.961 14.1895 32.0076 14.1473 32.0601 14.105Z" fill="#C67C4F"/>
<path d="M30.1535 11.3573C31.4433 11.3476 32.6855 11.8438 33.6135 12.7396C34.5416 13.6354 35.0815 14.8593 35.1173 16.1486C35.1532 17.4379 34.6822 18.6899 33.8054 19.6359C32.9286 20.5819 31.7159 21.1464 30.4275 21.2084C29.7679 21.2476 29.1072 21.1538 28.4846 20.9326C27.862 20.7114 27.2902 20.3673 26.8032 19.9208C26.3162 19.4742 25.9239 18.9343 25.6497 18.3332C25.3755 17.732 25.2249 17.0819 25.2069 16.4214C25.1889 15.7609 25.3039 15.1035 25.545 14.4883C25.7861 13.8731 26.1484 13.3127 26.6104 12.8403C27.0724 12.3679 27.6246 11.9932 28.2343 11.7384C28.8439 11.4837 29.4986 11.3541 30.1593 11.3573H30.1535ZM33.5878 16.2668C33.5763 15.3603 33.2071 14.495 32.5605 13.8594C31.914 13.2238 31.0426 12.8694 30.136 12.8733C29.2321 12.877 28.3667 13.2396 27.7302 13.8813C27.0936 14.5231 26.7381 15.3914 26.7417 16.2953C26.7454 17.1991 27.108 18.0645 27.7497 18.7011C28.3915 19.3376 29.2598 19.6932 30.1637 19.6895C31.0705 19.686 31.9392 19.3244 32.5806 18.6833C33.2219 18.0422 33.584 17.1736 33.5878 16.2668Z" fill="url(#paint11_linear_2515_12146)"/>
<path d="M34.8081 13.4182C34.7906 13.3963 34.7804 13.3803 34.7687 13.3643C34.6987 13.2549 34.6229 13.1514 34.5457 13.0479C34.0243 12.3475 33.3431 11.7818 32.5588 11.3978C32.76 10.946 33.4466 10.6238 34.0165 10.6952C34.2215 10.7201 34.4196 10.7849 34.5996 10.8862C34.8021 10.9932 34.9769 11.1458 35.1102 11.332C35.2435 11.5182 35.3317 11.7329 35.3678 11.9591C35.4713 12.5144 35.2046 13.2214 34.8081 13.4182Z" fill="url(#paint12_linear_2515_12146)"/>
<path d="M34.808 13.4184C34.7905 13.3965 34.7803 13.3805 34.7687 13.3645C34.6929 13.2551 34.6229 13.1516 34.5456 13.0481C34.0879 12.4272 33.5602 11.882 32.8518 11.5292C33.0544 11.0759 33.7395 10.7552 34.3095 10.8266C34.4084 10.837 34.506 10.8571 34.601 10.8864C34.8035 10.9934 34.9783 11.146 35.1116 11.3322C35.245 11.5184 35.3332 11.7331 35.3692 11.9592C35.4713 12.5146 35.2045 13.2216 34.808 13.4184Z" fill="url(#paint13_linear_2515_12146)"/>
<path d="M27.7599 11.3763L27.6622 11.4258C27.4931 11.5172 27.3298 11.6144 27.1724 11.7174C27.1447 11.7349 27.117 11.7509 27.0952 11.7669C26.58 12.1177 26.1272 12.5523 25.7555 13.0526C25.7555 13.0526 25.7453 13.0687 25.7395 13.0745C25.6571 13.1789 25.5807 13.2879 25.5106 13.401C25.2763 13.2145 25.1029 12.9622 25.0128 12.6765C24.9227 12.3909 24.9199 12.0848 25.0048 11.7975C25.0679 11.5654 25.1899 11.3535 25.359 11.1824C25.5792 10.939 25.8741 10.7759 26.1972 10.7189C26.4934 10.6653 26.7987 10.699 27.0761 10.8157C27.3535 10.9324 27.591 11.1271 27.7599 11.3763Z" fill="url(#paint14_linear_2515_12146)"/>
<path d="M27.7598 11.3764L27.6622 11.4259C27.4931 11.5236 27.3298 11.6154 27.1724 11.7175C27.1447 11.735 27.117 11.751 27.0951 11.767C26.5631 12.0966 26.1067 12.5347 25.7555 13.0527C25.7555 13.0527 25.7453 13.0688 25.7395 13.0746C25.5057 12.89 25.333 12.6393 25.2438 12.3551C25.1546 12.0709 25.1531 11.7664 25.2395 11.4813C25.2648 11.3788 25.3051 11.2806 25.359 11.1898C25.5791 10.9464 25.874 10.7833 26.1972 10.7262C26.4926 10.672 26.7974 10.7045 27.0748 10.8199C27.3521 10.9353 27.5901 11.1286 27.7598 11.3764Z" fill="url(#paint15_linear_2515_12146)"/>
<path d="M32.0601 14.105C32.321 14.3601 32.321 14.3601 32.079 14.6006C31.6417 15.0379 31.2044 15.4752 30.7671 15.9125C30.728 15.9434 30.6992 15.9855 30.6846 16.0331C30.67 16.0808 30.6703 16.1318 30.6855 16.1793C30.7222 16.3099 30.706 16.4498 30.6406 16.5686C30.5752 16.6875 30.4656 16.7759 30.3356 16.8148C30.2075 16.8594 30.0673 16.8542 29.9428 16.8002C29.8183 16.7462 29.7187 16.6473 29.6636 16.5233C29.641 16.467 29.6069 16.416 29.5635 16.3736C29.5201 16.3312 29.4683 16.2983 29.4115 16.2769C28.9654 16.0816 28.5237 15.8761 28.0777 15.6807C27.9581 15.6297 27.9319 15.5743 27.98 15.449C28.1972 14.9636 28.1258 15.0335 28.5514 15.2172C28.9392 15.3848 29.3196 15.5685 29.7088 15.7347C29.8036 15.7612 29.9023 15.7706 30.0004 15.7624C30.0529 15.7624 30.1097 15.7347 30.1578 15.7478C30.3488 15.7988 30.4639 15.6982 30.5864 15.5729C31.0237 15.1254 31.4712 14.6851 31.9158 14.242C31.961 14.1895 32.0076 14.1473 32.0601 14.105Z" fill="url(#paint16_linear_2515_12146)"/>
<path d="M36.5805 12.2307C36.5167 12.2306 36.455 12.2081 36.4062 12.167C36.3575 12.126 36.3247 12.069 36.3137 12.0062C36.168 11.2147 35.8371 10.6302 35.3108 10.2687C34.4187 9.65642 33.2701 9.87362 33.2599 9.87508C33.1891 9.88862 33.1158 9.87358 33.0561 9.83325C32.9963 9.79291 32.955 9.73055 32.9411 9.65982C32.9273 9.5891 32.942 9.51575 32.982 9.45583C33.0221 9.39592 33.0842 9.35431 33.1549 9.3401C33.2118 9.32844 34.5412 9.07918 35.6199 9.81968C36.27 10.2672 36.684 10.9713 36.8487 11.9115C36.855 11.9466 36.8543 11.9826 36.8466 12.0175C36.839 12.0524 36.8245 12.0854 36.804 12.1146C36.7836 12.1439 36.7576 12.1688 36.7275 12.188C36.6973 12.2071 36.6637 12.2202 36.6286 12.2263L36.5805 12.2307Z" fill="#C67C4F"/>
<path d="M37.9914 11.7976C37.9026 11.7975 37.8167 11.766 37.749 11.7086C37.6812 11.6512 37.6359 11.5718 37.6211 11.4842C37.4287 10.3866 36.9608 9.57756 36.2305 9.07611C34.9929 8.22627 33.4026 8.52656 33.3865 8.52802C33.3372 8.53932 33.2862 8.54061 33.2364 8.53181C33.1866 8.52301 33.1391 8.50429 33.0966 8.47677C33.0542 8.44925 33.0177 8.41348 32.9894 8.3716C32.9611 8.32972 32.9414 8.28257 32.9317 8.23295C32.9219 8.18334 32.9222 8.13226 32.9326 8.08276C32.9429 8.03327 32.9631 7.98635 32.9919 7.9448C33.0207 7.90326 33.0576 7.86792 33.1004 7.8409C33.1431 7.81388 33.1909 7.79573 33.2408 7.78751C33.3209 7.77147 35.1634 7.426 36.6605 8.45367C37.5628 9.07319 38.1371 10.0484 38.366 11.3545C38.3746 11.4034 38.3734 11.4535 38.3626 11.502C38.3518 11.5505 38.3315 11.5963 38.303 11.637C38.2744 11.6776 38.2381 11.7122 38.1961 11.7387C38.1542 11.7653 38.1074 11.7833 38.0584 11.7918C38.0363 11.7961 38.0139 11.798 37.9914 11.7976Z" fill="#C67C4F"/>
<path d="M39.4492 11.2717C39.3334 11.2717 39.2213 11.2307 39.1327 11.156C39.0442 11.0813 38.9849 10.9778 38.9653 10.8636C38.7146 9.43359 38.1052 8.37676 37.1534 7.72517C35.5412 6.61732 33.4669 7.00944 33.4465 7.0109C33.3831 7.02344 33.3179 7.02337 33.2546 7.01071C33.1912 6.99805 33.131 6.97303 33.0773 6.93709C33.0237 6.90116 32.9776 6.855 32.9418 6.80126C32.9059 6.74752 32.881 6.68725 32.8685 6.62388C32.8559 6.56052 32.856 6.49531 32.8687 6.43197C32.8813 6.36863 32.9064 6.30841 32.9423 6.25474C32.9782 6.20107 33.0244 6.155 33.0781 6.11917C33.1319 6.08334 33.1921 6.05845 33.2555 6.04591C33.359 6.02404 35.7598 5.57361 37.7117 6.92052C38.888 7.72808 39.6358 9.00065 39.9347 10.7018C39.9567 10.8305 39.9269 10.9626 39.8518 11.0694C39.7767 11.1762 39.6623 11.249 39.5338 11.2717C39.5057 11.2746 39.4774 11.2746 39.4492 11.2717Z" fill="#C67C4F"/>
<path d="M36.8415 12.21C36.7776 12.2098 36.7157 12.1871 36.6669 12.1457C36.6181 12.1044 36.5854 12.0471 36.5748 11.984C36.4363 11.1925 36.0981 10.6094 35.5719 10.2479C34.6812 9.63567 33.5311 9.85141 33.5224 9.85287C33.4864 9.86252 33.4487 9.86469 33.4119 9.85922C33.375 9.85376 33.3396 9.84078 33.3079 9.8211C33.2762 9.80142 33.2489 9.77545 33.2277 9.7448C33.2065 9.71415 33.1918 9.67946 33.1845 9.64289C33.1772 9.60632 33.1775 9.56865 33.1853 9.53219C33.1932 9.49574 33.2084 9.46128 33.2301 9.43096C33.2518 9.40063 33.2795 9.37508 33.3115 9.35588C33.3434 9.33669 33.379 9.32425 33.416 9.31935C33.4728 9.30769 34.8022 9.05842 35.8809 9.79893C36.5325 10.245 36.945 10.9491 37.1112 11.8907C37.1235 11.9618 37.1071 12.0349 37.0655 12.094C37.024 12.153 36.9607 12.1931 36.8896 12.2056C36.8738 12.2085 36.8577 12.2099 36.8415 12.21Z" fill="url(#paint17_linear_2515_12146)"/>
<path d="M38.2466 11.773C38.1581 11.7729 38.0724 11.7416 38.0046 11.6845C37.9369 11.6275 37.8915 11.5483 37.8764 11.4611C37.684 10.3634 37.216 9.55295 36.4857 9.05151C35.2496 8.20167 33.6578 8.50341 33.6418 8.50487C33.545 8.52081 33.4458 8.49845 33.3652 8.44253C33.2846 8.38661 33.2289 8.30152 33.21 8.20527C33.191 8.10902 33.2103 8.00917 33.2637 7.92688C33.3171 7.84458 33.4004 7.7863 33.496 7.76436C33.5747 7.74833 35.4172 7.4014 36.9143 8.42907C37.8166 9.04859 38.3909 10.0325 38.6198 11.3313C38.6286 11.3802 38.6277 11.4303 38.617 11.4787C38.6064 11.5272 38.5862 11.5731 38.5578 11.6137C38.5293 11.6544 38.4931 11.689 38.4512 11.7156C38.4093 11.7422 38.3626 11.7602 38.3137 11.7686C38.2915 11.7723 38.2691 11.7738 38.2466 11.773Z" fill="url(#paint18_linear_2515_12146)"/>
<path d="M39.7043 11.245C39.5886 11.2451 39.4767 11.2043 39.3882 11.1299C39.2996 11.0555 39.2402 10.9523 39.2203 10.8383C38.9696 9.40689 38.3603 8.35152 37.4098 7.69848C35.7962 6.59063 33.7233 6.98275 33.7015 6.98567C33.5753 7.00607 33.4461 6.97663 33.3412 6.90357C33.2363 6.8305 33.1639 6.71953 33.1393 6.59409C33.1147 6.46864 33.1399 6.33855 33.2094 6.23129C33.2789 6.12402 33.3874 6.04798 33.512 6.01922C33.614 5.99881 36.0163 5.54838 37.9667 6.89383C39.143 7.70139 39.8923 8.97396 40.1897 10.6838C40.2008 10.7474 40.1993 10.8125 40.1852 10.8755C40.1711 10.9384 40.1448 10.998 40.1077 11.0508C40.0706 11.1036 40.0235 11.1486 39.969 11.1831C39.9146 11.2177 39.8538 11.2412 39.7903 11.2523C39.7614 11.2529 39.7326 11.2504 39.7043 11.245Z" fill="url(#paint19_linear_2515_12146)"/>
<path d="M66.8932 12.2012C67.0135 11.7692 67.017 11.313 66.9034 10.8791C66.7688 10.4303 66.5351 10.0173 66.2198 9.67069C66.2198 9.67069 65.6965 9.48847 65.2679 9.65611C64.8393 9.82374 65.4457 10.5934 65.3889 10.9593C65.332 11.3252 64.9822 10.3048 64.7752 10.3952C64.5682 10.4855 65.0973 11.8893 65.4924 12.0642" fill="#F0C0AF"/>
<path d="M51.016 24.3865C51.016 24.3865 49.8935 23.5833 49.6953 23.3019C49.497 23.0206 50.1967 22.1649 49.9868 21.9784C49.7769 21.7918 49.0204 21.4026 49.0947 21.0309C49.1691 20.6591 50.4358 21.5134 51.0101 21.9419C51.5845 22.3705 52.1063 23.5031 52.1063 23.5031C52.1063 23.5031 51.9664 24.6007 51.016 24.3865Z" fill="#F0C0AF"/>
<path d="M64.8653 20.5696C64.7983 21.2154 64.7035 22.0142 64.5928 22.8932C64.0811 27.068 63.24 33.1058 63.173 33.4935C63.1292 33.7515 62.4981 33.8565 61.6861 33.8667C60.6249 33.8754 59.2474 33.7136 58.4792 33.4935C57.5649 33.2179 56.6782 32.8577 55.8306 32.4177C55.8306 32.4177 57.3947 19.8626 57.695 19.6658C57.9952 19.4691 60.1176 19.3029 60.1176 19.3029L62.5811 19.3889C62.5811 19.3889 63.3304 19.1644 63.9907 19.0215C64.4645 18.921 64.8901 18.8583 64.9805 18.9487C65.0184 18.988 64.9747 19.609 64.8653 20.5696Z" fill="#C67C4F"/>
<path d="M57.9894 19.5388C57.9894 19.5388 57.4063 19.7356 57.1075 20.1219C56.8086 20.5082 54.4618 25.2238 54.7562 26.1961C55.0507 27.1684 56.0681 27.8914 56.3597 27.6961C56.6512 27.5007 57.2051 25.7063 57.3028 25.3142C57.4005 24.9221 57.5943 23.632 57.5943 23.632L57.9894 19.5388Z" fill="#C67C4F"/>
<path d="M67.6336 16.7069C67.7109 17.6733 65.1672 21.8321 64.6891 22.7359C64.6599 22.7884 64.6264 22.8408 64.5929 22.8933C64.039 23.6834 62.7474 24.0172 62.7474 24.0172C62.7365 23.9982 62.7286 23.9775 62.7241 23.956C62.3553 23.0813 63.1964 20.4794 63.1964 20.4794L63.9952 19.0217L65.3582 16.5159L65.4121 12.2099C65.4121 12.2099 65.5273 11.7988 66.2357 11.707C66.6366 11.6545 66.8275 11.7317 66.9237 11.8032C66.9615 11.8328 66.9899 11.8728 67.0054 11.9183C67.0054 11.9183 67.5476 15.5888 67.6336 16.7069Z" fill="#C67C4F"/>
<path d="M54.6982 52.7064C54.6982 52.7064 54.2842 54.2705 54.0904 54.3842C53.8965 54.4979 53.2157 54.1379 52.8265 53.8536C52.4373 53.5694 52.5729 52.9615 52.5729 52.9615L52.7435 52.4863L54.6982 52.7064Z" fill="#F0C0AF"/>
<path d="M65.1077 51.9529C65.1077 51.9529 65.8627 54.0797 65.7869 54.2852C65.7111 54.4907 64.7884 54.1875 64.3045 54.2196C63.8205 54.2517 63.6339 53.501 63.6339 53.501L63.4619 53.0257L65.1077 51.9529Z" fill="#F0C0AF"/>
<path d="M62.7781 18.2146C62.7781 18.2146 62.4865 19.4886 62.5813 19.9784C62.676 20.4682 61.8962 21.8398 60.9166 21.8398C59.937 21.8398 59.937 20.1737 59.937 19.9784C59.937 19.783 60.2285 19.6868 60.1323 19.1941C60.0361 18.7014 62.6804 17.6271 62.7781 18.2146Z" fill="#F0C0AF"/>
<path d="M60.1325 19.1938C60.2083 19.5728 60.0509 19.7171 59.9751 19.8542C60.1905 20.0684 60.4777 20.1951 60.7812 20.2098C61.3643 20.2098 62.252 19.7201 62.6427 18.8382C62.65 18.8236 62.6573 18.8061 62.6645 18.7901C62.7199 18.4664 62.7782 18.2143 62.7782 18.2143C62.6806 17.6268 60.0349 18.7041 60.1325 19.1938Z" fill="#B5765E"/>
<path d="M62.5637 19.7898C62.5637 19.7898 61.7736 21.6397 61.106 21.8306C61.106 21.8306 60.9223 21.9283 61.4121 22.2227C61.9019 22.5172 63.2736 21.0464 63.0783 19.9691C63.0555 19.8327 62.9981 19.7044 62.9116 19.5964C62.8251 19.4885 62.7123 19.4045 62.5841 19.3525L62.5637 19.7898Z" fill="white"/>
<path d="M60.1324 19.3892C60.1324 19.3892 59.9152 20.7492 60.4647 21.6865C60.4647 21.6865 60.23 22.0349 60.0347 22.0349C59.8394 22.0349 59.3481 20.86 59.5449 19.9781C59.6586 19.4621 60.0347 19.2493 60.1324 19.3892Z" fill="white"/>
<path d="M63.1703 33.4996L62.0989 42.0213L65.4312 53.0429C65.4312 53.0429 64.819 53.3825 63.5449 53.2849L59.0261 42.3871L58.9619 35.4587L57.4926 41.4353L54.6763 53.0866C54.6763 53.0866 53.242 53.4015 52.3979 52.7951L54.2594 41.4353L55.8264 32.4209L63.1703 33.4996Z" fill="#606161"/>
<path d="M65.4295 53.0434C65.4295 53.0434 64.8172 53.3816 63.5461 53.2868L59.0185 42.3847L58.9558 35.4578L57.4894 41.4343L54.6673 53.0959C54.6673 53.0959 53.2388 53.4122 52.3918 52.8043L54.2519 41.4343L55.8203 32.4229L61.7386 33.2873L63.1686 33.4986L62.0972 42.0232L65.4295 53.0434Z" fill="url(#paint20_linear_2515_12146)"/>
<path d="M59.545 15.3735C59.545 15.3735 59.3482 17.9201 59.545 18.6067C59.7418 19.2933 60.3278 19.8807 60.9167 19.8807C61.5056 19.8807 62.386 19.3895 62.7781 18.509C63.1703 17.6286 63.3612 15.4712 63.2679 15.1768C63.1746 14.8823 62.5784 13.9596 61.0143 14.1053C59.9371 14.1972 59.545 14.98 59.545 15.3735Z" fill="#F0C0AF"/>
<path d="M63.1483 16.6282C63.0594 16.8279 62.7474 16.8381 62.59 16.685C62.518 16.6016 62.4661 16.5028 62.4383 16.3961C62.4105 16.2895 62.4075 16.1778 62.4297 16.0699C62.4574 15.8527 62.5317 15.6413 62.5448 15.4212C62.5498 15.3958 62.5492 15.3697 62.5432 15.3445C62.5371 15.3194 62.5258 15.2958 62.5098 15.2754C62.4898 15.2587 62.4665 15.2463 62.4414 15.2393C62.4162 15.2323 62.3899 15.2307 62.3641 15.2346C62.0725 15.2434 61.7212 15.36 61.5142 15.1501C61.3903 15.0247 61.3539 14.8061 61.1892 14.7463C61.0507 14.6967 60.9078 14.7886 60.7781 14.8556C60.4696 15.0135 60.1125 15.0479 59.7796 14.9518C59.7091 14.938 59.6466 14.8978 59.6047 14.8396C59.5822 14.7888 59.5761 14.7322 59.5872 14.6778C59.6082 14.5021 59.6669 14.333 59.7592 14.1821C59.8515 14.0312 59.9753 13.9019 60.1221 13.8032C60.3735 13.6554 60.6522 13.5602 60.9414 13.5233C61.2743 13.4633 61.6107 13.4243 61.9486 13.4067C62.1283 13.3831 62.3111 13.4062 62.4792 13.4737C62.6358 13.5758 62.7767 13.7 62.8976 13.8425C63.09 14.0218 63.3349 14.1472 63.4807 14.3644C63.5987 14.5422 63.8582 14.5364 63.9486 14.9679C64.0258 15.3454 64.0783 15.7273 64.1425 16.1063C64.2066 16.4853 64.0492 16.8774 63.969 17.255C63.8057 18.029 63.8057 18.029 63.5317 18.2929C63.363 18.4379 63.1745 18.5581 62.9719 18.65C62.9374 18.6743 62.8982 18.6912 62.8568 18.6997C62.8154 18.7082 62.7728 18.7082 62.7314 18.6996C62.6512 18.6719 62.6206 18.5392 62.6993 18.5086" fill="#606161"/>
<path d="M63.1483 16.6282C63.0594 16.8279 62.7474 16.8381 62.59 16.685C62.518 16.6016 62.4661 16.5028 62.4383 16.3961C62.4105 16.2895 62.4075 16.1778 62.4297 16.0699C62.4574 15.8527 62.5317 15.6413 62.5448 15.4212C62.5498 15.3958 62.5492 15.3697 62.5432 15.3445C62.5371 15.3194 62.5258 15.2958 62.5098 15.2754C62.4898 15.2587 62.4665 15.2463 62.4414 15.2393C62.4162 15.2323 62.3899 15.2307 62.3641 15.2346C62.0725 15.2434 61.7212 15.36 61.5142 15.1501C61.3903 15.0247 61.3539 14.8061 61.1892 14.7463C61.0507 14.6967 60.9078 14.7886 60.7781 14.8556C60.4696 15.0135 60.1125 15.0479 59.7796 14.9518C59.7091 14.938 59.6466 14.8978 59.6047 14.8396C59.5822 14.7888 59.5761 14.7322 59.5872 14.6778C59.6082 14.5021 59.6669 14.333 59.7592 14.1821C59.8515 14.0312 59.9753 13.9019 60.1221 13.8032C60.3735 13.6554 60.6522 13.5602 60.9414 13.5233C61.2743 13.4633 61.6107 13.4243 61.9486 13.4067C62.1283 13.3831 62.3111 13.4062 62.4792 13.4737C62.6358 13.5758 62.7767 13.7 62.8976 13.8425C63.09 14.0218 63.3349 14.1472 63.4807 14.3644C63.5987 14.5422 63.8582 14.5364 63.9486 14.9679C64.0258 15.3454 64.0783 15.7273 64.1425 16.1063C64.2066 16.4853 64.0492 16.8774 63.969 17.255C63.8057 18.029 63.8057 18.029 63.5317 18.2929C63.363 18.4379 63.1745 18.5581 62.9719 18.65C62.9374 18.6743 62.8982 18.6912 62.8568 18.6997C62.8154 18.7082 62.7728 18.7082 62.7314 18.6996C62.6512 18.6719 62.6206 18.5392 62.6993 18.5086" fill="url(#paint21_linear_2515_12146)"/>
<path d="M62.8203 17.0209C62.8203 17.0209 62.918 16.4378 63.3101 16.6287C63.7022 16.8197 63.2125 17.9028 63.0186 18.0004C62.9309 18.0545 62.83 18.0832 62.7271 18.0835" fill="#F0C0AF"/>
<path d="M56.4415 27.7506C56.1791 28.287 55.6821 28.8133 55.1121 28.4634C52.876 27.0874 50.6895 24.3469 50.6895 24.3469C50.6964 24.1201 50.7458 23.8966 50.8352 23.688C50.9265 23.4821 51.0675 23.302 51.2456 23.1641C51.4237 23.0262 51.6334 22.9347 51.8556 22.8979L56.1004 26.4839L56.5377 26.8614L56.6004 26.9154C56.6995 27.0014 56.6281 27.3789 56.4415 27.7506Z" fill="#C67C4F"/>
<path d="M56.4416 27.7511L57.1063 21.9946L56.0859 28.2846L56.4416 27.7511Z" fill="url(#paint22_linear_2515_12146)"/>
<path d="M50.8353 53.7806C50.2755 53.9701 49.7012 54.1669 49.242 54.5401C49.1621 54.5941 49.1037 54.6746 49.0773 54.7675C49.0525 54.9132 49.1808 55.0444 49.3062 55.129C50.1575 55.712 51.2639 55.7237 52.2959 55.712C52.8367 55.712 53.43 55.6785 53.825 55.3112C54.1574 55.0007 54.2623 54.5269 54.3527 54.0823C54.365 54.0382 54.3679 53.9921 54.3615 53.9468C54.3265 53.782 54.1034 53.7675 53.9358 53.7718C53.3527 53.7893 53.0145 53.4249 52.5029 53.3185C52.0146 53.215 51.2959 53.6261 50.8353 53.7806Z" fill="#C67C4F"/>
<path d="M62.4748 54.6785C62.001 55.0342 61.5185 55.4074 61.1993 55.9015C61.1401 55.9775 61.1101 56.0721 61.1147 56.1683C61.138 56.3141 61.2999 56.3972 61.4456 56.4394C62.4369 56.731 63.4864 56.3884 64.4674 56.0517C64.9776 55.8768 65.533 55.6639 65.7925 55.1902C66.0097 54.7922 65.9616 54.3083 65.9076 53.8579C65.905 53.8122 65.8931 53.7676 65.8726 53.7267C65.7881 53.5809 65.5709 53.6377 65.4135 53.6961C64.861 53.8958 64.4295 53.6552 63.9106 53.715C63.4164 53.7704 62.8625 54.387 62.4748 54.6785Z" fill="#C67C4F"/>
<path d="M50.8353 53.7806C50.2755 53.9701 49.7012 54.1669 49.242 54.5401C49.1621 54.5941 49.1037 54.6746 49.0773 54.7675C49.0525 54.9132 49.1808 55.0444 49.3062 55.129C50.1575 55.712 51.2639 55.7237 52.2959 55.712C52.8367 55.712 53.43 55.6785 53.825 55.3112C54.1574 55.0007 54.2623 54.5269 54.3527 54.0823C54.365 54.0382 54.3679 53.9921 54.3615 53.9468C54.3265 53.782 54.1034 53.7675 53.9358 53.7718C53.3527 53.7893 53.0145 53.4249 52.5029 53.3185C52.0146 53.215 51.2959 53.6261 50.8353 53.7806Z" fill="url(#paint23_linear_2515_12146)"/>
<path d="M62.4748 54.6785C62.001 55.0342 61.5185 55.4074 61.1993 55.9015C61.1401 55.9775 61.1101 56.0721 61.1147 56.1683C61.138 56.3141 61.2999 56.3972 61.4456 56.4394C62.4369 56.731 63.4864 56.3884 64.4674 56.0517C64.9776 55.8768 65.533 55.6639 65.7925 55.1902C66.0097 54.7922 65.9616 54.3083 65.9076 53.8579C65.905 53.8122 65.8931 53.7676 65.8726 53.7267C65.7881 53.5809 65.5709 53.6377 65.4135 53.6961C64.861 53.8958 64.4295 53.6552 63.9106 53.715C63.4164 53.7704 62.8625 54.387 62.4748 54.6785Z" fill="url(#paint24_linear_2515_12146)"/>
<path d="M67.6336 16.7074C67.7108 17.6739 65.1672 21.8327 64.689 22.7364C64.6599 22.7889 64.6264 22.8414 64.5928 22.8939C64.0812 27.0687 63.2401 33.1065 63.173 33.4942L62.1016 42.0188L61.1702 38.7725L61.6862 33.8674L61.743 33.2843C61.743 33.2843 62.45 26.2757 63.7619 22.5192C63.9733 21.9128 64.1993 21.5193 64.8698 20.5674C66.0039 18.9493 67.1613 17.0952 67.0155 16.4377C66.7488 15.1564 66.2327 11.709 66.2327 11.709L66.9208 11.8052C66.9586 11.8349 66.9869 11.8749 67.0024 11.9203C67.0024 11.9203 67.5476 15.5894 67.6336 16.7074Z" fill="url(#paint25_linear_2515_12146)"/>
<path d="M56.6803 25.5611L56.5346 26.8614L56.434 27.7506C56.1716 28.287 55.6745 28.8132 55.1046 28.4634C52.8757 27.0873 50.6892 24.3469 50.6892 24.3469C50.6961 24.1201 50.7456 23.8966 50.835 23.688C51.2271 24.0466 54.9034 27.4459 55.2008 27.4882C55.3626 27.5115 55.7591 26.9911 56.0987 26.4838C56.4136 26.0159 56.6803 25.5611 56.6803 25.5611Z" fill="url(#paint26_linear_2515_12146)"/>
<defs>
<linearGradient id="paint0_linear_2515_12146" x1="50.8919" y1="45.4456" x2="47.4809" y2="98.0334" gradientUnits="userSpaceOnUse">
<stop stop-color="#010101" stop-opacity="0"/>
<stop offset="0.95" stop-color="#010101"/>
</linearGradient>
<linearGradient id="paint1_linear_2515_12146" x1="30.9945" y1="35.6995" x2="31.3356" y2="55.4993" gradientUnits="userSpaceOnUse">
<stop stop-color="#010101" stop-opacity="0"/>
<stop offset="0.95" stop-color="#010101"/>
</linearGradient>
<linearGradient id="paint2_linear_2515_12146" x1="20.7207" y1="40.2596" x2="19.123" y2="54.9808" gradientUnits="userSpaceOnUse">
<stop stop-color="#010101" stop-opacity="0"/>
<stop offset="0.95" stop-color="#010101"/>
</linearGradient>
<linearGradient id="paint3_linear_2515_12146" x1="29.8705" y1="15.0746" x2="31.0687" y2="67.1128" gradientUnits="userSpaceOnUse">
<stop stop-color="#010101" stop-opacity="0"/>
<stop offset="0.95" stop-color="#010101"/>
</linearGradient>
<linearGradient id="paint4_linear_2515_12146" x1="16.1667" y1="21.4653" x2="43.8964" y2="21.4653" gradientUnits="userSpaceOnUse">
<stop stop-color="#010101" stop-opacity="0"/>
<stop offset="0.95" stop-color="#010101"/>
</linearGradient>
<linearGradient id="paint5_linear_2515_12146" x1="30.5365" y1="21.6633" x2="30.8791" y2="41.4632" gradientUnits="userSpaceOnUse">
<stop stop-color="#010101" stop-opacity="0"/>
<stop offset="0.95" stop-color="#010101"/>
</linearGradient>
<linearGradient id="paint6_linear_2515_12146" x1="30.5365" y1="25.2012" x2="30.8791" y2="45.001" gradientUnits="userSpaceOnUse">
<stop stop-color="#010101" stop-opacity="0"/>
<stop offset="0.95" stop-color="#010101"/>
</linearGradient>
<linearGradient id="paint7_linear_2515_12146" x1="30.5365" y1="28.7393" x2="30.8791" y2="48.5391" gradientUnits="userSpaceOnUse">
<stop stop-color="#010101" stop-opacity="0"/>
<stop offset="0.95" stop-color="#010101"/>
</linearGradient>
<linearGradient id="paint8_linear_2515_12146" x1="30.5365" y1="32.2766" x2="30.8791" y2="52.0765" gradientUnits="userSpaceOnUse">
<stop stop-color="#010101" stop-opacity="0"/>
<stop offset="0.95" stop-color="#010101"/>
</linearGradient>
<linearGradient id="paint9_linear_2515_12146" x1="25.2876" y1="20.146" x2="27.0879" y2="20.146" gradientUnits="userSpaceOnUse">
<stop stop-color="#010101" stop-opacity="0"/>
<stop offset="0.95" stop-color="#010101"/>
</linearGradient>
<linearGradient id="paint10_linear_2515_12146" x1="33.1592" y1="20.146" x2="34.958" y2="20.146" gradientUnits="userSpaceOnUse">
<stop stop-color="#010101" stop-opacity="0"/>
<stop offset="0.95" stop-color="#010101"/>
</linearGradient>
<linearGradient id="paint11_linear_2515_12146" x1="30.5019" y1="7.98276" x2="29.327" y2="36.4005" gradientUnits="userSpaceOnUse">
<stop stop-color="#010101" stop-opacity="0"/>
<stop offset="0.95" stop-color="#010101"/>
</linearGradient>
<linearGradient id="paint12_linear_2515_12146" x1="34.1288" y1="8.12823" x2="32.9524" y2="36.5824" gradientUnits="userSpaceOnUse">
<stop stop-color="#010101" stop-opacity="0"/>
<stop offset="0.95" stop-color="#010101"/>
</linearGradient>
<linearGradient id="paint13_linear_2515_12146" x1="34.2687" y1="8.36457" x2="33.1433" y2="35.568" gradientUnits="userSpaceOnUse">
<stop stop-color="#010101" stop-opacity="0"/>
<stop offset="0.95" stop-color="#010101"/>
</linearGradient>
<linearGradient id="paint14_linear_2515_12146" x1="26.5194" y1="7.81659" x2="25.343" y2="36.2562" gradientUnits="userSpaceOnUse">
<stop stop-color="#010101" stop-opacity="0"/>
<stop offset="0.95" stop-color="#010101"/>
</linearGradient>
<linearGradient id="paint15_linear_2515_12146" x1="26.6126" y1="8.17675" x2="25.582" y2="33.1193" gradientUnits="userSpaceOnUse">
<stop stop-color="#010101" stop-opacity="0"/>
<stop offset="0.95" stop-color="#010101"/>
</linearGradient>
<linearGradient id="paint16_linear_2515_12146" x1="30.3954" y1="7.9783" x2="29.2205" y2="36.396" gradientUnits="userSpaceOnUse">
<stop stop-color="#010101" stop-opacity="0"/>
<stop offset="0.95" stop-color="#010101"/>
</linearGradient>
<linearGradient id="paint17_linear_2515_12146" x1="35.5019" y1="3.80636" x2="34.276" y2="28.0332" gradientUnits="userSpaceOnUse">
<stop stop-color="#010101" stop-opacity="0"/>
<stop offset="0.95" stop-color="#010101"/>
</linearGradient>
<linearGradient id="paint18_linear_2515_12146" x1="36.2088" y1="3.84317" x2="34.9814" y2="28.07" gradientUnits="userSpaceOnUse">
<stop stop-color="#010101" stop-opacity="0"/>
<stop offset="0.95" stop-color="#010101"/>
</linearGradient>
<linearGradient id="paint19_linear_2515_12146" x1="36.8967" y1="3.87786" x2="35.6694" y2="28.1047" gradientUnits="userSpaceOnUse">
<stop stop-color="#010101" stop-opacity="0"/>
<stop offset="0.95" stop-color="#010101"/>
</linearGradient>
<linearGradient id="paint20_linear_2515_12146" x1="56.195" y1="49.3161" x2="69.1189" y2="30.1095" gradientUnits="userSpaceOnUse">
<stop stop-color="#010101" stop-opacity="0"/>
<stop offset="0.95" stop-color="#010101"/>
</linearGradient>
<linearGradient id="paint21_linear_2515_12146" x1="61.2387" y1="16.4299" x2="63.8976" y2="14.7813" gradientUnits="userSpaceOnUse">
<stop stop-color="#010101" stop-opacity="0"/>
<stop offset="0.95" stop-color="#010101"/>
</linearGradient>
<linearGradient id="paint22_linear_2515_12146" x1="55.9125" y1="25.0325" x2="64.7548" y2="26.4158" gradientUnits="userSpaceOnUse">
<stop stop-color="#010101" stop-opacity="0"/>
<stop offset="0.95" stop-color="#010101"/>
</linearGradient>
<linearGradient id="paint23_linear_2515_12146" x1="50.7347" y1="48.2734" x2="54.6836" y2="72.8618" gradientUnits="userSpaceOnUse">
<stop stop-color="#010101" stop-opacity="0"/>
<stop offset="0.95" stop-color="#010101"/>
</linearGradient>
<linearGradient id="paint24_linear_2515_12146" x1="62.1351" y1="46.4426" x2="66.084" y2="71.0309" gradientUnits="userSpaceOnUse">
<stop stop-color="#010101" stop-opacity="0"/>
<stop offset="0.95" stop-color="#010101"/>
</linearGradient>
<linearGradient id="paint25_linear_2515_12146" x1="56.3802" y1="26.4681" x2="97.6387" y2="28.5555" gradientUnits="userSpaceOnUse">
<stop stop-color="#010101" stop-opacity="0"/>
<stop offset="0.95" stop-color="#010101"/>
</linearGradient>
<linearGradient id="paint26_linear_2515_12146" x1="44.513" y1="25.6952" x2="91.1227" y2="28.0523" gradientUnits="userSpaceOnUse">
<stop stop-color="#010101" stop-opacity="0"/>
<stop offset="0.95" stop-color="#010101"/>
</linearGradient>
</defs>
</svg>
