<?xml version="1.0" standalone="no"?>
<!DOCTYPE svg PUBLIC "-//W3C//DTD SVG 20010904//EN"
 "http://www.w3.org/TR/2001/REC-SVG-20010904/DTD/svg10.dtd">
<svg version="1.0" xmlns="http://www.w3.org/2000/svg"
 width="45.000000pt" height="45.000000pt" viewBox="0 0 45.000000 45.000000"
 preserveAspectRatio="xMidYMid meet">

<g transform="translate(0.000000,45.000000) scale(0.100000,-0.100000)"
fill="#000000" stroke="none">
<path d="M220 408 c0 -22 -10 -42 -32 -65 l-32 -33 69 0 69 0 -33 34 c-36 37
-37 66 -1 66 11 0 20 7 20 15 0 10 -10 15 -30 15 -27 0 -30 -3 -30 -32z m15
-68 c3 -5 -1 -10 -10 -10 -9 0 -13 5 -10 10 3 6 8 10 10 10 2 0 7 -4 10 -10z"/>
<path d="M183 235 c-10 -11 -10 -15 0 -19 9 -3 8 -7 -3 -15 -9 -7 -10 -11 -3
-11 6 0 14 -12 16 -27 l4 -28 2 28 c1 35 18 35 24 0 l4 -28 2 28 c0 15 5 27
10 27 5 0 12 -12 14 -27 l4 -28 2 28 c0 15 7 27 14 27 8 0 7 4 -3 10 -11 7
-12 12 -4 18 9 5 8 10 -1 19 -11 10 -15 10 -19 0 -5 -9 -8 -9 -12 2 -5 11 -8
11 -15 0 -7 -10 -11 -11 -16 -3 -6 9 -11 8 -20 -1z m37 -25 c0 -5 -4 -10 -10
-10 -5 0 -10 5 -10 10 0 6 5 10 10 10 6 0 10 -4 10 -10z m30 0 c0 -5 -4 -10
-10 -10 -5 0 -10 5 -10 10 0 6 5 10 10 10 6 0 10 -4 10 -10z"/>
<path d="M48 233 c17 -2 47 -2 65 0 17 2 3 4 -33 4 -36 0 -50 -2 -32 -4z"/>
<path d="M338 233 c17 -2 47 -2 65 0 17 2 3 4 -33 4 -36 0 -50 -2 -32 -4z"/>
<path d="M68 193 c15 -6 17 -103 2 -103 -7 0 -6 -5 2 -13 9 -10 16 -11 24 -3
7 6 8 13 3 14 -14 6 -11 100 4 105 6 3 -1 5 -18 5 -16 0 -24 -2 -17 -5z"/>
<path d="M348 193 c15 -6 17 -103 2 -103 -7 0 -6 -5 2 -13 9 -10 16 -11 24 -3
7 6 8 13 3 14 -14 6 -11 100 4 105 6 3 -1 5 -18 5 -16 0 -24 -2 -17 -5z"/>
<path d="M222 68 l-2 -47 -107 -4 c-60 -1 -9 -3 112 -3 121 0 172 2 113 3
l-107 4 -4 47 -3 47 -2 -47z"/>
</g>
</svg>
