<?xml version="1.0" standalone="no"?>
<!DOCTYPE svg PUBLIC "-//W3C//DTD SVG 20010904//EN"
 "http://www.w3.org/TR/2001/REC-SVG-20010904/DTD/svg10.dtd">
<svg version="1.0" xmlns="http://www.w3.org/2000/svg"
 width="197.000000pt" height="195.000000pt" viewBox="0 0 197.000000 195.000000"
 preserveAspectRatio="xMidYMid meet">

<g transform="translate(0.000000,195.000000) scale(0.100000,-0.100000)"
fill="#000000" stroke="none">
<path d="M775 1905 c-71 -19 -142 -38 -157 -41 -42 -10 -51 -64 -10 -64 9 0
77 16 151 37 l135 36 160 -41 c383 -100 620 -163 628 -168 25 -16 0 -32 -79
-52 -49 -13 -150 -39 -225 -59 l-137 -36 -84 77 c-81 73 -85 78 -89 127 -7 66
-41 103 -94 103 -57 0 -84 -38 -84 -118 0 -78 12 -91 89 -92 53 -1 59 -4 114
-54 31 -29 57 -55 57 -59 0 -10 -130 -41 -171 -41 -33 0 -184 36 -439 104 -69
18 -181 48 -250 66 -69 18 -129 36 -133 40 -4 4 67 26 157 50 91 23 170 48
176 55 15 18 1 45 -24 45 -41 -1 -337 -86 -356 -103 -25 -21 -26 -69 -2 -90
10 -9 106 -40 213 -68 107 -28 195 -52 196 -53 2 -2 -4 -22 -11 -47 -8 -24
-26 -83 -41 -131 l-26 -88 -47 0 c-77 0 -121 -18 -172 -69 -37 -37 -50 -59
-59 -99 -15 -72 2 -144 47 -194 14 -17 11 -18 -46 -18 -50 0 -66 -4 -88 -24
-48 -40 -35 -115 23 -137 20 -7 23 -16 23 -58 0 -44 -3 -49 -25 -55 -14 -3
-32 -20 -40 -37 -22 -41 -11 -86 25 -108 l29 -17 -29 -42 c-65 -98 -40 -227
59 -297 l43 -30 831 -3 c458 -1 842 0 855 3 13 3 30 20 39 40 16 33 16 37 0
70 -10 21 -26 37 -42 41 -22 6 -25 11 -25 55 0 42 3 49 27 61 58 28 65 101 13
140 l-28 20 24 35 c64 94 53 193 -29 277 -28 28 -49 56 -48 61 7 24 1 68 -11
82 -7 9 -28 22 -45 30 -30 12 -33 17 -33 58 0 39 3 45 20 45 12 0 32 11 45 25
34 33 34 87 0 120 -23 24 -30 25 -139 25 l-115 0 -36 118 c-20 64 -38 124 -41
133 -3 12 33 25 193 68 208 54 233 67 233 117 0 13 -9 32 -20 41 -11 9 -93 36
-182 60 -90 24 -257 68 -373 99 -278 75 -337 79 -520 29z m225 -190 c0 -41 -2
-45 -25 -45 -22 0 -25 4 -25 38 0 43 5 52 32 52 15 0 18 -8 18 -45z m255 -485
c8 -16 18 -57 22 -90 l6 -60 -52 0 c-57 0 -56 -2 -40 86 18 98 37 117 64 64z
m-127 -72 l-3 -23 -395 -5 c-426 -5 -427 -6 -455 -60 -19 -37 -19 -54 1 -95
32 -67 7 -65 772 -65 577 0 691 -2 695 -14 3 -7 0 -19 -6 -25 -15 -15 -1355
-16 -1409 -1 -79 22 -132 115 -109 191 6 20 21 49 33 64 42 53 50 54 481 55
l398 0 -3 -22z m616 13 c4 -5 3 -16 0 -25 -5 -14 -32 -16 -205 -16 -114 0
-199 4 -199 9 0 5 -3 16 -6 25 -5 14 16 16 199 16 113 0 208 -4 211 -9z m-616
-126 c12 -25 14 -26 104 -23 85 3 94 5 103 26 10 21 14 22 165 22 l156 0 1
-50 1 -50 -651 0 c-591 0 -652 2 -669 17 -22 20 -23 46 -2 67 13 14 64 16 398
16 l383 0 11 -25z m653 -268 c57 -38 81 -84 77 -143 -9 -109 -75 -153 -230
-154 -98 0 -98 0 -98 -25 l0 -25 154 0 c124 0 156 -3 166 -15 7 -8 10 -22 6
-30 -5 -13 -85 -15 -661 -15 l-655 0 0 30 0 30 446 0 445 0 -3 23 -3 22 -442
3 -443 2 0 30 0 30 598 0 c663 0 629 -3 658 66 14 33 12 48 -9 92 -26 53 -3
52 -871 52 -550 0 -807 3 -811 10 -4 6 -4 17 -1 25 5 13 118 15 824 15 l819 0
34 -23z m-1431 -137 l0 -50 -85 0 -85 0 0 50 0 50 85 0 85 0 0 -50z m130 -113
l0 -163 -35 -17 -35 -17 0 180 0 180 35 0 35 0 0 -163z m1265 129 c8 -24 6
-31 -14 -47 -22 -18 -49 -19 -607 -19 l-584 0 0 50 0 50 597 -2 598 -3 10 -29z
m-1395 -146 l0 -31 -122 3 c-111 3 -123 5 -126 22 -6 30 16 36 136 36 l112 0
0 -30z m-2 -112 c3 -28 3 -28 -53 -28 -61 0 -108 -19 -125 -49 -5 -11 -10 -39
-10 -64 0 -34 6 -49 26 -68 l26 -24 821 -5 c794 -5 822 -6 825 -24 2 -10 -2
-22 -10 -27 -7 -5 -373 -9 -813 -9 -759 0 -802 1 -841 19 -53 24 -86 71 -92
131 -10 106 76 182 203 177 36 -2 40 -5 43 -29z m2 -117 c0 -16 6 -31 13 -34
6 -2 42 11 79 29 l68 34 635 0 635 0 0 -50 0 -50 -763 0 c-674 0 -765 2 -785
16 -24 17 -28 35 -12 65 9 15 22 19 70 19 60 0 60 0 60 -29z"/>
</g>
</svg>
