<?xml version="1.0" standalone="no"?>
<!DOCTYPE svg PUBLIC "-//W3C//DTD SVG 20010904//EN"
 "http://www.w3.org/TR/2001/REC-SVG-20010904/DTD/svg10.dtd">
<svg version="1.0" xmlns="http://www.w3.org/2000/svg"
 width="173.000000pt" height="174.000000pt" viewBox="0 0 173.000000 174.000000"
 preserveAspectRatio="xMidYMid meet">

<g transform="translate(0.000000,174.000000) scale(0.100000,-0.100000)"
fill="#000000" stroke="none">
<path d="M600 1561 c-157 -101 -216 -144 -218 -160 -4 -24 25 -30 46 -9 9 9
12 3 12 -30 l0 -42 -124 0 c-160 0 -159 1 -191 -144 -33 -143 -32 -160 5 -188
30 -22 30 -22 30 -125 l0 -103 -40 0 c-52 0 -93 -21 -108 -55 -8 -17 -12 -84
-12 -191 0 -192 9 -226 66 -244 19 -6 34 -13 34 -15 0 -1 -7 -16 -15 -31 -23
-44 -20 -165 4 -195 l19 -24 509 -3 c427 -2 511 0 528 12 16 12 17 16 6 30
-12 14 -67 16 -522 16 l-509 0 0 30 0 30 730 0 730 0 0 -30 0 -30 -159 0 c-88
0 -166 -3 -175 -6 -25 -10 -19 -43 8 -50 14 -3 94 -4 179 -2 195 4 197 5 197
120 0 49 -5 90 -14 107 -14 27 -14 28 20 40 57 21 64 46 64 246 0 102 -4 184
-10 196 -15 27 -63 49 -110 49 l-40 0 0 105 c0 102 1 106 25 117 42 19 45 51
15 180 -15 68 -34 126 -45 138 -16 18 -30 20 -147 20 l-128 0 0 35 c0 33 1 34
29 29 33 -7 49 9 31 31 -6 8 -107 75 -224 150 -170 108 -220 135 -247 134 -26
0 -85 -33 -249 -138z m436 -19 l169 -107 3 -58 3 -57 -86 0 c-85 0 -85 0 -165
50 -46 29 -91 50 -108 50 -16 0 -62 -21 -109 -50 -81 -50 -82 -50 -168 -50
l-86 0 3 57 3 56 170 108 c94 60 177 109 186 109 9 0 92 -48 185 -108z m-1
-280 l170 -109 3 -196 2 -197 -60 0 -60 0 0 120 0 120 -237 -2 -238 -3 -3
-117 -3 -118 -59 0 -59 0 -3 48 c-3 39 -6 47 -23 47 -17 0 -20 -8 -23 -47 l-3
-48 -115 0 -114 0 0 105 0 105 114 0 c107 0 114 -1 119 -21 4 -13 12 -20 24
-17 16 3 19 17 23 110 3 58 7 109 10 112 20 19 338 215 350 216 8 0 92 -49
185 -108z m-511 -31 c-34 -21 -65 -45 -70 -52 -5 -8 -11 -45 -14 -84 l-5 -70
-130 -3 c-72 -1 -136 2 -144 7 -12 8 -12 21 3 91 10 44 22 97 27 116 l10 34
192 0 192 0 -61 -39z m1005 -72 c13 -59 21 -114 18 -123 -6 -14 -24 -16 -144
-14 l-138 3 -5 71 c-6 80 -12 90 -81 134 -27 18 -49 34 -49 36 0 3 84 3 187 2
l188 -3 24 -106z m-39 -294 l0 -105 -115 0 -115 0 0 105 0 105 115 0 115 0 0
-105z m-670 20 l0 -65 -80 0 -80 0 0 65 0 65 80 0 80 0 0 -65z m220 0 l0 -65
-80 0 -80 0 0 65 0 65 80 0 80 0 0 -65z m594 -191 c24 -23 24 -345 0 -368 -14
-14 -98 -16 -777 -16 -674 0 -765 2 -785 16 -21 15 -22 21 -22 184 0 140 3
171 16 184 14 14 99 16 784 16 685 0 770 -2 784 -16z m-85 -465 c63 -62 103
-59 -699 -59 -524 0 -730 3 -730 11 0 6 15 26 34 45 l34 34 665 0 665 0 31
-31z"/>
<path d="M207 602 c-37 -40 -16 -85 51 -112 41 -16 43 -40 3 -40 -17 0 -33 5
-36 10 -11 18 -45 11 -45 -9 0 -45 91 -68 138 -35 18 12 22 24 20 52 -3 33 -9
40 -50 62 -27 14 -48 29 -48 34 0 4 20 5 44 2 54 -8 70 8 36 36 -29 24 -92 24
-113 0z"/>
<path d="M424 586 c-28 -28 -34 -42 -34 -76 0 -34 6 -48 34 -76 28 -28 41 -34
78 -34 47 0 78 21 78 53 0 19 -35 24 -45 7 -10 -17 -61 -11 -78 8 -23 25 -21
65 3 87 15 14 29 16 65 12 37 -6 47 -4 52 10 9 24 -24 43 -75 43 -37 0 -50 -6
-78 -34z"/>
<path d="M634 607 c-3 -8 -3 -56 -2 -108 3 -86 5 -94 23 -94 16 0 21 8 23 43
3 41 4 42 38 42 31 0 34 -3 34 -29 0 -42 9 -61 30 -61 25 0 30 19 30 110 0 91
-5 110 -30 110 -20 0 -30 -19 -30 -56 0 -21 -5 -24 -35 -24 -34 0 -35 1 -35
40 0 34 -3 40 -20 40 -11 0 -23 -6 -26 -13z"/>
<path d="M897 600 c-30 -24 -47 -74 -40 -114 3 -15 19 -40 35 -56 24 -24 38
-30 75 -30 84 0 140 89 102 163 -30 59 -120 78 -172 37z m115 -47 c38 -34 11
-103 -41 -103 -60 1 -86 59 -48 108 14 17 67 15 89 -5z"/>
<path d="M1170 591 c-52 -51 -52 -111 0 -162 23 -24 37 -29 75 -29 40 0 52 5
81 34 28 28 34 42 34 76 0 34 -6 48 -34 76 -29 29 -41 34 -81 34 -38 0 -52 -5
-75 -29z m122 -38 c40 -36 9 -103 -47 -103 -35 0 -65 28 -65 60 0 9 7 26 16
38 18 27 69 30 96 5z"/>
<path d="M1414 607 c-3 -8 -3 -56 -2 -108 l3 -94 53 -3 c51 -3 53 -2 50 20 -2
17 -11 24 -30 26 l-28 3 0 85 c0 78 -2 84 -20 84 -11 0 -23 -6 -26 -13z"/>
</g>
</svg>
