<?xml version="1.0" standalone="no"?>
<!DOCTYPE svg PUBLIC "-//W3C//DTD SVG 20010904//EN"
 "http://www.w3.org/TR/2001/REC-SVG-20010904/DTD/svg10.dtd">
<svg version="1.0" xmlns="http://www.w3.org/2000/svg"
 width="179.000000pt" height="176.000000pt" viewBox="0 0 179.000000 176.000000"
 preserveAspectRatio="xMidYMid meet">

<g transform="translate(0.000000,176.000000) scale(0.100000,-0.100000)"
fill="#000000" stroke="none">
<path d="M876 1588 c-13 -18 -16 -53 -16 -170 l0 -147 34 2 c25 2 57 20 118
68 46 36 89 69 96 73 13 8 42 -9 42 -25 0 -5 -40 -40 -89 -79 -57 -44 -96 -84
-108 -108 -25 -52 -43 -51 -73 3 -13 25 -27 45 -29 45 -2 0 -24 -11 -48 -25
l-43 -26 0 48 c0 69 -16 115 -50 148 -25 24 -41 30 -90 33 -59 4 -60 4 -70
-24 -6 -16 -19 -47 -29 -69 l-18 -40 -1 40 c-1 22 -2 52 -2 68 -1 23 -5 27
-30 27 -33 0 -35 -3 -20 -30 7 -13 7 -21 0 -25 -5 -3 -10 -23 -11 -43 0 -35
-1 -33 -26 31 l-25 67 -44 0 c-61 0 -110 -23 -134 -62 -18 -30 -20 -50 -20
-240 l0 -208 55 0 55 0 2 198 c2 123 7 197 13 197 6 0 11 -105 13 -291 l2
-290 39 -17 c47 -21 76 -72 66 -118 -9 -39 -48 -85 -80 -93 -14 -4 -25 -13
-25 -21 0 -12 14 -15 65 -15 l65 0 0 210 c0 180 2 210 15 210 13 0 15 -30 15
-214 l0 -214 24 -6 c20 -5 23 -12 23 -46 0 -31 7 -48 29 -71 15 -16 34 -29 41
-29 7 0 13 -11 13 -25 0 -24 -2 -25 -75 -25 -133 0 -175 -41 -175 -172 l0 -78
50 0 50 0 0 64 c0 44 5 67 15 76 13 11 15 3 15 -64 l0 -76 140 0 139 0 3 72
c3 71 20 98 26 41 1 -15 5 -47 8 -70 l5 -43 43 0 c41 0 44 2 50 31 10 51 7 97
-8 134 l-15 35 34 0 c19 0 50 11 74 27 39 25 41 29 41 76 0 43 2 48 15 37 9
-7 15 -29 15 -51 l0 -39 50 0 c44 0 50 2 50 21 0 12 -13 37 -30 56 -22 25 -30
44 -30 73 0 28 -5 40 -17 44 -10 3 -91 4 -181 4 -150 -1 -164 0 -185 19 -30
27 -61 43 -86 43 -21 0 -21 2 -21 400 0 228 4 400 9 400 16 0 21 -31 21 -140
0 -155 18 -169 133 -100 36 22 68 40 71 40 4 0 6 -14 6 -31 0 -17 5 -39 10
-50 10 -18 25 -19 395 -19 370 0 385 1 395 19 6 12 10 120 10 280 0 223 -2
262 -16 275 -13 14 -63 16 -389 16 l-374 0 -15 -22z m-126 -1278 c0 -27 -4
-50 -10 -50 -11 0 -14 83 -3 93 12 12 13 8 13 -43z"/>
<path d="M1407 700 c-30 -24 -50 -78 -42 -113 11 -42 61 -82 104 -82 105 0
156 131 74 195 -34 27 -101 27 -136 0z"/>
<path d="M1449 449 c15 -6 34 -6 50 0 22 8 19 9 -24 10 -42 0 -46 -2 -26 -10z"/>
<path d="M1640 235 c0 -24 3 -25 55 -25 52 0 55 1 55 25 0 24 -3 25 -55 25
-52 0 -55 -1 -55 -25z"/>
</g>
</svg>
