<svg width="77" height="64" viewBox="0 0 77 64" fill="none" xmlns="http://www.w3.org/2000/svg">
<path opacity="0.18" d="M32.3959 4.23688C25.5837 8.93013 21.5209 17.047 14.481 21.4469C11.5827 23.2813 8.25979 24.3846 5.56292 26.4861C-4.47155 34.3096 0.173552 52.5047 10.7246 57.7015C15.825 60.2188 21.8186 59.6234 27.5056 59.7154C31.5786 59.7757 35.6371 60.2155 39.6284 61.0288C46.6333 62.4648 54.0234 65.0216 60.643 62.3422C64.0798 60.9587 65.7478 58.3232 68.3309 55.9678C71.0522 53.5574 73.1951 50.5645 74.6002 47.2117C76.3514 42.9694 76.9775 38.333 76.9994 33.7449C77.03 27.5587 75.9443 21.2981 73.2386 15.7336C70.533 10.1691 66.1243 5.33577 60.5423 2.68267C57.0269 1.09049 53.2349 0.19827 49.3783 0.0558514C43.9058 -0.246233 38.2406 0.646887 33.5473 3.4751C33.1446 3.72027 32.7549 3.96982 32.3959 4.23688Z" fill="#17CF97"/>
<path d="M68.0855 34.0816C68.0855 45.3594 64.3598 54.5052 59.7673 54.5052C59.3645 54.5052 57.4425 54.6365 57.0572 54.5052C53.0251 53.0954 51.449 44.3744 51.449 34.0816C51.449 23.5349 52.8412 14.7438 57.0178 13.6581C57.3068 13.5793 59.4695 13.6581 59.7673 13.6581C64.3554 13.6493 68.0855 22.7994 68.0855 34.0816Z" fill="#17CF97"/>
<path d="M68.0855 34.0816C68.0855 45.3594 64.3598 54.5052 59.7673 54.5052C59.3645 54.5052 57.4425 54.6365 57.0572 54.5052C53.0251 53.0954 51.449 44.3744 51.449 34.0816C51.449 23.5349 52.8412 14.7438 57.0178 13.6581C57.3068 13.5793 59.4695 13.6581 59.7673 13.6581C64.3554 13.6493 68.0855 22.7994 68.0855 34.0816Z" fill="url(#paint0_linear_2515_12267)"/>
<path d="M57.4076 54.5011C62.0017 54.5011 65.7259 45.3572 65.7259 34.0776C65.7259 22.798 62.0017 13.6541 57.4076 13.6541C52.8136 13.6541 49.0894 22.798 49.0894 34.0776C49.0894 45.3572 52.8136 54.5011 57.4076 54.5011Z" fill="#17CF97"/>
<path d="M57.0049 50.6441C60.7285 50.6441 63.7471 43.2329 63.7471 34.0907C63.7471 24.9485 60.7285 17.5374 57.0049 17.5374C53.2813 17.5374 50.2627 24.9485 50.2627 34.0907C50.2627 43.2329 53.2813 50.6441 57.0049 50.6441Z" fill="url(#paint1_linear_2515_12267)"/>
<path d="M57.0049 46.1697C59.7226 46.1697 61.9258 40.7618 61.9258 34.0907C61.9258 27.4197 59.7226 22.0117 57.0049 22.0117C54.2872 22.0117 52.084 27.4197 52.084 34.0907C52.084 40.7618 54.2872 46.1697 57.0049 46.1697Z" fill="#17CF97"/>
<path d="M57.0048 42.1114C58.8086 42.1114 60.2708 38.5205 60.2708 34.0909C60.2708 29.6612 58.8086 26.0703 57.0048 26.0703C55.201 26.0703 53.7388 29.6612 53.7388 34.0909C53.7388 38.5205 55.201 42.1114 57.0048 42.1114Z" fill="url(#paint2_linear_2515_12267)"/>
<path d="M57.0048 38.2894C57.9478 38.2894 58.7122 36.4097 58.7122 34.0909C58.7122 31.7721 57.9478 29.8923 57.0048 29.8923C56.0618 29.8923 55.2974 31.7721 55.2974 34.0909C55.2974 36.4097 56.0618 38.2894 57.0048 38.2894Z" fill="#17CF97"/>
<path opacity="0.36" d="M49.3654 39.3225L52.2286 37.0197V38.1711L57.8719 34.0776L51.3574 35.0933L52.2549 35.8157L49.2122 37.5888L49.3654 39.3225Z" fill="url(#paint3_linear_2515_12267)"/>
<path d="M10.1423 30.5005H14.8137L18.4431 33.2455H55.4901L56.4138 34.6202H18.6445L15.6193 38.289H11.0792L13.1982 35.3251V34.1343L10.1423 30.5005Z" fill="#17CF97"/>
<path d="M13.3078 33.9595H17.9791H18.6402H55.6872L56.4139 34.6206H18.6446L15.6194 38.2894H11.0793L13.1983 35.3254V34.1346L13.3078 33.9595Z" fill="url(#paint4_linear_2515_12267)"/>
<path d="M53.7869 33.2461L52.8281 31.8101L57.8716 34.0779L52.7625 36.1093L53.7388 34.091L53.7869 33.2461Z" fill="#17CF97"/>
<path d="M53.7869 33.2461L52.8281 31.8101L57.8716 34.0779L52.7625 36.1093L53.7388 34.091L53.7869 33.2461Z" fill="url(#paint5_linear_2515_12267)"/>
<path d="M57.8716 34.0776L53.7388 34.0908L52.7625 36.109L57.8716 34.0776Z" fill="url(#paint6_linear_2515_12267)"/>
<path d="M12.7166 33.5651H18.4431L14.8137 30.5005H10.1423L12.7166 33.5651Z" fill="url(#paint7_linear_2515_12267)"/>
<path d="M37.991 15.1074L36.7739 19.503C36.6564 19.8343 36.6564 20.1961 36.7739 20.5274C36.9996 20.8699 37.3444 21.1165 37.7415 21.2192C39.7056 22.0396 41.338 23.4947 42.3778 25.352C42.067 24.7916 43.827 22.8434 44.0327 22.375C44.5756 21.1622 44.0327 20.7376 43.2272 19.7175C41.7386 17.9094 40.0837 16.1932 37.991 15.1074Z" fill="white"/>
<path d="M24.2397 46.8394L31.3234 47.9426C31.6472 48.033 31.9899 48.0309 32.3126 47.9365C32.6353 47.8421 32.925 47.6592 33.1491 47.4085C35.0798 45.8499 37.063 44.2301 38.2363 42.0454L33.2716 42.5182C31.8313 42.6583 30.5266 44.2082 29.2657 44.8999C28.4481 45.3474 27.6012 45.7394 26.7308 46.0732C26.1223 46.3052 24.9008 46.9444 24.2397 46.8394Z" fill="white"/>
<path d="M16.8583 24.1966C16.878 24.1508 16.9117 24.1125 16.9546 24.0871C17.0018 24.0738 17.0518 24.0738 17.0991 24.0871C17.9046 24.1922 18.7087 24.3104 19.5114 24.4417C19.2315 24.8562 19.1247 25.3637 19.2136 25.8558C19.3092 26.3442 19.5539 26.7909 19.9141 27.1342C19.7262 27.1292 19.5401 27.0952 19.3625 27.0335L17.9484 26.622C17.6507 26.5344 17.1472 26.4819 16.9721 26.1842C16.8663 25.9119 16.7999 25.6259 16.7751 25.3348C16.6658 24.9577 16.6953 24.5538 16.8583 24.1966Z" fill="white"/>
<path d="M13.9468 38.2892L16.2978 34.7035L18.6444 34.6204L15.5842 38.2892H13.9468Z" fill="url(#paint8_linear_2515_12267)"/>
<path d="M11.0793 38.2892L13.6536 34.6948L15.777 34.6204L12.7124 38.2892H11.0793Z" fill="url(#paint9_linear_2515_12267)"/>
<path d="M11.7886 30.5005L15.0546 33.5651H16.7708L13.4216 30.5005H11.7886Z" fill="url(#paint10_linear_2515_12267)"/>
<defs>
<linearGradient id="paint0_linear_2515_12267" x1="85.1292" y1="30.2684" x2="-9.52836" y2="43.8228" gradientUnits="userSpaceOnUse">
<stop offset="0.01"/>
<stop offset="0.08" stop-opacity="0.69"/>
<stop offset="0.21" stop-opacity="0.32"/>
<stop offset="1" stop-opacity="0"/>
</linearGradient>
<linearGradient id="paint1_linear_2515_12267" x1="57.0049" y1="17.5374" x2="57.0049" y2="50.6441" gradientUnits="userSpaceOnUse">
<stop stop-opacity="0.5"/>
<stop offset="1" stop-opacity="0.2"/>
</linearGradient>
<linearGradient id="paint2_linear_2515_12267" x1="57.0048" y1="26.0703" x2="57.0048" y2="42.1114" gradientUnits="userSpaceOnUse">
<stop stop-opacity="0.6"/>
<stop offset="1" stop-opacity="0"/>
</linearGradient>
<linearGradient id="paint3_linear_2515_12267" x1="47.2289" y1="32.1951" x2="75.2921" y2="51.9751" gradientUnits="userSpaceOnUse">
<stop offset="0.01"/>
<stop offset="0.08" stop-opacity="0.69"/>
<stop offset="0.21" stop-opacity="0.32"/>
<stop offset="1" stop-opacity="0"/>
</linearGradient>
<linearGradient id="paint4_linear_2515_12267" x1="34.5019" y1="23.9075" x2="32.4442" y2="58.0431" gradientUnits="userSpaceOnUse">
<stop offset="0.01"/>
<stop offset="0.08" stop-opacity="0.69"/>
<stop offset="0.21" stop-opacity="0.32"/>
<stop offset="1" stop-opacity="0"/>
</linearGradient>
<linearGradient id="paint5_linear_2515_12267" x1="47.9554" y1="29.9056" x2="78.0982" y2="51.1479" gradientUnits="userSpaceOnUse">
<stop offset="0.01"/>
<stop offset="0.08" stop-opacity="0.69"/>
<stop offset="0.21" stop-opacity="0.32"/>
<stop offset="1" stop-opacity="0"/>
</linearGradient>
<linearGradient id="paint6_linear_2515_12267" x1="50.0568" y1="26.937" x2="68.2126" y2="55.101" gradientUnits="userSpaceOnUse">
<stop offset="0.01"/>
<stop offset="0.08" stop-opacity="0.69"/>
<stop offset="0.21" stop-opacity="0.32"/>
<stop offset="1" stop-opacity="0"/>
</linearGradient>
<linearGradient id="paint7_linear_2515_12267" x1="18.6007" y1="36.9406" x2="10.0373" y2="27.3746" gradientUnits="userSpaceOnUse">
<stop offset="0.01"/>
<stop offset="0.08" stop-opacity="0.69"/>
<stop offset="0.21" stop-opacity="0.32"/>
<stop offset="1" stop-opacity="0"/>
</linearGradient>
<linearGradient id="paint8_linear_2515_12267" x1="17.2741" y1="29.104" x2="14.8881" y2="47.054" gradientUnits="userSpaceOnUse">
<stop offset="0.01"/>
<stop offset="0.08" stop-opacity="0.69"/>
<stop offset="0.21" stop-opacity="0.32"/>
<stop offset="1" stop-opacity="0"/>
</linearGradient>
<linearGradient id="paint9_linear_2515_12267" x1="14.4067" y1="29.104" x2="12.0206" y2="47.054" gradientUnits="userSpaceOnUse">
<stop offset="0.01"/>
<stop offset="0.08" stop-opacity="0.69"/>
<stop offset="0.21" stop-opacity="0.32"/>
<stop offset="1" stop-opacity="0"/>
</linearGradient>
<linearGradient id="paint10_linear_2515_12267" x1="15.129" y1="38.2715" x2="13.0582" y2="22.6901" gradientUnits="userSpaceOnUse">
<stop offset="0.01"/>
<stop offset="0.08" stop-opacity="0.69"/>
<stop offset="0.21" stop-opacity="0.32"/>
<stop offset="1" stop-opacity="0"/>
</linearGradient>
</defs>
</svg>
