<svg width="79" height="59" viewBox="0 0 79 59" fill="none" xmlns="http://www.w3.org/2000/svg">
<path opacity="0.18" d="M51.8723 58.493C55.131 58.3157 58.4213 58.0829 61.5423 57.1313C64.6632 56.1796 67.64 54.4394 69.51 51.7603C72.0831 48.0773 72.2319 43.2098 74.3078 39.2212C75.6299 36.6877 77.7216 34.528 78.5656 31.7918C80.0524 26.9719 77.3163 21.9841 76.4375 17.0169C76.2079 15.7185 76.0939 14.3584 75.4463 13.2167C74.7306 11.95 73.4559 11.1013 72.1623 10.4331C66.937 7.74126 60.9738 7.2884 55.2608 6.39377C49.5764 5.5023 44.3353 4.16748 39.0672 1.8541C35.8054 0.429028 32.0701 -0.722118 28.7433 0.546201C27.3895 1.0624 26.2099 1.94278 24.9431 2.64423C22.0233 4.24665 19.1225 4.34007 15.9746 5.0827C12.3993 5.92349 9.4272 8.9114 8.60699 12.4836C7.69336 16.4643 9.29578 20.624 8.85084 24.6759C7.97046 32.7023 -0.608503 38.8016 0.0343648 46.8422C0.50939 52.7974 6.27145 58.5278 12.2821 58.4455C20.4731 58.3347 28.6721 59.0092 36.8758 58.949C41.8783 58.911 46.8772 58.759 51.8723 58.493Z" fill="#68E1FD"/>
<path opacity="0.18" d="M72.2383 23.01C72.2383 27.9898 70.7325 32.2049 68.6551 33.6363L68.0866 33.953L23.5925 57.6409C23.5925 57.6409 22.8816 56.759 21.8017 55.2215C21.0496 54.1479 20.1217 52.7577 19.1321 51.1252L18.1915 39.3334L17.072 47.4896C16.1137 45.682 15.2485 43.8264 14.48 41.9303L14.7428 36.2189C13.8783 36.1935 13.9638 34.2491 13.9859 33.7091C14.0319 32.6102 14.1269 31.5129 14.2013 30.4125C14.3185 28.7008 14.396 26.9669 14.1538 25.2616C14.0446 24.4971 14.035 23.7216 14.1253 22.9546C14.1431 22.6899 14.2091 22.4307 14.32 22.1898C14.4866 21.9124 14.7087 21.6725 14.9724 21.4852C15.7845 20.8338 16.6494 20.2512 17.5581 19.7434C17.5312 19.5613 17.5328 19.3697 17.517 19.1892L17.4125 17.9905C17.3417 17.183 17.2715 16.376 17.2019 15.5695C17.1679 15.3067 17.1679 15.0406 17.2019 14.7778C17.2387 14.5521 17.3217 14.3365 17.4457 14.1444C17.7117 13.8847 17.9883 13.6282 18.2754 13.3749C18.6343 13.0582 19.0107 12.7457 19.4044 12.4375L66.8025 11.8833L67.5514 11.9071C70.1767 12.4042 72.2383 17.1846 72.2383 23.01Z" fill="#68E1FD"/>
<path d="M23.092 21.9238L27.391 23.2697L34.0145 22.0378L34.3074 24.4415L28.1542 26.4936L23.1712 26.0249L23.092 21.9238Z" fill="#68E1FD"/>
<path d="M23.092 21.9238L27.391 23.2697L34.0145 22.0378L34.3074 24.4415L28.1542 26.4936L23.1712 26.0249L23.092 21.9238Z" fill="url(#paint0_linear_2515_12216)"/>
<path d="M67.9678 34.1561C70.8055 34.1561 73.106 29.166 73.106 23.0104C73.106 16.8548 70.8055 11.8647 67.9678 11.8647C65.13 11.8647 62.8296 16.8548 62.8296 23.0104C62.8296 29.166 65.13 34.1561 67.9678 34.1561Z" fill="#68E1FD"/>
<path d="M67.9678 34.1561C70.8055 34.1561 73.106 29.166 73.106 23.0104C73.106 16.8548 70.8055 11.8647 67.9678 11.8647C65.13 11.8647 62.8296 16.8548 62.8296 23.0104C62.8296 29.166 65.13 34.1561 67.9678 34.1561Z" fill="url(#paint1_linear_2515_12216)"/>
<path d="M14.1521 25.2615C14.0445 24.4969 14.0349 23.7216 14.1236 22.9545C14.1433 22.6898 14.2103 22.4307 14.3216 22.1897C14.4875 21.9124 14.7091 21.6725 14.9723 21.4851C15.8034 20.8161 16.6896 20.2186 17.6214 19.699C18.1186 20.1835 18.9214 20.4194 19.5532 20.1328C19.7463 20.0442 19.4946 19.6736 19.7115 19.6879C19.8699 19.699 20.451 20.0299 20.5824 20.1138L22.0249 21.0291C22.4192 21.2808 22.8261 21.5405 23.0953 21.9237C23.3179 22.271 23.4657 22.6609 23.5291 23.0685C23.8696 24.7675 23.6637 26.5219 23.4579 28.2415C23.2995 29.6254 23.4895 31.0093 23.5624 32.3917C23.6305 33.6584 23.6637 34.9251 22.7026 35.8958C22.5344 36.076 22.3298 36.2185 22.1025 36.3138C21.8642 36.3881 21.6157 36.4239 21.3662 36.4199C19.1177 36.5054 17.0213 36.2204 14.7649 36.2204C13.8814 36.2204 13.9732 34.2538 13.9906 33.7091C14.0365 32.6086 14.1315 31.5113 14.206 30.4124C14.3184 28.6991 14.3912 26.9685 14.1521 25.2615Z" fill="#68E1FD"/>
<path d="M19.6175 20.0777C19.4792 20.0664 19.5886 20.0552 19.6175 20.0777V20.0777Z" fill="url(#paint2_linear_2515_12216)"/>
<path d="M23.5593 32.3918C23.6258 33.6585 23.659 34.9253 22.6963 35.8975C22.5287 36.0773 22.3246 36.2192 22.0978 36.3139C22.0708 36.3243 22.0434 36.3333 22.0155 36.3408C21.8016 36.3943 21.5819 36.4209 21.3615 36.42C19.1131 36.5055 17.0182 36.2189 14.7586 36.2189H14.7428C13.8783 36.1936 13.9638 34.2491 13.9859 33.7092C14.0319 32.6103 14.1269 31.513 14.2013 30.4125C14.3185 28.7009 14.396 26.967 14.1538 25.2617C14.0446 24.4971 14.035 23.7216 14.1253 22.9546C14.1431 22.69 14.2091 22.4308 14.32 22.1898C14.4866 21.9125 14.7087 21.6726 14.9724 21.4852C15.7845 20.8339 16.6494 20.2513 17.5581 19.7434L17.6215 19.707C18.1187 20.1916 18.9199 20.4275 19.5532 20.1409C19.6182 20.1124 19.6213 20.0934 19.6087 20.0855H19.8747C20.1344 20.076 20.4827 20.0665 20.573 20.1251L22.0139 21.0403C22.4097 21.292 22.8167 21.5533 23.0858 21.9349C23.3085 22.2822 23.4562 22.6721 23.5197 23.0797C23.8586 24.7787 23.6543 26.5316 23.45 28.2527C23.2885 29.6256 23.4833 31.0111 23.5593 32.3918Z" fill="url(#paint3_linear_2515_12216)"/>
<path d="M22.0202 35.8547L22.0154 36.3408L21.8238 55.2152L21.7985 55.2184L19.4788 55.5065L19.1289 51.1205L18.1899 39.3303L17.072 47.4865L15.962 55.5651H13.8513L14.4799 41.9303L14.7428 36.2173L14.7602 35.8547H22.0202Z" fill="#3E3E54"/>
<path d="M13.6549 56.0897C13.4173 56.2354 13.1513 56.332 12.9059 56.4634C12.585 56.6338 12.2984 56.8619 12.0604 57.1364C11.9739 57.2276 11.9066 57.3353 11.8624 57.4531C11.8404 57.5112 11.8317 57.5735 11.8369 57.6354C11.8421 57.6973 11.8611 57.7573 11.8925 57.8109C12.0081 57.9835 12.2504 58.0009 12.4578 58.0009H13.4221C13.7155 58.013 14.0092 57.9875 14.2961 57.9249C14.5859 57.8601 14.8401 57.6874 15.0071 57.442L15.0483 57.6953C15.05 57.7229 15.0619 57.7488 15.0815 57.7682C15.1014 57.7804 15.125 57.7849 15.148 57.7808C15.2542 57.7795 15.36 57.77 15.4647 57.7523C15.5148 57.748 15.5629 57.7305 15.604 57.7017C15.6452 57.6631 15.6734 57.6128 15.6848 57.5576C15.7756 57.2004 15.8098 56.8312 15.7861 56.4634L15.7766 55.7034C15.7766 55.5989 15.7608 55.4738 15.6658 55.4279C15.625 55.4119 15.5812 55.4054 15.5375 55.4089H14.8488C14.6749 55.389 14.4988 55.4014 14.3294 55.4453C14.2291 55.5027 14.1464 55.5865 14.0903 55.6875C13.9736 55.8495 13.8256 55.9863 13.6549 56.0897Z" fill="#3E3E54"/>
<path d="M21.833 55.9216C22.0706 56.0673 22.3366 56.1639 22.5836 56.2953C22.9044 56.4657 23.1911 56.6938 23.4291 56.9683C23.5145 57.0604 23.5817 57.1678 23.6271 57.2849C23.6488 57.3432 23.6573 57.4055 23.6518 57.4675C23.6463 57.5294 23.627 57.5893 23.5954 57.6428C23.4798 57.8154 23.2375 57.8328 23.0301 57.8328H22.0674C21.7735 57.8441 21.4793 57.8186 21.1918 57.7568C20.9023 57.6924 20.6485 57.5196 20.4824 57.2739L20.4396 57.5272C20.4381 57.554 20.4268 57.5793 20.408 57.5985C20.3877 57.6111 20.3635 57.6161 20.3399 57.6127C20.2338 57.6107 20.128 57.6011 20.0232 57.5842C19.969 57.5839 19.9167 57.5641 19.8759 57.5283C19.8352 57.4925 19.8088 57.4432 19.8015 57.3894C19.7106 57.0318 19.6764 56.662 19.7002 56.2937C19.7002 56.0404 19.7002 55.787 19.7113 55.5353C19.7113 55.4308 19.7271 55.3041 19.8205 55.2597C19.8617 55.2431 19.9062 55.2366 19.9504 55.2407L20.6391 55.2487C20.813 55.2281 20.9892 55.2405 21.1585 55.2851C21.2578 55.3426 21.3398 55.4257 21.396 55.5258C21.5143 55.6851 21.6628 55.8196 21.833 55.9216Z" fill="#3E3E54"/>
<path d="M14.1521 25.2619L18.1566 29.648C18.329 29.8375 18.5527 29.9731 18.8005 30.0383C19.0483 30.1034 19.3097 30.0955 19.5531 30.0153L26.3175 27.7827L25.8425 25.7908L20.9054 26.8406C20.6596 26.8935 20.4033 26.8671 20.1735 26.7652C19.9436 26.6634 19.7519 26.4913 19.626 26.2737L17.1289 21.981C17.1289 21.981 14.3374 19.9859 14.1521 25.2619Z" fill="#68E1FD"/>
<path d="M35.2337 20.6605C35.2764 20.5893 35.4142 20.6241 35.4854 20.6605C35.531 20.8015 35.5669 20.9454 35.5931 21.0912C35.6659 21.2496 35.5931 21.4697 35.7182 21.5979C35.7774 21.6533 35.8556 21.6839 35.9367 21.6834C36.0172 21.6818 36.0976 21.6754 36.1774 21.6644C36.3674 21.6486 36.768 21.6264 36.8598 21.8386C36.879 21.9073 36.8901 21.9779 36.8931 22.0492C36.9422 22.2772 37.243 22.4435 37.1718 22.6651C37.148 22.7364 37.0879 22.7934 37.0752 22.8678C37.0783 22.9483 37.0955 23.0276 37.1259 23.1022C37.1377 23.1758 37.1292 23.2513 37.1013 23.3205C37.0734 23.3897 37.0271 23.45 36.9675 23.4948C36.8441 23.5813 36.6985 23.6308 36.5479 23.6373C36.4941 23.6382 36.4407 23.6473 36.3896 23.6643C36.347 23.6867 36.3067 23.7133 36.2692 23.7434C36.0396 23.9018 35.734 23.8511 35.4569 23.8258C35.1626 23.8002 34.8663 23.8071 34.5734 23.8464C34.3153 23.8828 34.0224 23.9334 33.8197 23.7719C33.617 23.6104 33.6059 23.251 33.7088 22.9881C33.8678 22.6334 34.1425 22.3431 34.4879 22.1648C34.6589 22.0745 35.1909 20.7318 35.2337 20.6605Z" fill="url(#paint4_linear_2515_12216)"/>
<path d="M28.349 10.707C28.1431 10.9265 28.0297 11.2168 28.0323 11.5177C28.0482 11.6557 28.1115 11.7838 28.2113 11.8803C28.3229 11.9741 28.4451 12.0543 28.5755 12.1194C29.1122 12.4013 29.6538 12.7037 30.1715 13.041C31.2145 13.7166 32.161 14.5305 32.9853 15.4605C33.1848 15.698 33.3875 15.9355 33.5838 16.1762L34.138 16.9299C34.3106 17.188 34.4705 17.4556 34.6368 17.7216L34.7603 17.9195L34.8711 18.1253L35.0896 18.537L35.3097 18.9503L35.5013 19.3762C35.6264 19.6613 35.7626 19.9415 35.8703 20.2345C36.0777 20.8203 36.3025 21.3967 36.4609 22.0126C36.7669 23.2338 36.8886 24.4939 36.8219 25.7511C36.7969 26.3766 36.7302 26.9997 36.6224 27.6164C36.5186 28.2294 36.3833 28.8366 36.217 29.4357C35.5501 31.8174 34.4882 34.0702 33.0755 36.1003V36.0892C32.9745 36.2686 32.8912 36.4574 32.8269 36.6529C32.7573 36.8421 32.7335 37.045 32.7573 37.2451C32.7647 37.293 32.778 37.3398 32.7968 37.3845C32.8187 37.428 32.8447 37.4694 32.8744 37.508C32.9373 37.5906 33.0101 37.6651 33.0914 37.7297C33.2552 37.8653 33.4538 37.9525 33.6646 37.9814C33.4454 37.9763 33.232 37.9099 33.0486 37.7898C32.9553 37.7304 32.8692 37.6602 32.7921 37.5808C32.7507 37.5385 32.7141 37.4917 32.6828 37.4415C32.656 37.391 32.6342 37.3379 32.6179 37.2831C32.5689 37.0594 32.5733 36.8272 32.6306 36.6054C32.6788 36.3868 32.7515 36.1743 32.8475 35.9721V35.9594C33.1642 35.4464 33.4365 34.9017 33.7057 34.3601C33.9749 33.8186 34.2203 33.2628 34.4468 32.7023C34.9086 31.5886 35.2855 30.4416 35.5742 29.271C35.7219 28.688 35.8393 28.0976 35.9257 27.5024C35.9494 27.3535 35.9684 27.2063 35.9827 27.0574C35.9969 26.9086 36.0207 26.7613 36.0334 26.6125C36.0555 26.3148 36.0856 26.0187 36.0904 25.721C36.0951 25.4233 36.0983 25.1256 36.0904 24.8295C36.0904 24.6807 36.0745 24.5334 36.0666 24.3846C36.0587 24.2358 36.0492 24.0885 36.0302 23.9412C35.9736 23.3545 35.8757 22.7725 35.7373 22.1995C35.5963 21.6295 35.381 21.0658 35.1878 20.4989C35.1435 20.3548 35.0754 20.2218 35.02 20.0825L34.8474 19.6692L34.6748 19.2543L34.4737 18.8537C33.9516 17.7755 33.3083 16.7603 32.5562 15.8278C32.3646 15.5966 32.1635 15.3749 31.9671 15.1485C31.7708 14.9221 31.5539 14.7131 31.3338 14.5009C30.8992 14.0842 30.4414 13.6925 29.9625 13.3276C29.4875 12.9571 28.9761 12.6293 28.463 12.2904C28.3273 12.2049 28.2024 12.1034 28.0909 11.988C27.9806 11.8602 27.919 11.6976 27.9167 11.5288C27.9225 11.3684 27.9688 11.2121 28.0513 11.0744C28.1316 10.9377 28.232 10.8139 28.349 10.707Z" fill="#68E1FD"/>
<path d="M28.349 10.707C28.1431 10.9265 28.0297 11.2168 28.0323 11.5177C28.0482 11.6557 28.1115 11.7838 28.2113 11.8803C28.3229 11.9741 28.4451 12.0543 28.5755 12.1194C29.1122 12.4013 29.6538 12.7037 30.1715 13.041C31.2145 13.7166 32.161 14.5305 32.9853 15.4605C33.1848 15.698 33.3875 15.9355 33.5838 16.1762L34.138 16.9299C34.3106 17.188 34.4705 17.4556 34.6368 17.7216L34.7603 17.9195L34.8711 18.1253L35.0896 18.537L35.3097 18.9503L35.5013 19.3762C35.6264 19.6613 35.7626 19.9415 35.8703 20.2345C36.0777 20.8203 36.3025 21.3967 36.4609 22.0126C36.7669 23.2338 36.8886 24.4939 36.8219 25.7511C36.7969 26.3766 36.7302 26.9997 36.6224 27.6164C36.5186 28.2294 36.3833 28.8366 36.217 29.4357C35.5501 31.8174 34.4882 34.0702 33.0755 36.1003V36.0892C32.9745 36.2686 32.8912 36.4574 32.8269 36.6529C32.7573 36.8421 32.7335 37.045 32.7573 37.2451C32.7647 37.293 32.778 37.3398 32.7968 37.3845C32.8187 37.428 32.8447 37.4694 32.8744 37.508C32.9373 37.5906 33.0101 37.6651 33.0914 37.7297C33.2552 37.8653 33.4538 37.9525 33.6646 37.9814C33.4454 37.9763 33.232 37.9099 33.0486 37.7898C32.9553 37.7304 32.8692 37.6602 32.7921 37.5808C32.7507 37.5385 32.7141 37.4917 32.6828 37.4415C32.656 37.391 32.6342 37.3379 32.6179 37.2831C32.5689 37.0594 32.5733 36.8272 32.6306 36.6054C32.6788 36.3868 32.7515 36.1743 32.8475 35.9721V35.9594C33.1642 35.4464 33.4365 34.9017 33.7057 34.3601C33.9749 33.8186 34.2203 33.2628 34.4468 32.7023C34.9086 31.5886 35.2855 30.4416 35.5742 29.271C35.7219 28.688 35.8393 28.0976 35.9257 27.5024C35.9494 27.3535 35.9684 27.2063 35.9827 27.0574C35.9969 26.9086 36.0207 26.7613 36.0334 26.6125C36.0555 26.3148 36.0856 26.0187 36.0904 25.721C36.0951 25.4233 36.0983 25.1256 36.0904 24.8295C36.0904 24.6807 36.0745 24.5334 36.0666 24.3846C36.0587 24.2358 36.0492 24.0885 36.0302 23.9412C35.9736 23.3545 35.8757 22.7725 35.7373 22.1995C35.5963 21.6295 35.381 21.0658 35.1878 20.4989C35.1435 20.3548 35.0754 20.2218 35.02 20.0825L34.8474 19.6692L34.6748 19.2543L34.4737 18.8537C33.9516 17.7755 33.3083 16.7603 32.5562 15.8278C32.3646 15.5966 32.1635 15.3749 31.9671 15.1485C31.7708 14.9221 31.5539 14.7131 31.3338 14.5009C30.8992 14.0842 30.4414 13.6925 29.9625 13.3276C29.4875 12.9571 28.9761 12.6293 28.463 12.2904C28.3273 12.2049 28.2024 12.1034 28.0909 11.988C27.9806 11.8602 27.919 11.6976 27.9167 11.5288C27.9225 11.3684 27.9688 11.2121 28.0513 11.0744C28.1316 10.9377 28.232 10.8139 28.349 10.707Z" fill="url(#paint5_linear_2515_12216)"/>
<path d="M32.8602 36.0847C32.8222 36.0182 29.0917 29.4027 27.8614 26.4987C27.3388 25.2637 27.361 22.5275 27.9295 18.3647C28.3522 15.2754 28.9333 12.506 28.9397 12.4807L29.1645 12.5282C29.1408 12.6391 26.8591 23.5441 28.072 26.4085C29.2975 29.3014 33.0217 35.909 33.0597 35.9723L32.8602 36.0847Z" fill="#68E1FD"/>
<path d="M32.8602 36.0847C32.8222 36.0182 29.0917 29.4027 27.8614 26.4987C27.3388 25.2637 27.361 22.5275 27.9295 18.3647C28.3522 15.2754 28.9333 12.506 28.9397 12.4807L29.1645 12.5282C29.1408 12.6391 26.8591 23.5441 28.072 26.4085C29.2975 29.3014 33.0217 35.909 33.0597 35.9723L32.8602 36.0847Z" fill="url(#paint6_linear_2515_12216)"/>
<path d="M28.1008 25.1841L43.615 19.0541L43.6994 19.2676L28.1852 25.3976L28.1008 25.1841Z" fill="#3E3E54"/>
<path d="M42.9624 18.5261H45.5117L43.3725 20.2251L43.5784 19.1706L42.9624 18.5261Z" fill="#68E1FD"/>
<path d="M72.2382 23.0104C72.2382 27.9903 70.7323 32.2054 68.6549 33.6368C68.477 33.762 68.2865 33.8681 68.0864 33.9534C67.7748 34.0896 67.4385 34.1602 67.0984 34.1609C64.2609 34.1609 61.9602 29.1699 61.9602 23.0136C61.9602 17.0726 64.1026 12.2194 66.8023 11.8869C66.9005 11.8743 66.9994 11.868 67.0984 11.8679C67.2503 11.8687 67.4019 11.883 67.5513 11.9107C70.1766 12.4047 72.2382 17.185 72.2382 23.0104Z" fill="#68E1FD"/>
<path d="M66.4905 31.0035C68.5307 31.0035 70.1846 27.417 70.1846 22.9929C70.1846 18.5689 68.5307 14.9824 66.4905 14.9824C64.4503 14.9824 62.7964 18.5689 62.7964 22.9929C62.7964 27.417 64.4503 31.0035 66.4905 31.0035Z" fill="url(#paint7_linear_2515_12216)"/>
<path d="M66.2451 28.8799C67.723 28.8799 68.921 26.281 68.921 23.0751C68.921 19.8692 67.723 17.2703 66.2451 17.2703C64.7672 17.2703 63.5691 19.8692 63.5691 23.0751C63.5691 26.281 64.7672 28.8799 66.2451 28.8799Z" fill="#68E1FD"/>
<path d="M66.128 27.2094C67.1599 27.2094 67.9964 25.3946 67.9964 23.1558C67.9964 20.9171 67.1599 19.1023 66.128 19.1023C65.0961 19.1023 64.2595 20.9171 64.2595 23.1558C64.2595 25.3946 65.0961 27.2094 66.128 27.2094Z" fill="url(#paint8_linear_2515_12216)"/>
<path d="M66.0138 25.9043C66.6898 25.9043 67.2378 24.7162 67.2378 23.2505C67.2378 21.7848 66.6898 20.5967 66.0138 20.5967C65.3378 20.5967 64.7898 21.7848 64.7898 23.2505C64.7898 24.7162 65.3378 25.9043 66.0138 25.9043Z" fill="#68E1FD"/>
<path d="M26.9508 25.1036C27.0632 25.121 27.1678 25.1669 27.2786 25.1938C27.4262 25.2312 27.5803 25.2356 27.7299 25.2065C27.9072 25.1717 28.121 25.102 28.2429 25.235C28.3648 25.368 28.2714 25.5881 28.2239 25.7686C28.197 25.8763 28.1891 25.9871 28.1574 26.0853C28.1117 26.2141 28.0477 26.3357 27.9674 26.4463C27.6855 26.8723 27.3451 27.3378 26.84 27.4185C26.4663 27.4771 26.0989 27.3061 25.7633 27.1367C25.616 27.0802 25.4903 26.9788 25.4038 26.8469C25.3025 26.6474 25.3959 26.402 25.5321 26.2231C25.863 25.7955 26.2858 25.0038 26.9508 25.1036Z" fill="url(#paint9_linear_2515_12216)"/>
<path d="M35.7673 21.3979C35.563 21.4965 35.4006 21.665 35.3097 21.8729C35.2941 21.9077 35.2907 21.9468 35.3002 21.9837C35.3122 22.0092 35.3308 22.0311 35.3541 22.0471C35.4306 22.0877 35.5148 22.1119 35.6012 22.1181C35.6876 22.1244 35.7744 22.1126 35.856 22.0835C36.1052 22.0252 36.3497 21.9485 36.5876 21.8539C36.6461 21.8361 36.7001 21.8058 36.7459 21.7652C36.7805 21.7183 36.8018 21.663 36.8077 21.6051C36.8135 21.5471 36.8037 21.4887 36.7791 21.4359C36.5891 20.9181 36.103 21.2173 35.7673 21.3979Z" fill="url(#paint10_linear_2515_12216)"/>
<path d="M35.7166 22.3802C35.6966 22.3901 35.679 22.4041 35.6648 22.4213C35.6506 22.4384 35.6402 22.4584 35.6343 22.4799C35.6343 22.5559 35.7277 22.5908 35.8037 22.5971C36.0999 22.6209 36.3974 22.6209 36.6936 22.5971C36.5164 22.6162 36.3381 22.6225 36.16 22.6161C36.0708 22.6139 35.9824 22.6321 35.9014 22.6694C35.8204 22.7068 35.7491 22.7622 35.6929 22.8314C35.6802 22.8503 35.6725 22.8721 35.6707 22.8948C35.6757 22.9259 35.6921 22.9541 35.7166 22.974C35.7932 23.0458 35.8842 23.1006 35.9836 23.1348C36.0829 23.1689 36.1884 23.1815 36.293 23.1719C36.1346 23.156 35.9763 23.1434 35.818 23.1323C35.7785 23.125 35.7378 23.1329 35.7039 23.1545C35.6867 23.1739 35.6772 23.199 35.6772 23.2249C35.6772 23.2509 35.6867 23.276 35.7039 23.2954C35.7396 23.3337 35.785 23.3617 35.8354 23.3761C36.0565 23.4799 36.3017 23.5215 36.5447 23.4965C36.6655 23.4816 36.7784 23.4286 36.867 23.3452C36.9555 23.2617 37.0152 23.1522 37.0372 23.0325C37.035 22.95 37.0392 22.8674 37.0499 22.7855C37.0641 22.7269 37.0974 22.6747 37.1069 22.6145C37.1306 22.4815 37.0372 22.3438 37.0736 22.2123C37.0837 22.19 37.087 22.1652 37.0831 22.1411C37.0731 22.1211 37.0562 22.1054 37.0356 22.0967C36.6477 21.9162 36.0428 22.1791 35.7166 22.3802Z" fill="url(#paint11_linear_2515_12216)"/>
<path d="M22.256 17.533C21.8744 18.0081 21.9805 18.7998 21.4643 19.1339C21.1222 19.3508 20.6726 19.2352 20.2735 19.2241C20.216 19.2159 20.1573 19.2213 20.1023 19.24C20.0473 19.2587 19.9974 19.2902 19.9569 19.3318C19.9179 19.3984 19.8987 19.4748 19.9014 19.5519C19.8919 19.7261 19.884 19.8987 19.8761 20.0744C19.8682 20.2502 19.8555 20.464 19.846 20.6587C19.8497 20.7516 19.826 20.8436 19.7779 20.9231C19.637 21.1147 19.3805 21.072 19.181 21.0213C18.641 20.882 18.0726 20.6777 17.7401 20.2296C17.6351 20.0827 17.5712 19.9106 17.5548 19.7308C17.5279 19.5487 17.5295 19.3571 17.5136 19.1766L17.4091 17.978C17.3384 17.1704 17.2682 16.3634 17.1985 15.5569C17.1646 15.2941 17.1646 15.028 17.1985 14.7652C17.2354 14.5396 17.3184 14.324 17.4424 14.1319C17.6512 13.8108 17.9363 13.5465 18.2721 13.3623C18.3513 13.318 18.4304 13.2784 18.5159 13.242C19.1604 12.9665 19.8793 12.9253 20.5744 12.9174C21.6052 12.9063 21.7619 13.5507 21.9805 14.4232C22.0612 14.7573 22.123 15.0962 22.2164 15.4271C22.3367 15.8689 22.7468 16.2283 22.8403 16.6432C22.9258 17.0153 22.4887 17.2464 22.256 17.533Z" fill="url(#paint12_linear_2515_12216)"/>
<path d="M21.5576 14.0689C21.3138 14.2637 21.0145 14.3856 20.7659 14.5646C20.6154 14.6982 20.4567 14.8225 20.2909 14.9367C20.0186 15.095 19.6465 15.1409 19.5103 15.4228C19.464 15.5411 19.4435 15.668 19.4501 15.7949L19.4406 16.5992C19.4406 16.6689 19.4121 16.7576 19.3424 16.7576C19.306 16.7576 19.2807 16.718 19.2617 16.6863L19.1033 16.4219C19.0289 16.3016 18.9165 16.1654 18.7867 16.1955C18.7474 16.2052 18.711 16.2242 18.6806 16.2509C18.3639 16.5042 18.3971 17.0616 18.717 17.3134C18.773 17.3499 18.8232 17.3948 18.8658 17.4464C18.8915 17.4952 18.9049 17.5496 18.9049 17.6047C18.9049 17.6599 18.8915 17.7142 18.8658 17.7631C18.7376 18.0497 18.4272 18.2032 18.2055 18.4249C18.146 18.4972 18.0742 18.5583 17.9934 18.6054C17.9119 18.6341 17.8235 18.6366 17.7406 18.6124C17.6576 18.5883 17.5843 18.5388 17.531 18.4708C17.4274 18.3323 17.355 18.1729 17.3188 18.0037C17.0018 16.9652 16.7834 15.899 16.6665 14.8195C16.623 14.5491 16.6474 14.2721 16.7377 14.0135C16.7867 13.8862 16.8761 13.7785 16.9923 13.707C17.1084 13.6354 17.2449 13.6041 17.3806 13.6177C17.3933 13.1822 17.74 12.8149 18.139 12.6423C18.5381 12.4697 18.9846 12.4539 19.42 12.4412L21.8411 12.3699C21.9351 12.3581 22.0305 12.3746 22.115 12.4174C22.2591 12.5109 22.1372 13.0698 22.1008 13.225C22.0199 13.5594 21.8285 13.8568 21.5576 14.0689Z" fill="#3E3E54"/>
<path d="M21.5576 14.0689C21.3138 14.2637 21.0145 14.3856 20.7659 14.5646C20.6154 14.6982 20.4567 14.8225 20.2909 14.9367C20.0186 15.095 19.6465 15.1409 19.5103 15.4228C19.464 15.5411 19.4435 15.668 19.4501 15.7949L19.4406 16.5992C19.4406 16.6689 19.4121 16.7576 19.3424 16.7576C19.306 16.7576 19.2807 16.718 19.2617 16.6863L19.1033 16.4219C19.0289 16.3016 18.9165 16.1654 18.7867 16.1955C18.7474 16.2052 18.711 16.2242 18.6806 16.2509C18.3639 16.5042 18.3971 17.0616 18.717 17.3134C18.773 17.3499 18.8232 17.3948 18.8658 17.4464C18.8915 17.4952 18.9049 17.5496 18.9049 17.6047C18.9049 17.6599 18.8915 17.7142 18.8658 17.7631C18.7376 18.0497 18.4272 18.2032 18.2055 18.4249C18.146 18.4972 18.0742 18.5583 17.9934 18.6054C17.9119 18.6341 17.8235 18.6366 17.7406 18.6124C17.6576 18.5883 17.5843 18.5388 17.531 18.4708C17.4274 18.3323 17.355 18.1729 17.3188 18.0037C17.0018 16.9652 16.7834 15.899 16.6665 14.8195C16.623 14.5491 16.6474 14.2721 16.7377 14.0135C16.7867 13.8862 16.8761 13.7785 16.9923 13.707C17.1084 13.6354 17.2449 13.6041 17.3806 13.6177C17.3933 13.1822 17.74 12.8149 18.139 12.6423C18.5381 12.4697 18.9846 12.4539 19.42 12.4412L21.8411 12.3699C21.9351 12.3581 22.0305 12.3746 22.115 12.4174C22.2591 12.5109 22.1372 13.0698 22.1008 13.225C22.0199 13.5594 21.8285 13.8568 21.5576 14.0689Z" fill="url(#paint13_linear_2515_12216)"/>
<defs>
<linearGradient id="paint0_linear_2515_12216" x1="29.7709" y1="21.4726" x2="23.0984" y2="32.1258" gradientUnits="userSpaceOnUse">
<stop stop-opacity="0"/>
<stop offset="0.99"/>
</linearGradient>
<linearGradient id="paint1_linear_2515_12216" x1="76.8904" y1="10.1483" x2="60.1267" y2="34.3129" gradientUnits="userSpaceOnUse">
<stop stop-opacity="0"/>
<stop offset="0.99"/>
</linearGradient>
<linearGradient id="paint2_linear_2515_12216" x1="19.5757" y1="20.0664" x2="19.5741" y2="20.0809" gradientUnits="userSpaceOnUse">
<stop stop-opacity="0"/>
<stop offset="0.99"/>
</linearGradient>
<linearGradient id="paint3_linear_2515_12216" x1="19.2571" y1="21.2493" x2="17.6864" y2="48.1025" gradientUnits="userSpaceOnUse">
<stop stop-opacity="0"/>
<stop offset="0.99"/>
</linearGradient>
<linearGradient id="paint4_linear_2515_12216" x1="33.6344" y1="22.2534" x2="37.1829" y2="22.2534" gradientUnits="userSpaceOnUse">
<stop stop-color="#E5C5D5"/>
<stop offset="0.42" stop-color="#EAD4D1"/>
<stop offset="1" stop-color="#F0E9CB"/>
</linearGradient>
<linearGradient id="paint5_linear_2515_12216" x1="33.6709" y1="24.0172" x2="38.9896" y2="23.3665" gradientUnits="userSpaceOnUse">
<stop stop-opacity="0"/>
<stop offset="0.99"/>
</linearGradient>
<linearGradient id="paint6_linear_2515_12216" x1="17.6357" y1="26.4781" x2="40.6791" y2="22.6653" gradientUnits="userSpaceOnUse">
<stop stop-opacity="0"/>
<stop offset="0.99"/>
</linearGradient>
<linearGradient id="paint7_linear_2515_12216" x1="63.2461" y1="44.2392" x2="69.974" y2="0.171123" gradientUnits="userSpaceOnUse">
<stop stop-opacity="0"/>
<stop offset="0.99"/>
</linearGradient>
<linearGradient id="paint8_linear_2515_12216" x1="65.8461" y1="37.4668" x2="66.3512" y2="11.8582" gradientUnits="userSpaceOnUse">
<stop stop-opacity="0"/>
<stop offset="0.99"/>
</linearGradient>
<linearGradient id="paint9_linear_2515_12216" x1="25.3611" y1="26.2658" x2="28.3062" y2="26.2658" gradientUnits="userSpaceOnUse">
<stop stop-color="#E5C5D5"/>
<stop offset="0.42" stop-color="#EAD4D1"/>
<stop offset="1" stop-color="#F0E9CB"/>
</linearGradient>
<linearGradient id="paint10_linear_2515_12216" x1="35.2971" y1="21.629" x2="36.8029" y2="21.629" gradientUnits="userSpaceOnUse">
<stop stop-color="#E5C5D5"/>
<stop offset="0.42" stop-color="#EAD4D1"/>
<stop offset="1" stop-color="#F0E9CB"/>
</linearGradient>
<linearGradient id="paint11_linear_2515_12216" x1="35.6343" y1="22.7744" x2="37.1037" y2="22.7744" gradientUnits="userSpaceOnUse">
<stop stop-color="#E5C5D5"/>
<stop offset="0.42" stop-color="#EAD4D1"/>
<stop offset="1" stop-color="#F0E9CB"/>
</linearGradient>
<linearGradient id="paint12_linear_2515_12216" x1="17.1748" y1="16.9963" x2="22.8545" y2="16.9963" gradientUnits="userSpaceOnUse">
<stop stop-color="#E5C5D5"/>
<stop offset="0.42" stop-color="#EAD4D1"/>
<stop offset="1" stop-color="#F0E9CB"/>
</linearGradient>
<linearGradient id="paint13_linear_2515_12216" x1="16.486" y1="13.0334" x2="19.5689" y2="15.2771" gradientUnits="userSpaceOnUse">
<stop stop-opacity="0"/>
<stop offset="0.99"/>
</linearGradient>
</defs>
</svg>
